<mxfile host="Electron" agent="Mozilla/5.0 (Windows NT 10.0; Win64; x64) AppleWebKit/537.36 (KHTML, like Gecko) draw.io/28.1.2 Chrome/138.0.7204.243 Electron/37.4.0 Safari/537.36" version="28.1.2" pages="13">
  <diagram name="Use-Case" id="-Ouxz08pKRJPmLthxf09">
    <mxGraphModel dx="1678" dy="969" grid="1" gridSize="10" guides="1" tooltips="1" connect="1" arrows="1" fold="1" page="1" pageScale="1" pageWidth="850" pageHeight="1100" math="0" shadow="0">
      <root>
        <mxCell id="0" />
        <mxCell id="1" parent="0" />
        <mxCell id="-CIsHNdacfX2C-PG1zb3-10" style="rounded=0;orthogonalLoop=1;jettySize=auto;html=1;exitX=0.5;exitY=0.5;exitDx=0;exitDy=0;exitPerimeter=0;entryX=1;entryY=0.5;entryDx=0;entryDy=0;endArrow=none;startFill=0;fontSize=14;fontStyle=1" parent="1" source="-CIsHNdacfX2C-PG1zb3-1" target="-CIsHNdacfX2C-PG1zb3-4" edge="1">
          <mxGeometry relative="1" as="geometry" />
        </mxCell>
        <mxCell id="-CIsHNdacfX2C-PG1zb3-12" style="rounded=0;orthogonalLoop=1;jettySize=auto;html=1;exitX=0.5;exitY=0.5;exitDx=0;exitDy=0;exitPerimeter=0;entryX=1;entryY=0.5;entryDx=0;entryDy=0;endArrow=none;startFill=0;fontSize=14;fontStyle=1" parent="1" source="-CIsHNdacfX2C-PG1zb3-1" target="-CIsHNdacfX2C-PG1zb3-6" edge="1">
          <mxGeometry relative="1" as="geometry" />
        </mxCell>
        <mxCell id="-CIsHNdacfX2C-PG1zb3-14" style="rounded=0;orthogonalLoop=1;jettySize=auto;html=1;exitX=0.5;exitY=0.5;exitDx=0;exitDy=0;exitPerimeter=0;entryX=1;entryY=0.5;entryDx=0;entryDy=0;endArrow=none;startFill=0;fontSize=14;fontStyle=1" parent="1" source="-CIsHNdacfX2C-PG1zb3-1" target="-CIsHNdacfX2C-PG1zb3-7" edge="1">
          <mxGeometry relative="1" as="geometry" />
        </mxCell>
        <mxCell id="-CIsHNdacfX2C-PG1zb3-15" style="rounded=0;orthogonalLoop=1;jettySize=auto;html=1;exitX=0.5;exitY=0.5;exitDx=0;exitDy=0;exitPerimeter=0;entryX=1;entryY=0.5;entryDx=0;entryDy=0;endArrow=none;startFill=0;fontSize=14;fontStyle=1" parent="1" source="-CIsHNdacfX2C-PG1zb3-1" target="-CIsHNdacfX2C-PG1zb3-8" edge="1">
          <mxGeometry relative="1" as="geometry" />
        </mxCell>
        <mxCell id="PaOSEHuivedLfygMDXVy-4" style="rounded=0;orthogonalLoop=1;jettySize=auto;html=1;exitX=0.5;exitY=0.5;exitDx=0;exitDy=0;exitPerimeter=0;entryX=1;entryY=0.5;entryDx=0;entryDy=0;endArrow=none;startFill=0;fontSize=14;fontStyle=1" parent="1" source="-CIsHNdacfX2C-PG1zb3-1" target="rDdpRKm8MzPnryCLPahQ-2" edge="1">
          <mxGeometry relative="1" as="geometry" />
        </mxCell>
        <mxCell id="PaOSEHuivedLfygMDXVy-5" style="rounded=0;orthogonalLoop=1;jettySize=auto;html=1;exitX=0.5;exitY=0.5;exitDx=0;exitDy=0;exitPerimeter=0;entryX=1;entryY=0.5;entryDx=0;entryDy=0;endArrow=none;startFill=0;fontSize=14;fontStyle=1" parent="1" source="-CIsHNdacfX2C-PG1zb3-1" target="rDdpRKm8MzPnryCLPahQ-3" edge="1">
          <mxGeometry relative="1" as="geometry" />
        </mxCell>
        <mxCell id="PaOSEHuivedLfygMDXVy-6" style="rounded=0;orthogonalLoop=1;jettySize=auto;html=1;exitX=0.5;exitY=0.5;exitDx=0;exitDy=0;exitPerimeter=0;entryX=1;entryY=0.5;entryDx=0;entryDy=0;endArrow=none;startFill=0;fontSize=14;fontStyle=1" parent="1" source="-CIsHNdacfX2C-PG1zb3-1" target="rDdpRKm8MzPnryCLPahQ-5" edge="1">
          <mxGeometry relative="1" as="geometry" />
        </mxCell>
        <mxCell id="PaOSEHuivedLfygMDXVy-7" style="rounded=0;orthogonalLoop=1;jettySize=auto;html=1;exitX=0.5;exitY=0.5;exitDx=0;exitDy=0;exitPerimeter=0;entryX=1;entryY=0.5;entryDx=0;entryDy=0;endArrow=none;startFill=0;fontSize=14;fontStyle=1" parent="1" source="-CIsHNdacfX2C-PG1zb3-1" target="rDdpRKm8MzPnryCLPahQ-1" edge="1">
          <mxGeometry relative="1" as="geometry" />
        </mxCell>
        <mxCell id="9IlfaJ1EdeczvY3xlRlh-7" style="rounded=0;orthogonalLoop=1;jettySize=auto;html=1;exitX=0.5;exitY=0.5;exitDx=0;exitDy=0;exitPerimeter=0;entryX=1;entryY=0.5;entryDx=0;entryDy=0;endArrow=none;startFill=0;fontSize=14;fontStyle=1" parent="1" source="-CIsHNdacfX2C-PG1zb3-1" target="9IlfaJ1EdeczvY3xlRlh-2" edge="1">
          <mxGeometry relative="1" as="geometry" />
        </mxCell>
        <mxCell id="9IlfaJ1EdeczvY3xlRlh-8" style="rounded=0;orthogonalLoop=1;jettySize=auto;html=1;exitX=0.5;exitY=0.5;exitDx=0;exitDy=0;exitPerimeter=0;entryX=1;entryY=0.5;entryDx=0;entryDy=0;endArrow=none;startFill=0;fontSize=14;fontStyle=1" parent="1" source="-CIsHNdacfX2C-PG1zb3-1" target="9IlfaJ1EdeczvY3xlRlh-4" edge="1">
          <mxGeometry relative="1" as="geometry" />
        </mxCell>
        <mxCell id="e1sUK-DaWdX0FJ8JJZ72-6" style="rounded=0;orthogonalLoop=1;jettySize=auto;html=1;exitX=0.5;exitY=0.5;exitDx=0;exitDy=0;exitPerimeter=0;entryX=1;entryY=0.5;entryDx=0;entryDy=0;endArrow=none;startFill=0;" edge="1" parent="1" source="-CIsHNdacfX2C-PG1zb3-1" target="e1sUK-DaWdX0FJ8JJZ72-2">
          <mxGeometry relative="1" as="geometry" />
        </mxCell>
        <mxCell id="-CIsHNdacfX2C-PG1zb3-1" value="Pemilik" style="shape=umlActor;verticalLabelPosition=bottom;verticalAlign=top;html=1;outlineConnect=0;fontSize=14;fontStyle=1" parent="1" vertex="1">
          <mxGeometry x="625" y="420" width="30" height="60" as="geometry" />
        </mxCell>
        <mxCell id="-CIsHNdacfX2C-PG1zb3-11" style="rounded=0;orthogonalLoop=1;jettySize=auto;html=1;exitX=0.5;exitY=0.5;exitDx=0;exitDy=0;exitPerimeter=0;entryX=0;entryY=0.5;entryDx=0;entryDy=0;endArrow=none;startFill=0;fontSize=14;fontStyle=1" parent="1" source="-CIsHNdacfX2C-PG1zb3-3" target="-CIsHNdacfX2C-PG1zb3-5" edge="1">
          <mxGeometry relative="1" as="geometry" />
        </mxCell>
        <mxCell id="-CIsHNdacfX2C-PG1zb3-13" style="rounded=0;orthogonalLoop=1;jettySize=auto;html=1;exitX=0.5;exitY=0.5;exitDx=0;exitDy=0;exitPerimeter=0;entryX=0;entryY=0.5;entryDx=0;entryDy=0;endArrow=none;startFill=0;fontSize=14;fontStyle=1" parent="1" source="-CIsHNdacfX2C-PG1zb3-3" target="-CIsHNdacfX2C-PG1zb3-7" edge="1">
          <mxGeometry relative="1" as="geometry" />
        </mxCell>
        <mxCell id="-CIsHNdacfX2C-PG1zb3-16" style="rounded=0;orthogonalLoop=1;jettySize=auto;html=1;exitX=0.5;exitY=0.5;exitDx=0;exitDy=0;exitPerimeter=0;entryX=0;entryY=0.5;entryDx=0;entryDy=0;endArrow=none;startFill=0;fontSize=14;fontStyle=1" parent="1" source="-CIsHNdacfX2C-PG1zb3-3" target="-CIsHNdacfX2C-PG1zb3-8" edge="1">
          <mxGeometry relative="1" as="geometry" />
        </mxCell>
        <mxCell id="PaOSEHuivedLfygMDXVy-1" style="rounded=0;orthogonalLoop=1;jettySize=auto;html=1;exitX=0.5;exitY=0.5;exitDx=0;exitDy=0;exitPerimeter=0;entryX=0;entryY=0.5;entryDx=0;entryDy=0;endArrow=none;startFill=0;fontSize=14;fontStyle=1" parent="1" source="-CIsHNdacfX2C-PG1zb3-3" target="-CIsHNdacfX2C-PG1zb3-6" edge="1">
          <mxGeometry relative="1" as="geometry" />
        </mxCell>
        <mxCell id="PaOSEHuivedLfygMDXVy-2" style="rounded=0;orthogonalLoop=1;jettySize=auto;html=1;exitX=0.5;exitY=0.5;exitDx=0;exitDy=0;exitPerimeter=0;entryX=0;entryY=0.5;entryDx=0;entryDy=0;endArrow=none;startFill=0;fontSize=14;fontStyle=1" parent="1" source="-CIsHNdacfX2C-PG1zb3-3" target="rDdpRKm8MzPnryCLPahQ-5" edge="1">
          <mxGeometry relative="1" as="geometry" />
        </mxCell>
        <mxCell id="9IlfaJ1EdeczvY3xlRlh-5" style="rounded=0;orthogonalLoop=1;jettySize=auto;html=1;exitX=0.5;exitY=0.5;exitDx=0;exitDy=0;exitPerimeter=0;entryX=0;entryY=0.5;entryDx=0;entryDy=0;endArrow=none;startFill=0;fontSize=14;fontStyle=1" parent="1" source="-CIsHNdacfX2C-PG1zb3-3" target="9IlfaJ1EdeczvY3xlRlh-1" edge="1">
          <mxGeometry relative="1" as="geometry" />
        </mxCell>
        <mxCell id="-CIsHNdacfX2C-PG1zb3-3" value="Karyawan" style="shape=umlActor;verticalLabelPosition=bottom;verticalAlign=top;html=1;outlineConnect=0;fontSize=14;fontStyle=1" parent="1" vertex="1">
          <mxGeometry x="127" y="220" width="30" height="60" as="geometry" />
        </mxCell>
        <mxCell id="-CIsHNdacfX2C-PG1zb3-9" style="rounded=0;orthogonalLoop=1;jettySize=auto;html=1;exitX=0.5;exitY=0.5;exitDx=0;exitDy=0;exitPerimeter=0;entryX=0.017;entryY=0.7;entryDx=0;entryDy=0;entryPerimeter=0;endArrow=none;startFill=0;fontSize=14;fontStyle=1" parent="1" source="-CIsHNdacfX2C-PG1zb3-3" target="-CIsHNdacfX2C-PG1zb3-4" edge="1">
          <mxGeometry relative="1" as="geometry" />
        </mxCell>
        <mxCell id="-CIsHNdacfX2C-PG1zb3-18" value="&lt;i&gt;Use Case Diagram&lt;/i&gt;" style="swimlane;whiteSpace=wrap;html=1;fontSize=14;fontStyle=1" parent="1" vertex="1">
          <mxGeometry x="250" width="280" height="1020" as="geometry" />
        </mxCell>
        <mxCell id="-CIsHNdacfX2C-PG1zb3-4" value="Login" style="ellipse;whiteSpace=wrap;html=1;fontSize=14;fontStyle=1" parent="-CIsHNdacfX2C-PG1zb3-18" vertex="1">
          <mxGeometry x="80" y="40" width="120" height="40" as="geometry" />
        </mxCell>
        <mxCell id="-CIsHNdacfX2C-PG1zb3-5" value="&lt;div style=&quot;text-align: start;&quot;&gt;&lt;font face=&quot;__Inter_d65c78, __Inter_Fallback_d65c78, ui-sans-serif, system-ui, sans-serif, Apple Color Emoji, Segoe UI Emoji, Segoe UI Symbol, Noto Color Emoji&quot;&gt;&lt;span style=&quot;text-wrap-mode: nowrap; background-color: light-dark(#ffffff, var(--ge-dark-color, #121212));&quot;&gt;Mencatat&lt;/span&gt;&lt;/font&gt;&lt;/div&gt;&lt;div style=&quot;text-align: start;&quot;&gt;&lt;font face=&quot;__Inter_d65c78, __Inter_Fallback_d65c78, ui-sans-serif, system-ui, sans-serif, Apple Color Emoji, Segoe UI Emoji, Segoe UI Symbol, Noto Color Emoji&quot;&gt;&lt;span style=&quot;text-wrap-mode: nowrap; background-color: light-dark(#ffffff, var(--ge-dark-color, #121212));&quot;&gt;Pemasukan&lt;/span&gt;&lt;/font&gt;&lt;/div&gt;" style="ellipse;whiteSpace=wrap;html=1;fontSize=14;fontStyle=1" parent="-CIsHNdacfX2C-PG1zb3-18" vertex="1">
          <mxGeometry x="80" y="90" width="120" height="45" as="geometry" />
        </mxCell>
        <mxCell id="-CIsHNdacfX2C-PG1zb3-7" value="&lt;span style=&quot;font-family: __Inter_d65c78, __Inter_Fallback_d65c78, ui-sans-serif, system-ui, sans-serif, &amp;quot;Apple Color Emoji&amp;quot;, &amp;quot;Segoe UI Emoji&amp;quot;, &amp;quot;Segoe UI Symbol&amp;quot;, &amp;quot;Noto Color Emoji&amp;quot;; text-align: start; text-wrap-mode: nowrap; background-color: light-dark(#ffffff, var(--ge-dark-color, #121212));&quot;&gt;&lt;font&gt;Melihat Daftar&lt;/font&gt;&lt;/span&gt;&lt;div&gt;&lt;span style=&quot;font-family: __Inter_d65c78, __Inter_Fallback_d65c78, ui-sans-serif, system-ui, sans-serif, &amp;quot;Apple Color Emoji&amp;quot;, &amp;quot;Segoe UI Emoji&amp;quot;, &amp;quot;Segoe UI Symbol&amp;quot;, &amp;quot;Noto Color Emoji&amp;quot;; text-align: start; text-wrap-mode: nowrap; background-color: light-dark(#ffffff, var(--ge-dark-color, #121212));&quot;&gt;&lt;font&gt;Transaksi&lt;/font&gt;&lt;/span&gt;&lt;/div&gt;" style="ellipse;whiteSpace=wrap;html=1;fontSize=14;fontStyle=1" parent="-CIsHNdacfX2C-PG1zb3-18" vertex="1">
          <mxGeometry x="80" y="210" width="120" height="55" as="geometry" />
        </mxCell>
        <mxCell id="-CIsHNdacfX2C-PG1zb3-6" value="&lt;span style=&quot;font-family: __Inter_d65c78, __Inter_Fallback_d65c78, ui-sans-serif, system-ui, sans-serif, &amp;quot;Apple Color Emoji&amp;quot;, &amp;quot;Segoe UI Emoji&amp;quot;, &amp;quot;Segoe UI Symbol&amp;quot;, &amp;quot;Noto Color Emoji&amp;quot;; text-align: start; text-wrap-mode: nowrap; background-color: light-dark(#ffffff, var(--ge-dark-color, #121212));&quot;&gt;&lt;font&gt;Mencatat&lt;/font&gt;&lt;/span&gt;&lt;div&gt;&lt;span style=&quot;font-family: __Inter_d65c78, __Inter_Fallback_d65c78, ui-sans-serif, system-ui, sans-serif, &amp;quot;Apple Color Emoji&amp;quot;, &amp;quot;Segoe UI Emoji&amp;quot;, &amp;quot;Segoe UI Symbol&amp;quot;, &amp;quot;Noto Color Emoji&amp;quot;; text-align: start; text-wrap-mode: nowrap; background-color: light-dark(#ffffff, var(--ge-dark-color, #121212));&quot;&gt;&lt;font&gt;Pengeluaran&lt;/font&gt;&lt;/span&gt;&lt;/div&gt;" style="ellipse;whiteSpace=wrap;html=1;fontSize=14;fontStyle=1" parent="-CIsHNdacfX2C-PG1zb3-18" vertex="1">
          <mxGeometry x="80" y="150" width="120" height="50" as="geometry" />
        </mxCell>
        <mxCell id="-CIsHNdacfX2C-PG1zb3-8" value="&lt;span style=&quot;font-family: __Inter_d65c78, __Inter_Fallback_d65c78, ui-sans-serif, system-ui, sans-serif, &amp;quot;Apple Color Emoji&amp;quot;, &amp;quot;Segoe UI Emoji&amp;quot;, &amp;quot;Segoe UI Symbol&amp;quot;, &amp;quot;Noto Color Emoji&amp;quot;; text-align: start; text-wrap-mode: nowrap; background-color: light-dark(#ffffff, var(--ge-dark-color, #121212));&quot;&gt;&lt;font&gt;Mengedit&lt;/font&gt;&lt;/span&gt;&lt;div&gt;&lt;span style=&quot;font-family: __Inter_d65c78, __Inter_Fallback_d65c78, ui-sans-serif, system-ui, sans-serif, &amp;quot;Apple Color Emoji&amp;quot;, &amp;quot;Segoe UI Emoji&amp;quot;, &amp;quot;Segoe UI Symbol&amp;quot;, &amp;quot;Noto Color Emoji&amp;quot;; text-align: start; text-wrap-mode: nowrap; background-color: light-dark(#ffffff, var(--ge-dark-color, #121212));&quot;&gt;&lt;font&gt;Transaksi&lt;/font&gt;&lt;/span&gt;&lt;/div&gt;" style="ellipse;whiteSpace=wrap;html=1;fontSize=14;fontStyle=1" parent="-CIsHNdacfX2C-PG1zb3-18" vertex="1">
          <mxGeometry x="80" y="280" width="120" height="45" as="geometry" />
        </mxCell>
        <mxCell id="rDdpRKm8MzPnryCLPahQ-1" value="&lt;div&gt;&lt;font face=&quot;__Inter_d65c78, __Inter_Fallback_d65c78, ui-sans-serif, system-ui, sans-serif, Apple Color Emoji, Segoe UI Emoji, Segoe UI Symbol, Noto Color Emoji&quot;&gt;&lt;span style=&quot;text-wrap-mode: nowrap; background-color: light-dark(#ffffff, var(--ge-dark-color, #121212));&quot;&gt;Menghapus&lt;/span&gt;&lt;/font&gt;&lt;/div&gt;&lt;div&gt;&lt;font face=&quot;__Inter_d65c78, __Inter_Fallback_d65c78, ui-sans-serif, system-ui, sans-serif, Apple Color Emoji, Segoe UI Emoji, Segoe UI Symbol, Noto Color Emoji&quot;&gt;&lt;span style=&quot;text-wrap-mode: nowrap; background-color: light-dark(#ffffff, var(--ge-dark-color, #121212));&quot;&gt;Tansaksi&lt;/span&gt;&lt;/font&gt;&lt;/div&gt;" style="ellipse;whiteSpace=wrap;html=1;align=center;fontSize=14;fontStyle=1" parent="-CIsHNdacfX2C-PG1zb3-18" vertex="1">
          <mxGeometry x="80" y="340" width="120" height="45" as="geometry" />
        </mxCell>
        <mxCell id="rDdpRKm8MzPnryCLPahQ-2" value="&lt;div&gt;&lt;font face=&quot;__Inter_d65c78, __Inter_Fallback_d65c78, ui-sans-serif, system-ui, sans-serif, Apple Color Emoji, Segoe UI Emoji, Segoe UI Symbol, Noto Color Emoji&quot;&gt;&lt;span style=&quot;text-wrap-mode: nowrap; background-color: light-dark(#ffffff, var(--ge-dark-color, #121212));&quot;&gt;Melihat Laporan&lt;/span&gt;&lt;/font&gt;&lt;/div&gt;&lt;div&gt;&lt;font face=&quot;__Inter_d65c78, __Inter_Fallback_d65c78, ui-sans-serif, system-ui, sans-serif, Apple Color Emoji, Segoe UI Emoji, Segoe UI Symbol, Noto Color Emoji&quot;&gt;&lt;span style=&quot;text-wrap-mode: nowrap; background-color: light-dark(#ffffff, var(--ge-dark-color, #121212));&quot;&gt;Keuangan&lt;/span&gt;&lt;/font&gt;&lt;/div&gt;" style="ellipse;whiteSpace=wrap;html=1;align=center;fontSize=14;fontStyle=1" parent="-CIsHNdacfX2C-PG1zb3-18" vertex="1">
          <mxGeometry x="80" y="400" width="120" height="65" as="geometry" />
        </mxCell>
        <mxCell id="rDdpRKm8MzPnryCLPahQ-3" value="&lt;font face=&quot;__Inter_d65c78, __Inter_Fallback_d65c78, ui-sans-serif, system-ui, sans-serif, Apple Color Emoji, Segoe UI Emoji, Segoe UI Symbol, Noto Color Emoji&quot;&gt;&lt;span style=&quot;text-wrap-mode: nowrap; background-color: light-dark(#ffffff, var(--ge-dark-color, #121212));&quot;&gt;Mengelola Kategori&lt;/span&gt;&lt;/font&gt;&lt;div&gt;&lt;font face=&quot;__Inter_d65c78, __Inter_Fallback_d65c78, ui-sans-serif, system-ui, sans-serif, Apple Color Emoji, Segoe UI Emoji, Segoe UI Symbol, Noto Color Emoji&quot;&gt;&lt;span style=&quot;text-wrap-mode: nowrap; background-color: light-dark(#ffffff, var(--ge-dark-color, #121212));&quot;&gt;Transaksi&lt;/span&gt;&lt;/font&gt;&lt;/div&gt;" style="ellipse;whiteSpace=wrap;html=1;align=center;fontSize=14;fontStyle=1" parent="-CIsHNdacfX2C-PG1zb3-18" vertex="1">
          <mxGeometry x="80" y="480" width="120" height="65" as="geometry" />
        </mxCell>
        <mxCell id="rDdpRKm8MzPnryCLPahQ-5" value="&lt;span&gt;Logout&lt;/span&gt;" style="ellipse;whiteSpace=wrap;html=1;fontSize=14;fontStyle=1" parent="-CIsHNdacfX2C-PG1zb3-18" vertex="1">
          <mxGeometry x="80" y="970" width="120" height="40" as="geometry" />
        </mxCell>
        <mxCell id="9IlfaJ1EdeczvY3xlRlh-1" value="Mencatat Ditribusi Barang" style="ellipse;whiteSpace=wrap;html=1;align=center;fontSize=14;fontStyle=1" parent="-CIsHNdacfX2C-PG1zb3-18" vertex="1">
          <mxGeometry x="80" y="560" width="120" height="65" as="geometry" />
        </mxCell>
        <mxCell id="9IlfaJ1EdeczvY3xlRlh-2" value="Melihat Riwayat Distribusi" style="ellipse;whiteSpace=wrap;html=1;align=center;fontSize=14;fontStyle=1" parent="-CIsHNdacfX2C-PG1zb3-18" vertex="1">
          <mxGeometry x="80" y="640" width="120" height="65" as="geometry" />
        </mxCell>
        <mxCell id="9IlfaJ1EdeczvY3xlRlh-4" value="Mencetak Laporan Distribusi" style="ellipse;whiteSpace=wrap;html=1;align=center;fontSize=14;fontStyle=1" parent="-CIsHNdacfX2C-PG1zb3-18" vertex="1">
          <mxGeometry x="80" y="720" width="120" height="65" as="geometry" />
        </mxCell>
        <mxCell id="ocvoKmxgiPinr4korPP0-1" value="Melihat Pemesanan Barang" style="ellipse;whiteSpace=wrap;html=1;align=center;fontSize=14;fontStyle=1" parent="-CIsHNdacfX2C-PG1zb3-18" vertex="1">
          <mxGeometry x="80" y="810" width="120" height="65" as="geometry" />
        </mxCell>
        <mxCell id="e1sUK-DaWdX0FJ8JJZ72-2" value="Melihat Data Pemasok" style="ellipse;whiteSpace=wrap;html=1;align=center;fontSize=14;fontStyle=1" vertex="1" parent="-CIsHNdacfX2C-PG1zb3-18">
          <mxGeometry x="80" y="890" width="120" height="65" as="geometry" />
        </mxCell>
        <mxCell id="PaOSEHuivedLfygMDXVy-3" style="rounded=0;orthogonalLoop=1;jettySize=auto;html=1;exitX=0.5;exitY=0.5;exitDx=0;exitDy=0;exitPerimeter=0;entryX=0;entryY=0.667;entryDx=0;entryDy=0;entryPerimeter=0;endArrow=none;startFill=0;fontSize=14;fontStyle=1" parent="1" source="-CIsHNdacfX2C-PG1zb3-3" target="rDdpRKm8MzPnryCLPahQ-1" edge="1">
          <mxGeometry relative="1" as="geometry" />
        </mxCell>
        <mxCell id="ocvoKmxgiPinr4korPP0-2" style="rounded=0;orthogonalLoop=1;jettySize=auto;html=1;exitX=0.5;exitY=0.5;exitDx=0;exitDy=0;exitPerimeter=0;entryX=1;entryY=0.5;entryDx=0;entryDy=0;endArrow=none;startFill=0;fontSize=14;fontStyle=1" parent="1" source="-CIsHNdacfX2C-PG1zb3-1" target="ocvoKmxgiPinr4korPP0-1" edge="1">
          <mxGeometry relative="1" as="geometry">
            <mxPoint x="685" y="467" as="sourcePoint" />
            <mxPoint x="460" y="977" as="targetPoint" />
          </mxGeometry>
        </mxCell>
        <mxCell id="ocvoKmxgiPinr4korPP0-4" style="rounded=0;orthogonalLoop=1;jettySize=auto;html=1;exitX=0.5;exitY=0.5;exitDx=0;exitDy=0;exitPerimeter=0;entryX=0;entryY=0.5;entryDx=0;entryDy=0;endArrow=none;startFill=0;fontSize=14;fontStyle=1" parent="1" source="-CIsHNdacfX2C-PG1zb3-3" target="ocvoKmxgiPinr4korPP0-1" edge="1">
          <mxGeometry relative="1" as="geometry">
            <mxPoint x="135" y="467" as="sourcePoint" />
            <mxPoint x="340" y="977" as="targetPoint" />
          </mxGeometry>
        </mxCell>
        <mxCell id="e1sUK-DaWdX0FJ8JJZ72-4" style="rounded=0;orthogonalLoop=1;jettySize=auto;html=1;exitX=0.5;exitY=0.5;exitDx=0;exitDy=0;exitPerimeter=0;entryX=0;entryY=0.5;entryDx=0;entryDy=0;endArrow=none;startFill=0;fontSize=14;fontStyle=1" edge="1" parent="1" source="e1sUK-DaWdX0FJ8JJZ72-1" target="e1sUK-DaWdX0FJ8JJZ72-2">
          <mxGeometry relative="1" as="geometry" />
        </mxCell>
        <mxCell id="e1sUK-DaWdX0FJ8JJZ72-5" style="rounded=0;orthogonalLoop=1;jettySize=auto;html=1;exitX=0.5;exitY=0.5;exitDx=0;exitDy=0;exitPerimeter=0;entryX=0;entryY=0.5;entryDx=0;entryDy=0;endArrow=none;startFill=0;fontSize=14;fontStyle=1" edge="1" parent="1" source="e1sUK-DaWdX0FJ8JJZ72-1" target="9IlfaJ1EdeczvY3xlRlh-1">
          <mxGeometry relative="1" as="geometry" />
        </mxCell>
        <mxCell id="e1sUK-DaWdX0FJ8JJZ72-1" value="Agen" style="shape=umlActor;verticalLabelPosition=bottom;verticalAlign=top;html=1;outlineConnect=0;fontSize=14;fontStyle=1" vertex="1" parent="1">
          <mxGeometry x="120" y="600" width="30" height="60" as="geometry" />
        </mxCell>
      </root>
    </mxGraphModel>
  </diagram>
  <diagram id="U8vwI0CPwjGF03lacdFP" name="Class Diagram">
    <mxGraphModel dx="3766" dy="1201" grid="1" gridSize="10" guides="1" tooltips="1" connect="1" arrows="1" fold="1" page="1" pageScale="1" pageWidth="850" pageHeight="1100" math="0" shadow="0">
      <root>
        <mxCell id="0" />
        <mxCell id="1" parent="0" />
        <mxCell id="N9J1Cjl4YSz3q8Sh-UzR-68" value="User" style="shape=table;startSize=30;container=1;collapsible=1;childLayout=tableLayout;fixedRows=1;rowLines=0;fontStyle=1;align=center;resizeLast=1;" parent="1" vertex="1">
          <mxGeometry x="-1650" y="120" width="310" height="150" as="geometry" />
        </mxCell>
        <mxCell id="N9J1Cjl4YSz3q8Sh-UzR-69" value="" style="shape=tableRow;horizontal=0;startSize=0;swimlaneHead=0;swimlaneBody=0;fillColor=none;collapsible=0;dropTarget=0;points=[[0,0.5],[1,0.5]];portConstraint=eastwest;strokeColor=inherit;top=0;left=0;right=0;bottom=1;" parent="N9J1Cjl4YSz3q8Sh-UzR-68" vertex="1">
          <mxGeometry y="30" width="310" height="30" as="geometry" />
        </mxCell>
        <mxCell id="N9J1Cjl4YSz3q8Sh-UzR-70" value="PK" style="shape=partialRectangle;overflow=hidden;connectable=0;fillColor=none;strokeColor=inherit;top=0;left=0;bottom=0;right=0;fontStyle=1;" parent="N9J1Cjl4YSz3q8Sh-UzR-69" vertex="1">
          <mxGeometry width="30" height="30" as="geometry">
            <mxRectangle width="30" height="30" as="alternateBounds" />
          </mxGeometry>
        </mxCell>
        <mxCell id="N9J1Cjl4YSz3q8Sh-UzR-71" value="id INT AUTO_INCREMENT " style="shape=partialRectangle;overflow=hidden;connectable=0;fillColor=none;align=left;strokeColor=inherit;top=0;left=0;bottom=0;right=0;spacingLeft=6;fontStyle=5;" parent="N9J1Cjl4YSz3q8Sh-UzR-69" vertex="1">
          <mxGeometry x="30" width="280" height="30" as="geometry">
            <mxRectangle width="280" height="30" as="alternateBounds" />
          </mxGeometry>
        </mxCell>
        <mxCell id="N9J1Cjl4YSz3q8Sh-UzR-72" value="" style="shape=tableRow;horizontal=0;startSize=0;swimlaneHead=0;swimlaneBody=0;fillColor=none;collapsible=0;dropTarget=0;points=[[0,0.5],[1,0.5]];portConstraint=eastwest;strokeColor=inherit;top=0;left=0;right=0;bottom=0;" parent="N9J1Cjl4YSz3q8Sh-UzR-68" vertex="1">
          <mxGeometry y="60" width="310" height="30" as="geometry" />
        </mxCell>
        <mxCell id="N9J1Cjl4YSz3q8Sh-UzR-73" value="" style="shape=partialRectangle;overflow=hidden;connectable=0;fillColor=none;strokeColor=inherit;top=0;left=0;bottom=0;right=0;" parent="N9J1Cjl4YSz3q8Sh-UzR-72" vertex="1">
          <mxGeometry width="30" height="30" as="geometry">
            <mxRectangle width="30" height="30" as="alternateBounds" />
          </mxGeometry>
        </mxCell>
        <mxCell id="N9J1Cjl4YSz3q8Sh-UzR-74" value="username VARCHAR(50) NOT NULL UNIQUE" style="shape=partialRectangle;overflow=hidden;connectable=0;fillColor=none;align=left;strokeColor=inherit;top=0;left=0;bottom=0;right=0;spacingLeft=6;" parent="N9J1Cjl4YSz3q8Sh-UzR-72" vertex="1">
          <mxGeometry x="30" width="280" height="30" as="geometry">
            <mxRectangle width="280" height="30" as="alternateBounds" />
          </mxGeometry>
        </mxCell>
        <mxCell id="N9J1Cjl4YSz3q8Sh-UzR-75" value="" style="shape=tableRow;horizontal=0;startSize=0;swimlaneHead=0;swimlaneBody=0;fillColor=none;collapsible=0;dropTarget=0;points=[[0,0.5],[1,0.5]];portConstraint=eastwest;strokeColor=inherit;top=0;left=0;right=0;bottom=0;" parent="N9J1Cjl4YSz3q8Sh-UzR-68" vertex="1">
          <mxGeometry y="90" width="310" height="30" as="geometry" />
        </mxCell>
        <mxCell id="N9J1Cjl4YSz3q8Sh-UzR-76" value="" style="shape=partialRectangle;overflow=hidden;connectable=0;fillColor=none;strokeColor=inherit;top=0;left=0;bottom=0;right=0;" parent="N9J1Cjl4YSz3q8Sh-UzR-75" vertex="1">
          <mxGeometry width="30" height="30" as="geometry">
            <mxRectangle width="30" height="30" as="alternateBounds" />
          </mxGeometry>
        </mxCell>
        <mxCell id="N9J1Cjl4YSz3q8Sh-UzR-77" value="password VARCHAR(255) NOT NULL" style="shape=partialRectangle;overflow=hidden;connectable=0;fillColor=none;align=left;strokeColor=inherit;top=0;left=0;bottom=0;right=0;spacingLeft=6;" parent="N9J1Cjl4YSz3q8Sh-UzR-75" vertex="1">
          <mxGeometry x="30" width="280" height="30" as="geometry">
            <mxRectangle width="280" height="30" as="alternateBounds" />
          </mxGeometry>
        </mxCell>
        <mxCell id="N9J1Cjl4YSz3q8Sh-UzR-78" value="" style="shape=tableRow;horizontal=0;startSize=0;swimlaneHead=0;swimlaneBody=0;fillColor=none;collapsible=0;dropTarget=0;points=[[0,0.5],[1,0.5]];portConstraint=eastwest;strokeColor=inherit;top=0;left=0;right=0;bottom=0;" parent="N9J1Cjl4YSz3q8Sh-UzR-68" vertex="1">
          <mxGeometry y="120" width="310" height="30" as="geometry" />
        </mxCell>
        <mxCell id="N9J1Cjl4YSz3q8Sh-UzR-79" value="" style="shape=partialRectangle;overflow=hidden;connectable=0;fillColor=none;strokeColor=inherit;top=0;left=0;bottom=0;right=0;" parent="N9J1Cjl4YSz3q8Sh-UzR-78" vertex="1">
          <mxGeometry width="30" height="30" as="geometry">
            <mxRectangle width="30" height="30" as="alternateBounds" />
          </mxGeometry>
        </mxCell>
        <mxCell id="N9J1Cjl4YSz3q8Sh-UzR-80" value="role ENUM(&#39;pemilik&#39;, &#39;karyawan&#39;) NOT NULL" style="shape=partialRectangle;overflow=hidden;connectable=0;fillColor=none;align=left;strokeColor=inherit;top=0;left=0;bottom=0;right=0;spacingLeft=6;" parent="N9J1Cjl4YSz3q8Sh-UzR-78" vertex="1">
          <mxGeometry x="30" width="280" height="30" as="geometry">
            <mxRectangle width="280" height="30" as="alternateBounds" />
          </mxGeometry>
        </mxCell>
        <mxCell id="N9J1Cjl4YSz3q8Sh-UzR-81" value="Transaction" style="shape=table;startSize=30;container=1;collapsible=1;childLayout=tableLayout;fixedRows=1;rowLines=0;fontStyle=1;align=center;resizeLast=1;" parent="1" vertex="1">
          <mxGeometry x="-1200" y="110" width="320" height="280" as="geometry" />
        </mxCell>
        <mxCell id="N9J1Cjl4YSz3q8Sh-UzR-82" value="" style="shape=tableRow;horizontal=0;startSize=0;swimlaneHead=0;swimlaneBody=0;fillColor=none;collapsible=0;dropTarget=0;points=[[0,0.5],[1,0.5]];portConstraint=eastwest;strokeColor=inherit;top=0;left=0;right=0;bottom=1;" parent="N9J1Cjl4YSz3q8Sh-UzR-81" vertex="1">
          <mxGeometry y="30" width="320" height="30" as="geometry" />
        </mxCell>
        <mxCell id="N9J1Cjl4YSz3q8Sh-UzR-83" value="PK" style="shape=partialRectangle;overflow=hidden;connectable=0;fillColor=none;strokeColor=inherit;top=0;left=0;bottom=0;right=0;fontStyle=1;" parent="N9J1Cjl4YSz3q8Sh-UzR-82" vertex="1">
          <mxGeometry width="30" height="30" as="geometry">
            <mxRectangle width="30" height="30" as="alternateBounds" />
          </mxGeometry>
        </mxCell>
        <mxCell id="N9J1Cjl4YSz3q8Sh-UzR-84" value="id INT AUTO_INCREMENT " style="shape=partialRectangle;overflow=hidden;connectable=0;fillColor=none;align=left;strokeColor=inherit;top=0;left=0;bottom=0;right=0;spacingLeft=6;fontStyle=5;" parent="N9J1Cjl4YSz3q8Sh-UzR-82" vertex="1">
          <mxGeometry x="30" width="290" height="30" as="geometry">
            <mxRectangle width="290" height="30" as="alternateBounds" />
          </mxGeometry>
        </mxCell>
        <mxCell id="N9J1Cjl4YSz3q8Sh-UzR-85" value="" style="shape=tableRow;horizontal=0;startSize=0;swimlaneHead=0;swimlaneBody=0;fillColor=none;collapsible=0;dropTarget=0;points=[[0,0.5],[1,0.5]];portConstraint=eastwest;strokeColor=inherit;top=0;left=0;right=0;bottom=0;" parent="N9J1Cjl4YSz3q8Sh-UzR-81" vertex="1">
          <mxGeometry y="60" width="320" height="40" as="geometry" />
        </mxCell>
        <mxCell id="N9J1Cjl4YSz3q8Sh-UzR-86" value="" style="shape=partialRectangle;overflow=hidden;connectable=0;fillColor=none;strokeColor=inherit;top=0;left=0;bottom=0;right=0;" parent="N9J1Cjl4YSz3q8Sh-UzR-85" vertex="1">
          <mxGeometry width="30" height="40" as="geometry">
            <mxRectangle width="30" height="40" as="alternateBounds" />
          </mxGeometry>
        </mxCell>
        <mxCell id="N9J1Cjl4YSz3q8Sh-UzR-87" value="date DATE NOT NULL" style="shape=partialRectangle;overflow=hidden;connectable=0;fillColor=none;align=left;strokeColor=inherit;top=0;left=0;bottom=0;right=0;spacingLeft=6;" parent="N9J1Cjl4YSz3q8Sh-UzR-85" vertex="1">
          <mxGeometry x="30" width="290" height="40" as="geometry">
            <mxRectangle width="290" height="40" as="alternateBounds" />
          </mxGeometry>
        </mxCell>
        <mxCell id="N9J1Cjl4YSz3q8Sh-UzR-88" value="" style="shape=tableRow;horizontal=0;startSize=0;swimlaneHead=0;swimlaneBody=0;fillColor=none;collapsible=0;dropTarget=0;points=[[0,0.5],[1,0.5]];portConstraint=eastwest;strokeColor=inherit;top=0;left=0;right=0;bottom=0;" parent="N9J1Cjl4YSz3q8Sh-UzR-81" vertex="1">
          <mxGeometry y="100" width="320" height="30" as="geometry" />
        </mxCell>
        <mxCell id="N9J1Cjl4YSz3q8Sh-UzR-89" value="" style="shape=partialRectangle;overflow=hidden;connectable=0;fillColor=none;strokeColor=inherit;top=0;left=0;bottom=0;right=0;" parent="N9J1Cjl4YSz3q8Sh-UzR-88" vertex="1">
          <mxGeometry width="30" height="30" as="geometry">
            <mxRectangle width="30" height="30" as="alternateBounds" />
          </mxGeometry>
        </mxCell>
        <mxCell id="N9J1Cjl4YSz3q8Sh-UzR-90" value="type ENUM(&#39;pemasukan&#39;, &#39;pengeluaran&#39;) NOT NULL" style="shape=partialRectangle;overflow=hidden;connectable=0;fillColor=none;align=left;strokeColor=inherit;top=0;left=0;bottom=0;right=0;spacingLeft=6;" parent="N9J1Cjl4YSz3q8Sh-UzR-88" vertex="1">
          <mxGeometry x="30" width="290" height="30" as="geometry">
            <mxRectangle width="290" height="30" as="alternateBounds" />
          </mxGeometry>
        </mxCell>
        <mxCell id="N9J1Cjl4YSz3q8Sh-UzR-91" value="" style="shape=tableRow;horizontal=0;startSize=0;swimlaneHead=0;swimlaneBody=0;fillColor=none;collapsible=0;dropTarget=0;points=[[0,0.5],[1,0.5]];portConstraint=eastwest;strokeColor=inherit;top=0;left=0;right=0;bottom=0;" parent="N9J1Cjl4YSz3q8Sh-UzR-81" vertex="1">
          <mxGeometry y="130" width="320" height="30" as="geometry" />
        </mxCell>
        <mxCell id="N9J1Cjl4YSz3q8Sh-UzR-92" value="" style="shape=partialRectangle;overflow=hidden;connectable=0;fillColor=none;strokeColor=inherit;top=0;left=0;bottom=0;right=0;" parent="N9J1Cjl4YSz3q8Sh-UzR-91" vertex="1">
          <mxGeometry width="30" height="30" as="geometry">
            <mxRectangle width="30" height="30" as="alternateBounds" />
          </mxGeometry>
        </mxCell>
        <mxCell id="N9J1Cjl4YSz3q8Sh-UzR-93" value="amount DECIMAL(10, 2) NOT NULL" style="shape=partialRectangle;overflow=hidden;connectable=0;fillColor=none;align=left;strokeColor=inherit;top=0;left=0;bottom=0;right=0;spacingLeft=6;" parent="N9J1Cjl4YSz3q8Sh-UzR-91" vertex="1">
          <mxGeometry x="30" width="290" height="30" as="geometry">
            <mxRectangle width="290" height="30" as="alternateBounds" />
          </mxGeometry>
        </mxCell>
        <mxCell id="N9J1Cjl4YSz3q8Sh-UzR-94" value="" style="shape=tableRow;horizontal=0;startSize=0;swimlaneHead=0;swimlaneBody=0;fillColor=none;collapsible=0;dropTarget=0;points=[[0,0.5],[1,0.5]];portConstraint=eastwest;strokeColor=inherit;top=0;left=0;right=0;bottom=0;" parent="N9J1Cjl4YSz3q8Sh-UzR-81" vertex="1">
          <mxGeometry y="160" width="320" height="30" as="geometry" />
        </mxCell>
        <mxCell id="N9J1Cjl4YSz3q8Sh-UzR-95" value="" style="shape=partialRectangle;overflow=hidden;connectable=0;fillColor=none;strokeColor=inherit;top=0;left=0;bottom=0;right=0;" parent="N9J1Cjl4YSz3q8Sh-UzR-94" vertex="1">
          <mxGeometry width="30" height="30" as="geometry">
            <mxRectangle width="30" height="30" as="alternateBounds" />
          </mxGeometry>
        </mxCell>
        <mxCell id="N9J1Cjl4YSz3q8Sh-UzR-96" value="category VARCHAR(50) NOT NULL" style="shape=partialRectangle;overflow=hidden;connectable=0;fillColor=none;align=left;strokeColor=inherit;top=0;left=0;bottom=0;right=0;spacingLeft=6;" parent="N9J1Cjl4YSz3q8Sh-UzR-94" vertex="1">
          <mxGeometry x="30" width="290" height="30" as="geometry">
            <mxRectangle width="290" height="30" as="alternateBounds" />
          </mxGeometry>
        </mxCell>
        <mxCell id="N9J1Cjl4YSz3q8Sh-UzR-97" value="" style="shape=tableRow;horizontal=0;startSize=0;swimlaneHead=0;swimlaneBody=0;fillColor=none;collapsible=0;dropTarget=0;points=[[0,0.5],[1,0.5]];portConstraint=eastwest;strokeColor=inherit;top=0;left=0;right=0;bottom=0;" parent="N9J1Cjl4YSz3q8Sh-UzR-81" vertex="1">
          <mxGeometry y="190" width="320" height="30" as="geometry" />
        </mxCell>
        <mxCell id="N9J1Cjl4YSz3q8Sh-UzR-98" value="" style="shape=partialRectangle;overflow=hidden;connectable=0;fillColor=none;strokeColor=inherit;top=0;left=0;bottom=0;right=0;" parent="N9J1Cjl4YSz3q8Sh-UzR-97" vertex="1">
          <mxGeometry width="30" height="30" as="geometry">
            <mxRectangle width="30" height="30" as="alternateBounds" />
          </mxGeometry>
        </mxCell>
        <mxCell id="N9J1Cjl4YSz3q8Sh-UzR-99" value="description TEXT" style="shape=partialRectangle;overflow=hidden;connectable=0;fillColor=none;align=left;strokeColor=inherit;top=0;left=0;bottom=0;right=0;spacingLeft=6;" parent="N9J1Cjl4YSz3q8Sh-UzR-97" vertex="1">
          <mxGeometry x="30" width="290" height="30" as="geometry">
            <mxRectangle width="290" height="30" as="alternateBounds" />
          </mxGeometry>
        </mxCell>
        <mxCell id="N9J1Cjl4YSz3q8Sh-UzR-100" value="" style="shape=tableRow;horizontal=0;startSize=0;swimlaneHead=0;swimlaneBody=0;fillColor=none;collapsible=0;dropTarget=0;points=[[0,0.5],[1,0.5]];portConstraint=eastwest;strokeColor=inherit;top=0;left=0;right=0;bottom=0;" parent="N9J1Cjl4YSz3q8Sh-UzR-81" vertex="1">
          <mxGeometry y="220" width="320" height="30" as="geometry" />
        </mxCell>
        <mxCell id="N9J1Cjl4YSz3q8Sh-UzR-101" value="" style="shape=partialRectangle;overflow=hidden;connectable=0;fillColor=none;strokeColor=inherit;top=0;left=0;bottom=0;right=0;" parent="N9J1Cjl4YSz3q8Sh-UzR-100" vertex="1">
          <mxGeometry width="30" height="30" as="geometry">
            <mxRectangle width="30" height="30" as="alternateBounds" />
          </mxGeometry>
        </mxCell>
        <mxCell id="N9J1Cjl4YSz3q8Sh-UzR-102" value="userId INT" style="shape=partialRectangle;overflow=hidden;connectable=0;fillColor=none;align=left;strokeColor=inherit;top=0;left=0;bottom=0;right=0;spacingLeft=6;" parent="N9J1Cjl4YSz3q8Sh-UzR-100" vertex="1">
          <mxGeometry x="30" width="290" height="30" as="geometry">
            <mxRectangle width="290" height="30" as="alternateBounds" />
          </mxGeometry>
        </mxCell>
        <mxCell id="N9J1Cjl4YSz3q8Sh-UzR-103" value="" style="shape=tableRow;horizontal=0;startSize=0;swimlaneHead=0;swimlaneBody=0;fillColor=none;collapsible=0;dropTarget=0;points=[[0,0.5],[1,0.5]];portConstraint=eastwest;strokeColor=inherit;top=0;left=0;right=0;bottom=0;" parent="N9J1Cjl4YSz3q8Sh-UzR-81" vertex="1">
          <mxGeometry y="250" width="320" height="30" as="geometry" />
        </mxCell>
        <mxCell id="N9J1Cjl4YSz3q8Sh-UzR-104" value="" style="shape=partialRectangle;overflow=hidden;connectable=0;fillColor=none;strokeColor=inherit;top=0;left=0;bottom=0;right=0;" parent="N9J1Cjl4YSz3q8Sh-UzR-103" vertex="1">
          <mxGeometry width="30" height="30" as="geometry">
            <mxRectangle width="30" height="30" as="alternateBounds" />
          </mxGeometry>
        </mxCell>
        <mxCell id="N9J1Cjl4YSz3q8Sh-UzR-105" value="FOREIGN KEY (userId) REFERENCES User(id) ON DELETE CASCADE" style="shape=partialRectangle;overflow=hidden;connectable=0;fillColor=none;align=left;strokeColor=inherit;top=0;left=0;bottom=0;right=0;spacingLeft=6;" parent="N9J1Cjl4YSz3q8Sh-UzR-103" vertex="1">
          <mxGeometry x="30" width="290" height="30" as="geometry">
            <mxRectangle width="290" height="30" as="alternateBounds" />
          </mxGeometry>
        </mxCell>
        <mxCell id="N9J1Cjl4YSz3q8Sh-UzR-106" value="Category" style="shape=table;startSize=30;container=1;collapsible=1;childLayout=tableLayout;fixedRows=1;rowLines=0;fontStyle=1;align=center;resizeLast=1;" parent="1" vertex="1">
          <mxGeometry x="-1190" y="450" width="320" height="150" as="geometry" />
        </mxCell>
        <mxCell id="N9J1Cjl4YSz3q8Sh-UzR-107" value="" style="shape=tableRow;horizontal=0;startSize=0;swimlaneHead=0;swimlaneBody=0;fillColor=none;collapsible=0;dropTarget=0;points=[[0,0.5],[1,0.5]];portConstraint=eastwest;strokeColor=inherit;top=0;left=0;right=0;bottom=1;" parent="N9J1Cjl4YSz3q8Sh-UzR-106" vertex="1">
          <mxGeometry y="30" width="320" height="30" as="geometry" />
        </mxCell>
        <mxCell id="N9J1Cjl4YSz3q8Sh-UzR-108" value="PK" style="shape=partialRectangle;overflow=hidden;connectable=0;fillColor=none;strokeColor=inherit;top=0;left=0;bottom=0;right=0;fontStyle=1;" parent="N9J1Cjl4YSz3q8Sh-UzR-107" vertex="1">
          <mxGeometry width="30" height="30" as="geometry">
            <mxRectangle width="30" height="30" as="alternateBounds" />
          </mxGeometry>
        </mxCell>
        <mxCell id="N9J1Cjl4YSz3q8Sh-UzR-109" value="id INT AUTO_INCREMENT " style="shape=partialRectangle;overflow=hidden;connectable=0;fillColor=none;align=left;strokeColor=inherit;top=0;left=0;bottom=0;right=0;spacingLeft=6;fontStyle=5;" parent="N9J1Cjl4YSz3q8Sh-UzR-107" vertex="1">
          <mxGeometry x="30" width="290" height="30" as="geometry">
            <mxRectangle width="290" height="30" as="alternateBounds" />
          </mxGeometry>
        </mxCell>
        <mxCell id="N9J1Cjl4YSz3q8Sh-UzR-110" value="" style="shape=tableRow;horizontal=0;startSize=0;swimlaneHead=0;swimlaneBody=0;fillColor=none;collapsible=0;dropTarget=0;points=[[0,0.5],[1,0.5]];portConstraint=eastwest;strokeColor=inherit;top=0;left=0;right=0;bottom=0;" parent="N9J1Cjl4YSz3q8Sh-UzR-106" vertex="1">
          <mxGeometry y="60" width="320" height="30" as="geometry" />
        </mxCell>
        <mxCell id="N9J1Cjl4YSz3q8Sh-UzR-111" value="" style="shape=partialRectangle;overflow=hidden;connectable=0;fillColor=none;strokeColor=inherit;top=0;left=0;bottom=0;right=0;" parent="N9J1Cjl4YSz3q8Sh-UzR-110" vertex="1">
          <mxGeometry width="30" height="30" as="geometry">
            <mxRectangle width="30" height="30" as="alternateBounds" />
          </mxGeometry>
        </mxCell>
        <mxCell id="N9J1Cjl4YSz3q8Sh-UzR-112" value="name VARCHAR(50) NOT NULL" style="shape=partialRectangle;overflow=hidden;connectable=0;fillColor=none;align=left;strokeColor=inherit;top=0;left=0;bottom=0;right=0;spacingLeft=6;" parent="N9J1Cjl4YSz3q8Sh-UzR-110" vertex="1">
          <mxGeometry x="30" width="290" height="30" as="geometry">
            <mxRectangle width="290" height="30" as="alternateBounds" />
          </mxGeometry>
        </mxCell>
        <mxCell id="N9J1Cjl4YSz3q8Sh-UzR-113" value="" style="shape=tableRow;horizontal=0;startSize=0;swimlaneHead=0;swimlaneBody=0;fillColor=none;collapsible=0;dropTarget=0;points=[[0,0.5],[1,0.5]];portConstraint=eastwest;strokeColor=inherit;top=0;left=0;right=0;bottom=0;" parent="N9J1Cjl4YSz3q8Sh-UzR-106" vertex="1">
          <mxGeometry y="90" width="320" height="30" as="geometry" />
        </mxCell>
        <mxCell id="N9J1Cjl4YSz3q8Sh-UzR-114" value="" style="shape=partialRectangle;overflow=hidden;connectable=0;fillColor=none;strokeColor=inherit;top=0;left=0;bottom=0;right=0;" parent="N9J1Cjl4YSz3q8Sh-UzR-113" vertex="1">
          <mxGeometry width="30" height="30" as="geometry">
            <mxRectangle width="30" height="30" as="alternateBounds" />
          </mxGeometry>
        </mxCell>
        <mxCell id="N9J1Cjl4YSz3q8Sh-UzR-115" value="userId INT" style="shape=partialRectangle;overflow=hidden;connectable=0;fillColor=none;align=left;strokeColor=inherit;top=0;left=0;bottom=0;right=0;spacingLeft=6;" parent="N9J1Cjl4YSz3q8Sh-UzR-113" vertex="1">
          <mxGeometry x="30" width="290" height="30" as="geometry">
            <mxRectangle width="290" height="30" as="alternateBounds" />
          </mxGeometry>
        </mxCell>
        <mxCell id="N9J1Cjl4YSz3q8Sh-UzR-116" value="" style="shape=tableRow;horizontal=0;startSize=0;swimlaneHead=0;swimlaneBody=0;fillColor=none;collapsible=0;dropTarget=0;points=[[0,0.5],[1,0.5]];portConstraint=eastwest;strokeColor=inherit;top=0;left=0;right=0;bottom=0;" parent="N9J1Cjl4YSz3q8Sh-UzR-106" vertex="1">
          <mxGeometry y="120" width="320" height="30" as="geometry" />
        </mxCell>
        <mxCell id="N9J1Cjl4YSz3q8Sh-UzR-117" value="" style="shape=partialRectangle;overflow=hidden;connectable=0;fillColor=none;strokeColor=inherit;top=0;left=0;bottom=0;right=0;" parent="N9J1Cjl4YSz3q8Sh-UzR-116" vertex="1">
          <mxGeometry width="30" height="30" as="geometry">
            <mxRectangle width="30" height="30" as="alternateBounds" />
          </mxGeometry>
        </mxCell>
        <mxCell id="N9J1Cjl4YSz3q8Sh-UzR-118" value="FOREIGN KEY (userId) REFERENCES User(id) ON DELETE CASCADE" style="shape=partialRectangle;overflow=hidden;connectable=0;fillColor=none;align=left;strokeColor=inherit;top=0;left=0;bottom=0;right=0;spacingLeft=6;" parent="N9J1Cjl4YSz3q8Sh-UzR-116" vertex="1">
          <mxGeometry x="30" width="290" height="30" as="geometry">
            <mxRectangle width="290" height="30" as="alternateBounds" />
          </mxGeometry>
        </mxCell>
        <mxCell id="N9J1Cjl4YSz3q8Sh-UzR-136" style="edgeStyle=orthogonalEdgeStyle;rounded=0;orthogonalLoop=1;jettySize=auto;html=1;exitX=0.5;exitY=0;exitDx=0;exitDy=0;entryX=0;entryY=0.5;entryDx=0;entryDy=0;" parent="1" source="N9J1Cjl4YSz3q8Sh-UzR-119" target="N9J1Cjl4YSz3q8Sh-UzR-69" edge="1">
          <mxGeometry relative="1" as="geometry" />
        </mxCell>
        <mxCell id="N9J1Cjl4YSz3q8Sh-UzR-119" value="Report" style="shape=table;startSize=30;container=1;collapsible=1;childLayout=tableLayout;fixedRows=1;rowLines=0;fontStyle=1;align=center;resizeLast=1;" parent="1" vertex="1">
          <mxGeometry x="-1660" y="420" width="320" height="180" as="geometry" />
        </mxCell>
        <mxCell id="N9J1Cjl4YSz3q8Sh-UzR-120" value="" style="shape=tableRow;horizontal=0;startSize=0;swimlaneHead=0;swimlaneBody=0;fillColor=none;collapsible=0;dropTarget=0;points=[[0,0.5],[1,0.5]];portConstraint=eastwest;strokeColor=inherit;top=0;left=0;right=0;bottom=1;" parent="N9J1Cjl4YSz3q8Sh-UzR-119" vertex="1">
          <mxGeometry y="30" width="320" height="30" as="geometry" />
        </mxCell>
        <mxCell id="N9J1Cjl4YSz3q8Sh-UzR-121" value="PK" style="shape=partialRectangle;overflow=hidden;connectable=0;fillColor=none;strokeColor=inherit;top=0;left=0;bottom=0;right=0;fontStyle=1;" parent="N9J1Cjl4YSz3q8Sh-UzR-120" vertex="1">
          <mxGeometry width="30" height="30" as="geometry">
            <mxRectangle width="30" height="30" as="alternateBounds" />
          </mxGeometry>
        </mxCell>
        <mxCell id="N9J1Cjl4YSz3q8Sh-UzR-122" value="id INT AUTO_INCREMENT " style="shape=partialRectangle;overflow=hidden;connectable=0;fillColor=none;align=left;strokeColor=inherit;top=0;left=0;bottom=0;right=0;spacingLeft=6;fontStyle=5;" parent="N9J1Cjl4YSz3q8Sh-UzR-120" vertex="1">
          <mxGeometry x="30" width="290" height="30" as="geometry">
            <mxRectangle width="290" height="30" as="alternateBounds" />
          </mxGeometry>
        </mxCell>
        <mxCell id="N9J1Cjl4YSz3q8Sh-UzR-123" value="" style="shape=tableRow;horizontal=0;startSize=0;swimlaneHead=0;swimlaneBody=0;fillColor=none;collapsible=0;dropTarget=0;points=[[0,0.5],[1,0.5]];portConstraint=eastwest;strokeColor=inherit;top=0;left=0;right=0;bottom=0;" parent="N9J1Cjl4YSz3q8Sh-UzR-119" vertex="1">
          <mxGeometry y="60" width="320" height="30" as="geometry" />
        </mxCell>
        <mxCell id="N9J1Cjl4YSz3q8Sh-UzR-124" value="" style="shape=partialRectangle;overflow=hidden;connectable=0;fillColor=none;strokeColor=inherit;top=0;left=0;bottom=0;right=0;" parent="N9J1Cjl4YSz3q8Sh-UzR-123" vertex="1">
          <mxGeometry width="30" height="30" as="geometry">
            <mxRectangle width="30" height="30" as="alternateBounds" />
          </mxGeometry>
        </mxCell>
        <mxCell id="N9J1Cjl4YSz3q8Sh-UzR-125" value="startDate DATE NOT NULL" style="shape=partialRectangle;overflow=hidden;connectable=0;fillColor=none;align=left;strokeColor=inherit;top=0;left=0;bottom=0;right=0;spacingLeft=6;" parent="N9J1Cjl4YSz3q8Sh-UzR-123" vertex="1">
          <mxGeometry x="30" width="290" height="30" as="geometry">
            <mxRectangle width="290" height="30" as="alternateBounds" />
          </mxGeometry>
        </mxCell>
        <mxCell id="N9J1Cjl4YSz3q8Sh-UzR-126" value="" style="shape=tableRow;horizontal=0;startSize=0;swimlaneHead=0;swimlaneBody=0;fillColor=none;collapsible=0;dropTarget=0;points=[[0,0.5],[1,0.5]];portConstraint=eastwest;strokeColor=inherit;top=0;left=0;right=0;bottom=0;" parent="N9J1Cjl4YSz3q8Sh-UzR-119" vertex="1">
          <mxGeometry y="90" width="320" height="30" as="geometry" />
        </mxCell>
        <mxCell id="N9J1Cjl4YSz3q8Sh-UzR-127" value="" style="shape=partialRectangle;overflow=hidden;connectable=0;fillColor=none;strokeColor=inherit;top=0;left=0;bottom=0;right=0;" parent="N9J1Cjl4YSz3q8Sh-UzR-126" vertex="1">
          <mxGeometry width="30" height="30" as="geometry">
            <mxRectangle width="30" height="30" as="alternateBounds" />
          </mxGeometry>
        </mxCell>
        <mxCell id="N9J1Cjl4YSz3q8Sh-UzR-128" value="endDate DATE NOT NULL" style="shape=partialRectangle;overflow=hidden;connectable=0;fillColor=none;align=left;strokeColor=inherit;top=0;left=0;bottom=0;right=0;spacingLeft=6;" parent="N9J1Cjl4YSz3q8Sh-UzR-126" vertex="1">
          <mxGeometry x="30" width="290" height="30" as="geometry">
            <mxRectangle width="290" height="30" as="alternateBounds" />
          </mxGeometry>
        </mxCell>
        <mxCell id="N9J1Cjl4YSz3q8Sh-UzR-129" value="" style="shape=tableRow;horizontal=0;startSize=0;swimlaneHead=0;swimlaneBody=0;fillColor=none;collapsible=0;dropTarget=0;points=[[0,0.5],[1,0.5]];portConstraint=eastwest;strokeColor=inherit;top=0;left=0;right=0;bottom=0;" parent="N9J1Cjl4YSz3q8Sh-UzR-119" vertex="1">
          <mxGeometry y="120" width="320" height="30" as="geometry" />
        </mxCell>
        <mxCell id="N9J1Cjl4YSz3q8Sh-UzR-130" value="" style="shape=partialRectangle;overflow=hidden;connectable=0;fillColor=none;strokeColor=inherit;top=0;left=0;bottom=0;right=0;" parent="N9J1Cjl4YSz3q8Sh-UzR-129" vertex="1">
          <mxGeometry width="30" height="30" as="geometry">
            <mxRectangle width="30" height="30" as="alternateBounds" />
          </mxGeometry>
        </mxCell>
        <mxCell id="N9J1Cjl4YSz3q8Sh-UzR-131" value="userId INT" style="shape=partialRectangle;overflow=hidden;connectable=0;fillColor=none;align=left;strokeColor=inherit;top=0;left=0;bottom=0;right=0;spacingLeft=6;" parent="N9J1Cjl4YSz3q8Sh-UzR-129" vertex="1">
          <mxGeometry x="30" width="290" height="30" as="geometry">
            <mxRectangle width="290" height="30" as="alternateBounds" />
          </mxGeometry>
        </mxCell>
        <mxCell id="N9J1Cjl4YSz3q8Sh-UzR-132" value="" style="shape=tableRow;horizontal=0;startSize=0;swimlaneHead=0;swimlaneBody=0;fillColor=none;collapsible=0;dropTarget=0;points=[[0,0.5],[1,0.5]];portConstraint=eastwest;strokeColor=inherit;top=0;left=0;right=0;bottom=0;" parent="N9J1Cjl4YSz3q8Sh-UzR-119" vertex="1">
          <mxGeometry y="150" width="320" height="30" as="geometry" />
        </mxCell>
        <mxCell id="N9J1Cjl4YSz3q8Sh-UzR-133" value="" style="shape=partialRectangle;overflow=hidden;connectable=0;fillColor=none;strokeColor=inherit;top=0;left=0;bottom=0;right=0;" parent="N9J1Cjl4YSz3q8Sh-UzR-132" vertex="1">
          <mxGeometry width="30" height="30" as="geometry">
            <mxRectangle width="30" height="30" as="alternateBounds" />
          </mxGeometry>
        </mxCell>
        <mxCell id="N9J1Cjl4YSz3q8Sh-UzR-134" value="FOREIGN KEY (userId) REFERENCES User(id) ON DELETE CASCADE" style="shape=partialRectangle;overflow=hidden;connectable=0;fillColor=none;align=left;strokeColor=inherit;top=0;left=0;bottom=0;right=0;spacingLeft=6;" parent="N9J1Cjl4YSz3q8Sh-UzR-132" vertex="1">
          <mxGeometry x="30" width="290" height="30" as="geometry">
            <mxRectangle width="290" height="30" as="alternateBounds" />
          </mxGeometry>
        </mxCell>
        <mxCell id="N9J1Cjl4YSz3q8Sh-UzR-135" style="edgeStyle=orthogonalEdgeStyle;rounded=0;orthogonalLoop=1;jettySize=auto;html=1;exitX=0;exitY=0.5;exitDx=0;exitDy=0;entryX=1;entryY=0.5;entryDx=0;entryDy=0;" parent="1" source="N9J1Cjl4YSz3q8Sh-UzR-91" target="N9J1Cjl4YSz3q8Sh-UzR-75" edge="1">
          <mxGeometry relative="1" as="geometry" />
        </mxCell>
        <mxCell id="N9J1Cjl4YSz3q8Sh-UzR-137" style="edgeStyle=orthogonalEdgeStyle;rounded=0;orthogonalLoop=1;jettySize=auto;html=1;exitX=0;exitY=0.5;exitDx=0;exitDy=0;entryX=1;entryY=0.5;entryDx=0;entryDy=0;" parent="1" source="N9J1Cjl4YSz3q8Sh-UzR-113" target="N9J1Cjl4YSz3q8Sh-UzR-69" edge="1">
          <mxGeometry relative="1" as="geometry" />
        </mxCell>
      </root>
    </mxGraphModel>
  </diagram>
  <diagram id="urvVhzlDIEQbhtKA-iqZ" name="use case final">
    <mxGraphModel dx="1426" dy="841" grid="1" gridSize="10" guides="1" tooltips="1" connect="1" arrows="1" fold="1" page="1" pageScale="1" pageWidth="850" pageHeight="1100" math="0" shadow="0">
      <root>
        <mxCell id="0" />
        <mxCell id="1" parent="0" />
        <mxCell id="oINaCcXt8GuOCotXCiEz-39" style="rounded=0;orthogonalLoop=1;jettySize=auto;html=1;exitX=0.5;exitY=0.5;exitDx=0;exitDy=0;exitPerimeter=0;entryX=1;entryY=0.5;entryDx=0;entryDy=0;endArrow=none;startFill=0;" parent="1" source="oINaCcXt8GuOCotXCiEz-1" target="oINaCcXt8GuOCotXCiEz-14" edge="1">
          <mxGeometry relative="1" as="geometry" />
        </mxCell>
        <mxCell id="oINaCcXt8GuOCotXCiEz-40" style="rounded=0;orthogonalLoop=1;jettySize=auto;html=1;exitX=0.5;exitY=0.5;exitDx=0;exitDy=0;exitPerimeter=0;entryX=1;entryY=0.5;entryDx=0;entryDy=0;endArrow=none;startFill=0;" parent="1" source="oINaCcXt8GuOCotXCiEz-1" target="oINaCcXt8GuOCotXCiEz-15" edge="1">
          <mxGeometry relative="1" as="geometry" />
        </mxCell>
        <mxCell id="oINaCcXt8GuOCotXCiEz-41" style="rounded=0;orthogonalLoop=1;jettySize=auto;html=1;exitX=0.5;exitY=0.5;exitDx=0;exitDy=0;exitPerimeter=0;entryX=1;entryY=0.5;entryDx=0;entryDy=0;endArrow=none;startFill=0;" parent="1" source="oINaCcXt8GuOCotXCiEz-1" target="oINaCcXt8GuOCotXCiEz-16" edge="1">
          <mxGeometry relative="1" as="geometry" />
        </mxCell>
        <mxCell id="oINaCcXt8GuOCotXCiEz-42" style="rounded=0;orthogonalLoop=1;jettySize=auto;html=1;exitX=0.5;exitY=0.5;exitDx=0;exitDy=0;exitPerimeter=0;entryX=1;entryY=0.5;entryDx=0;entryDy=0;endArrow=none;startFill=0;" parent="1" source="oINaCcXt8GuOCotXCiEz-1" target="oINaCcXt8GuOCotXCiEz-18" edge="1">
          <mxGeometry relative="1" as="geometry" />
        </mxCell>
        <mxCell id="oINaCcXt8GuOCotXCiEz-1" value="Pemilik&lt;div&gt;(admin)&lt;/div&gt;" style="shape=umlActor;verticalLabelPosition=bottom;verticalAlign=top;html=1;outlineConnect=0;" parent="1" vertex="1">
          <mxGeometry x="1020" y="330" width="30" height="60" as="geometry" />
        </mxCell>
        <mxCell id="oINaCcXt8GuOCotXCiEz-4" value="Login" style="ellipse;whiteSpace=wrap;html=1;" parent="1" vertex="1">
          <mxGeometry x="480" y="350" width="70" height="40" as="geometry" />
        </mxCell>
        <mxCell id="oINaCcXt8GuOCotXCiEz-5" value="Logout" style="ellipse;whiteSpace=wrap;html=1;" parent="1" vertex="1">
          <mxGeometry x="480" y="260" width="70" height="40" as="geometry" />
        </mxCell>
        <mxCell id="oINaCcXt8GuOCotXCiEz-6" value="CRUD Pemasukan" style="ellipse;whiteSpace=wrap;html=1;" parent="1" vertex="1">
          <mxGeometry x="200" y="190" width="130" height="40" as="geometry" />
        </mxCell>
        <mxCell id="oINaCcXt8GuOCotXCiEz-7" value="CRUD Mencatat Pengeluaran" style="ellipse;whiteSpace=wrap;html=1;" parent="1" vertex="1">
          <mxGeometry x="200" y="310" width="130" height="40" as="geometry" />
        </mxCell>
        <mxCell id="oINaCcXt8GuOCotXCiEz-8" value="Melihat Pesanan" style="ellipse;whiteSpace=wrap;html=1;" parent="1" vertex="1">
          <mxGeometry x="200" y="420" width="130" height="40" as="geometry" />
        </mxCell>
        <mxCell id="oINaCcXt8GuOCotXCiEz-9" value="CRUD Mencatat Pesanan" style="ellipse;whiteSpace=wrap;html=1;" parent="1" vertex="1">
          <mxGeometry x="200" y="530" width="130" height="40" as="geometry" />
        </mxCell>
        <mxCell id="oINaCcXt8GuOCotXCiEz-32" style="rounded=0;orthogonalLoop=1;jettySize=auto;html=1;exitX=0.5;exitY=0.5;exitDx=0;exitDy=0;exitPerimeter=0;entryX=0;entryY=0.5;entryDx=0;entryDy=0;endArrow=none;startFill=0;" parent="1" source="oINaCcXt8GuOCotXCiEz-10" target="oINaCcXt8GuOCotXCiEz-6" edge="1">
          <mxGeometry relative="1" as="geometry" />
        </mxCell>
        <mxCell id="oINaCcXt8GuOCotXCiEz-33" style="rounded=0;orthogonalLoop=1;jettySize=auto;html=1;exitX=0.5;exitY=0.5;exitDx=0;exitDy=0;exitPerimeter=0;entryX=0;entryY=0.5;entryDx=0;entryDy=0;endArrow=none;startFill=0;" parent="1" source="oINaCcXt8GuOCotXCiEz-10" target="oINaCcXt8GuOCotXCiEz-7" edge="1">
          <mxGeometry relative="1" as="geometry" />
        </mxCell>
        <mxCell id="oINaCcXt8GuOCotXCiEz-34" style="rounded=0;orthogonalLoop=1;jettySize=auto;html=1;exitX=0.5;exitY=0.5;exitDx=0;exitDy=0;exitPerimeter=0;entryX=0;entryY=0.5;entryDx=0;entryDy=0;endArrow=none;startFill=0;" parent="1" source="oINaCcXt8GuOCotXCiEz-10" target="oINaCcXt8GuOCotXCiEz-8" edge="1">
          <mxGeometry relative="1" as="geometry" />
        </mxCell>
        <mxCell id="oINaCcXt8GuOCotXCiEz-35" style="rounded=0;orthogonalLoop=1;jettySize=auto;html=1;exitX=0.5;exitY=0.5;exitDx=0;exitDy=0;exitPerimeter=0;entryX=0;entryY=0.5;entryDx=0;entryDy=0;endArrow=none;startFill=0;" parent="1" source="oINaCcXt8GuOCotXCiEz-10" target="oINaCcXt8GuOCotXCiEz-9" edge="1">
          <mxGeometry relative="1" as="geometry" />
        </mxCell>
        <mxCell id="oINaCcXt8GuOCotXCiEz-10" value="Karyawan&lt;div&gt;(user)&lt;/div&gt;" style="shape=umlActor;verticalLabelPosition=bottom;verticalAlign=top;html=1;outlineConnect=0;" parent="1" vertex="1">
          <mxGeometry x="90" y="330" width="30" height="60" as="geometry" />
        </mxCell>
        <mxCell id="oINaCcXt8GuOCotXCiEz-14" value="Melihat Laporan Keuangan" style="ellipse;whiteSpace=wrap;html=1;" parent="1" vertex="1">
          <mxGeometry x="810" y="290" width="130" height="40" as="geometry" />
        </mxCell>
        <mxCell id="oINaCcXt8GuOCotXCiEz-25" style="rounded=0;orthogonalLoop=1;jettySize=auto;html=1;exitX=0;exitY=0.5;exitDx=0;exitDy=0;entryX=1;entryY=0.5;entryDx=0;entryDy=0;endArrow=none;startFill=0;" parent="1" source="oINaCcXt8GuOCotXCiEz-15" target="oINaCcXt8GuOCotXCiEz-22" edge="1">
          <mxGeometry relative="1" as="geometry" />
        </mxCell>
        <mxCell id="oINaCcXt8GuOCotXCiEz-27" style="rounded=0;orthogonalLoop=1;jettySize=auto;html=1;exitX=0;exitY=0.5;exitDx=0;exitDy=0;entryX=1;entryY=0.5;entryDx=0;entryDy=0;endArrow=none;startFill=0;" parent="1" source="oINaCcXt8GuOCotXCiEz-15" target="oINaCcXt8GuOCotXCiEz-23" edge="1">
          <mxGeometry relative="1" as="geometry" />
        </mxCell>
        <mxCell id="oINaCcXt8GuOCotXCiEz-28" style="rounded=0;orthogonalLoop=1;jettySize=auto;html=1;exitX=0;exitY=0.5;exitDx=0;exitDy=0;entryX=1;entryY=0.5;entryDx=0;entryDy=0;endArrow=none;startFill=0;" parent="1" source="oINaCcXt8GuOCotXCiEz-15" target="oINaCcXt8GuOCotXCiEz-24" edge="1">
          <mxGeometry relative="1" as="geometry" />
        </mxCell>
        <mxCell id="oINaCcXt8GuOCotXCiEz-15" value="CRUD Kategori Transaksi" style="ellipse;whiteSpace=wrap;html=1;" parent="1" vertex="1">
          <mxGeometry x="810" y="400" width="130" height="40" as="geometry" />
        </mxCell>
        <mxCell id="oINaCcXt8GuOCotXCiEz-16" value="Melihat Riwayat Distribusi" style="ellipse;whiteSpace=wrap;html=1;" parent="1" vertex="1">
          <mxGeometry x="810" y="520" width="130" height="40" as="geometry" />
        </mxCell>
        <mxCell id="oINaCcXt8GuOCotXCiEz-43" style="rounded=0;orthogonalLoop=1;jettySize=auto;html=1;exitX=1;exitY=0.5;exitDx=0;exitDy=0;entryX=0;entryY=0.5;entryDx=0;entryDy=0;endArrow=none;startFill=0;" parent="1" source="oINaCcXt8GuOCotXCiEz-17" target="oINaCcXt8GuOCotXCiEz-16" edge="1">
          <mxGeometry relative="1" as="geometry" />
        </mxCell>
        <mxCell id="oINaCcXt8GuOCotXCiEz-18" value="Melihat Data User" style="ellipse;whiteSpace=wrap;html=1;" parent="1" vertex="1">
          <mxGeometry x="810" y="590" width="130" height="40" as="geometry" />
        </mxCell>
        <mxCell id="oINaCcXt8GuOCotXCiEz-36" style="rounded=0;orthogonalLoop=1;jettySize=auto;html=1;exitX=0.5;exitY=0.5;exitDx=0;exitDy=0;exitPerimeter=0;entryX=0.5;entryY=1;entryDx=0;entryDy=0;endArrow=none;startFill=0;" parent="1" source="oINaCcXt8GuOCotXCiEz-19" target="oINaCcXt8GuOCotXCiEz-20" edge="1">
          <mxGeometry relative="1" as="geometry" />
        </mxCell>
        <mxCell id="oINaCcXt8GuOCotXCiEz-37" style="rounded=0;orthogonalLoop=1;jettySize=auto;html=1;exitX=0.5;exitY=0.5;exitDx=0;exitDy=0;exitPerimeter=0;entryX=0.5;entryY=1;entryDx=0;entryDy=0;endArrow=none;startFill=0;" parent="1" source="oINaCcXt8GuOCotXCiEz-19" edge="1">
          <mxGeometry relative="1" as="geometry">
            <mxPoint x="604.9999999999998" y="670" as="targetPoint" />
          </mxGeometry>
        </mxCell>
        <mxCell id="oINaCcXt8GuOCotXCiEz-19" value="Agen&lt;div&gt;(user)&lt;/div&gt;" style="shape=umlActor;verticalLabelPosition=bottom;verticalAlign=top;html=1;outlineConnect=0;" parent="1" vertex="1">
          <mxGeometry x="510" y="730" width="30" height="60" as="geometry" />
        </mxCell>
        <mxCell id="oINaCcXt8GuOCotXCiEz-44" value="&amp;lt;&amp;lt;extend&amp;gt;&amp;gt;" style="html=1;verticalAlign=bottom;labelBackgroundColor=none;endArrow=open;endFill=0;dashed=1;rounded=0;exitX=1;exitY=0.5;exitDx=0;exitDy=0;entryX=0;entryY=0.5;entryDx=0;entryDy=0;" parent="1" source="oINaCcXt8GuOCotXCiEz-6" target="oINaCcXt8GuOCotXCiEz-4" edge="1">
          <mxGeometry width="160" relative="1" as="geometry">
            <mxPoint x="500" y="450" as="sourcePoint" />
            <mxPoint x="660" y="450" as="targetPoint" />
          </mxGeometry>
        </mxCell>
        <mxCell id="oINaCcXt8GuOCotXCiEz-45" value="&amp;lt;&amp;lt;extend&amp;gt;&amp;gt;" style="html=1;verticalAlign=bottom;labelBackgroundColor=none;endArrow=open;endFill=0;dashed=1;rounded=0;exitX=1;exitY=0.5;exitDx=0;exitDy=0;" parent="1" source="oINaCcXt8GuOCotXCiEz-7" edge="1">
          <mxGeometry width="160" relative="1" as="geometry">
            <mxPoint x="340" y="255" as="sourcePoint" />
            <mxPoint x="480" y="370" as="targetPoint" />
          </mxGeometry>
        </mxCell>
        <mxCell id="oINaCcXt8GuOCotXCiEz-46" value="&amp;lt;&amp;lt;extend&amp;gt;&amp;gt;" style="html=1;verticalAlign=bottom;labelBackgroundColor=none;endArrow=open;endFill=0;dashed=1;rounded=0;exitX=1;exitY=0.5;exitDx=0;exitDy=0;" parent="1" source="oINaCcXt8GuOCotXCiEz-8" edge="1">
          <mxGeometry width="160" relative="1" as="geometry">
            <mxPoint x="340" y="325" as="sourcePoint" />
            <mxPoint x="480" y="370" as="targetPoint" />
          </mxGeometry>
        </mxCell>
        <mxCell id="oINaCcXt8GuOCotXCiEz-47" value="&amp;lt;&amp;lt;extend&amp;gt;&amp;gt;" style="html=1;verticalAlign=bottom;labelBackgroundColor=none;endArrow=open;endFill=0;dashed=1;rounded=0;exitX=1;exitY=0.5;exitDx=0;exitDy=0;entryX=0;entryY=0.5;entryDx=0;entryDy=0;" parent="1" source="oINaCcXt8GuOCotXCiEz-9" target="oINaCcXt8GuOCotXCiEz-4" edge="1">
          <mxGeometry width="160" relative="1" as="geometry">
            <mxPoint x="340" y="455" as="sourcePoint" />
            <mxPoint x="490" y="440" as="targetPoint" />
          </mxGeometry>
        </mxCell>
        <mxCell id="oINaCcXt8GuOCotXCiEz-50" value="&amp;lt;&amp;lt;extend&amp;gt;&amp;gt;" style="html=1;verticalAlign=bottom;labelBackgroundColor=none;endArrow=open;endFill=0;dashed=1;rounded=0;exitX=0;exitY=0.5;exitDx=0;exitDy=0;entryX=1;entryY=0.5;entryDx=0;entryDy=0;" parent="1" source="oINaCcXt8GuOCotXCiEz-22" target="oINaCcXt8GuOCotXCiEz-4" edge="1">
          <mxGeometry width="160" relative="1" as="geometry">
            <mxPoint x="650" y="260" as="sourcePoint" />
            <mxPoint x="560" y="380" as="targetPoint" />
          </mxGeometry>
        </mxCell>
        <mxCell id="oINaCcXt8GuOCotXCiEz-51" value="&amp;lt;&amp;lt;extend&amp;gt;&amp;gt;" style="html=1;verticalAlign=bottom;labelBackgroundColor=none;endArrow=open;endFill=0;dashed=1;rounded=0;exitX=0;exitY=0.5;exitDx=0;exitDy=0;entryX=1;entryY=0.5;entryDx=0;entryDy=0;" parent="1" source="oINaCcXt8GuOCotXCiEz-23" target="oINaCcXt8GuOCotXCiEz-4" edge="1">
          <mxGeometry width="160" relative="1" as="geometry">
            <mxPoint x="650" y="370" as="sourcePoint" />
            <mxPoint x="560" y="380" as="targetPoint" />
          </mxGeometry>
        </mxCell>
        <mxCell id="oINaCcXt8GuOCotXCiEz-52" value="&amp;lt;&amp;lt;extend&amp;gt;&amp;gt;" style="html=1;verticalAlign=bottom;labelBackgroundColor=none;endArrow=open;endFill=0;dashed=1;rounded=0;exitX=0;exitY=0.5;exitDx=0;exitDy=0;" parent="1" source="oINaCcXt8GuOCotXCiEz-24" edge="1">
          <mxGeometry width="160" relative="1" as="geometry">
            <mxPoint x="650" y="430" as="sourcePoint" />
            <mxPoint x="550" y="370" as="targetPoint" />
          </mxGeometry>
        </mxCell>
        <mxCell id="oINaCcXt8GuOCotXCiEz-53" value="&amp;lt;&amp;lt;extend&amp;gt;&amp;gt;" style="html=1;verticalAlign=bottom;labelBackgroundColor=none;endArrow=open;endFill=0;dashed=1;rounded=0;exitX=0;exitY=0.5;exitDx=0;exitDy=0;entryX=1;entryY=0.5;entryDx=0;entryDy=0;" parent="1" source="oINaCcXt8GuOCotXCiEz-17" target="oINaCcXt8GuOCotXCiEz-4" edge="1">
          <mxGeometry width="160" relative="1" as="geometry">
            <mxPoint x="650" y="490" as="sourcePoint" />
            <mxPoint x="560" y="380" as="targetPoint" />
          </mxGeometry>
        </mxCell>
        <mxCell id="oINaCcXt8GuOCotXCiEz-54" value="&amp;lt;&amp;lt;extend&amp;gt;&amp;gt;" style="html=1;verticalAlign=bottom;labelBackgroundColor=none;endArrow=open;endFill=0;dashed=1;rounded=0;exitX=0;exitY=0.5;exitDx=0;exitDy=0;entryX=1;entryY=0.5;entryDx=0;entryDy=0;" parent="1" source="oINaCcXt8GuOCotXCiEz-14" target="oINaCcXt8GuOCotXCiEz-4" edge="1">
          <mxGeometry width="160" relative="1" as="geometry">
            <mxPoint x="650" y="370" as="sourcePoint" />
            <mxPoint x="560" y="380" as="targetPoint" />
            <Array as="points">
              <mxPoint x="710" y="310" />
              <mxPoint x="680" y="330" />
            </Array>
          </mxGeometry>
        </mxCell>
        <mxCell id="oINaCcXt8GuOCotXCiEz-55" value="&amp;lt;&amp;lt;extend&amp;gt;&amp;gt;" style="html=1;verticalAlign=bottom;labelBackgroundColor=none;endArrow=open;endFill=0;dashed=1;rounded=0;exitX=0.5;exitY=0;exitDx=0;exitDy=0;entryX=0.5;entryY=1;entryDx=0;entryDy=0;" parent="1" source="oINaCcXt8GuOCotXCiEz-20" target="oINaCcXt8GuOCotXCiEz-4" edge="1">
          <mxGeometry width="160" relative="1" as="geometry">
            <mxPoint x="340" y="560" as="sourcePoint" />
            <mxPoint x="490" y="380" as="targetPoint" />
          </mxGeometry>
        </mxCell>
        <mxCell id="oINaCcXt8GuOCotXCiEz-56" value="&amp;lt;&amp;lt;extend&amp;gt;&amp;gt;" style="html=1;verticalAlign=bottom;labelBackgroundColor=none;endArrow=open;endFill=0;dashed=1;rounded=0;" parent="1" source="oINaCcXt8GuOCotXCiEz-21" edge="1">
          <mxGeometry width="160" relative="1" as="geometry">
            <mxPoint x="455" y="680" as="sourcePoint" />
            <mxPoint x="520" y="390" as="targetPoint" />
          </mxGeometry>
        </mxCell>
        <mxCell id="oINaCcXt8GuOCotXCiEz-57" value="&amp;lt;&amp;lt;extend&amp;gt;&amp;gt;" style="html=1;verticalAlign=bottom;labelBackgroundColor=none;endArrow=open;endFill=0;dashed=1;rounded=0;exitX=0;exitY=0.5;exitDx=0;exitDy=0;" parent="1" source="oINaCcXt8GuOCotXCiEz-18" edge="1">
          <mxGeometry width="160" relative="1" as="geometry">
            <mxPoint x="650" y="550" as="sourcePoint" />
            <mxPoint x="550" y="370" as="targetPoint" />
            <Array as="points">
              <mxPoint x="640" y="610" />
            </Array>
          </mxGeometry>
        </mxCell>
        <mxCell id="oINaCcXt8GuOCotXCiEz-58" value="&amp;lt;&amp;lt;include&amp;gt;&amp;gt;" style="html=1;verticalAlign=bottom;labelBackgroundColor=none;endArrow=open;endFill=0;dashed=1;rounded=0;exitX=0.5;exitY=1;exitDx=0;exitDy=0;entryX=0.5;entryY=0;entryDx=0;entryDy=0;" parent="1" source="oINaCcXt8GuOCotXCiEz-5" target="oINaCcXt8GuOCotXCiEz-4" edge="1">
          <mxGeometry width="160" relative="1" as="geometry">
            <mxPoint x="420" y="540" as="sourcePoint" />
            <mxPoint x="520" y="360" as="targetPoint" />
          </mxGeometry>
        </mxCell>
        <mxCell id="oINaCcXt8GuOCotXCiEz-59" value="Final Use Case Diagram" style="swimlane;whiteSpace=wrap;html=1;" parent="1" vertex="1">
          <mxGeometry x="160" y="130" width="820" height="580" as="geometry" />
        </mxCell>
        <mxCell id="oINaCcXt8GuOCotXCiEz-29" style="rounded=0;orthogonalLoop=1;jettySize=auto;html=1;exitX=1;exitY=0.5;exitDx=0;exitDy=0;entryX=0;entryY=0.5;entryDx=0;entryDy=0;endArrow=none;startFill=0;" parent="oINaCcXt8GuOCotXCiEz-59" edge="1">
          <mxGeometry relative="1" as="geometry">
            <mxPoint x="650" y="90" as="targetPoint" />
          </mxGeometry>
        </mxCell>
        <mxCell id="oINaCcXt8GuOCotXCiEz-22" value="Tambah" style="ellipse;whiteSpace=wrap;html=1;" parent="oINaCcXt8GuOCotXCiEz-59" vertex="1">
          <mxGeometry x="500" y="210" width="130" height="40" as="geometry" />
        </mxCell>
        <mxCell id="oINaCcXt8GuOCotXCiEz-23" value="Edit" style="ellipse;whiteSpace=wrap;html=1;" parent="oINaCcXt8GuOCotXCiEz-59" vertex="1">
          <mxGeometry x="500" y="270" width="130" height="40" as="geometry" />
        </mxCell>
        <mxCell id="oINaCcXt8GuOCotXCiEz-24" value="Hapus" style="ellipse;whiteSpace=wrap;html=1;" parent="oINaCcXt8GuOCotXCiEz-59" vertex="1">
          <mxGeometry x="500" y="330" width="130" height="40" as="geometry" />
        </mxCell>
        <mxCell id="oINaCcXt8GuOCotXCiEz-17" value="Mencetak Riwayat Distribusi" style="ellipse;whiteSpace=wrap;html=1;" parent="oINaCcXt8GuOCotXCiEz-59" vertex="1">
          <mxGeometry x="500" y="390" width="130" height="40" as="geometry" />
        </mxCell>
        <mxCell id="oINaCcXt8GuOCotXCiEz-30" style="rounded=0;orthogonalLoop=1;jettySize=auto;html=1;exitX=1;exitY=0.5;exitDx=0;exitDy=0;endArrow=none;startFill=0;entryX=0;entryY=0.5;entryDx=0;entryDy=0;" parent="oINaCcXt8GuOCotXCiEz-59" edge="1">
          <mxGeometry relative="1" as="geometry">
            <mxPoint x="650" y="90" as="targetPoint" />
          </mxGeometry>
        </mxCell>
        <mxCell id="oINaCcXt8GuOCotXCiEz-21" value="Input Total Belanja" style="ellipse;whiteSpace=wrap;html=1;" parent="oINaCcXt8GuOCotXCiEz-59" vertex="1">
          <mxGeometry x="370" y="500" width="130" height="40" as="geometry" />
        </mxCell>
        <mxCell id="oINaCcXt8GuOCotXCiEz-20" value="Lihat Pesanan" style="ellipse;whiteSpace=wrap;html=1;" parent="oINaCcXt8GuOCotXCiEz-59" vertex="1">
          <mxGeometry x="220" y="500" width="130" height="40" as="geometry" />
        </mxCell>
      </root>
    </mxGraphModel>
  </diagram>
  <diagram id="th8b9dgFO35BZ5vj7QCq" name="final-class diagram">
    <mxGraphModel dx="1163" dy="716" grid="1" gridSize="10" guides="1" tooltips="1" connect="1" arrows="1" fold="1" page="1" pageScale="1" pageWidth="850" pageHeight="1100" math="0" shadow="0">
      <root>
        <mxCell id="0" />
        <mxCell id="1" parent="0" />
        <mxCell id="mFmwxaLPxMsZxTioqKsI-1" value="users" style="swimlane;fontStyle=1;align=center;verticalAlign=top;childLayout=stackLayout;horizontal=1;startSize=34.666666666666664;horizontalStack=0;resizeParent=1;resizeParentMax=0;resizeLast=0;collapsible=0;marginBottom=0;" vertex="1" parent="1">
          <mxGeometry x="33" y="20" width="340" height="217.66666666666666" as="geometry" />
        </mxCell>
        <mxCell id="mFmwxaLPxMsZxTioqKsI-2" value="+int id PK" style="text;strokeColor=none;fillColor=none;align=left;verticalAlign=top;spacingLeft=4;spacingRight=4;overflow=hidden;rotatable=0;points=[[0,0.5],[1,0.5]];portConstraint=eastwest;" vertex="1" parent="mFmwxaLPxMsZxTioqKsI-1">
          <mxGeometry y="34.666666666666664" width="340" height="35" as="geometry" />
        </mxCell>
        <mxCell id="mFmwxaLPxMsZxTioqKsI-3" value="+string name" style="text;strokeColor=none;fillColor=none;align=left;verticalAlign=top;spacingLeft=4;spacingRight=4;overflow=hidden;rotatable=0;points=[[0,0.5],[1,0.5]];portConstraint=eastwest;" vertex="1" parent="mFmwxaLPxMsZxTioqKsI-1">
          <mxGeometry y="69.66666666666666" width="340" height="35" as="geometry" />
        </mxCell>
        <mxCell id="mFmwxaLPxMsZxTioqKsI-4" value="+string email" style="text;strokeColor=none;fillColor=none;align=left;verticalAlign=top;spacingLeft=4;spacingRight=4;overflow=hidden;rotatable=0;points=[[0,0.5],[1,0.5]];portConstraint=eastwest;" vertex="1" parent="mFmwxaLPxMsZxTioqKsI-1">
          <mxGeometry y="104.66666666666666" width="340" height="35" as="geometry" />
        </mxCell>
        <mxCell id="mFmwxaLPxMsZxTioqKsI-5" value="+string password" style="text;strokeColor=none;fillColor=none;align=left;verticalAlign=top;spacingLeft=4;spacingRight=4;overflow=hidden;rotatable=0;points=[[0,0.5],[1,0.5]];portConstraint=eastwest;" vertex="1" parent="mFmwxaLPxMsZxTioqKsI-1">
          <mxGeometry y="139.66666666666666" width="340" height="35" as="geometry" />
        </mxCell>
        <mxCell id="mFmwxaLPxMsZxTioqKsI-6" style="line;strokeWidth=1;fillColor=none;align=left;verticalAlign=middle;spacingTop=-1;spacingLeft=3;spacingRight=3;rotatable=0;labelPosition=right;points=[];portConstraint=eastwest;strokeColor=inherit;" vertex="1" parent="mFmwxaLPxMsZxTioqKsI-1">
          <mxGeometry y="174.66666666666666" width="340" height="8" as="geometry" />
        </mxCell>
        <mxCell id="mFmwxaLPxMsZxTioqKsI-7" value="+ENUM(&#39;pemilik&#39;, &#39;karyawan&#39;, &#39;agen&#39;) : role" style="text;strokeColor=none;fillColor=none;align=left;verticalAlign=top;spacingLeft=4;spacingRight=4;overflow=hidden;rotatable=0;points=[[0,0.5],[1,0.5]];portConstraint=eastwest;" vertex="1" parent="mFmwxaLPxMsZxTioqKsI-1">
          <mxGeometry y="182.66666666666666" width="340" height="35" as="geometry" />
        </mxCell>
        <mxCell id="mFmwxaLPxMsZxTioqKsI-8" value="transactions" style="swimlane;fontStyle=1;align=center;verticalAlign=top;childLayout=stackLayout;horizontal=1;startSize=32;horizontalStack=0;resizeParent=1;resizeParentMax=0;resizeLast=0;collapsible=0;marginBottom=0;" vertex="1" parent="1">
          <mxGeometry x="20" y="309" width="366" height="264" as="geometry" />
        </mxCell>
        <mxCell id="mFmwxaLPxMsZxTioqKsI-9" value="+int id PK" style="text;strokeColor=none;fillColor=none;align=left;verticalAlign=top;spacingLeft=4;spacingRight=4;overflow=hidden;rotatable=0;points=[[0,0.5],[1,0.5]];portConstraint=eastwest;" vertex="1" parent="mFmwxaLPxMsZxTioqKsI-8">
          <mxGeometry y="32" width="366" height="32" as="geometry" />
        </mxCell>
        <mxCell id="mFmwxaLPxMsZxTioqKsI-10" value="+date date" style="text;strokeColor=none;fillColor=none;align=left;verticalAlign=top;spacingLeft=4;spacingRight=4;overflow=hidden;rotatable=0;points=[[0,0.5],[1,0.5]];portConstraint=eastwest;" vertex="1" parent="mFmwxaLPxMsZxTioqKsI-8">
          <mxGeometry y="64" width="366" height="32" as="geometry" />
        </mxCell>
        <mxCell id="mFmwxaLPxMsZxTioqKsI-11" value="+decimal amount" style="text;strokeColor=none;fillColor=none;align=left;verticalAlign=top;spacingLeft=4;spacingRight=4;overflow=hidden;rotatable=0;points=[[0,0.5],[1,0.5]];portConstraint=eastwest;" vertex="1" parent="mFmwxaLPxMsZxTioqKsI-8">
          <mxGeometry y="96" width="366" height="32" as="geometry" />
        </mxCell>
        <mxCell id="mFmwxaLPxMsZxTioqKsI-12" value="+text description" style="text;strokeColor=none;fillColor=none;align=left;verticalAlign=top;spacingLeft=4;spacingRight=4;overflow=hidden;rotatable=0;points=[[0,0.5],[1,0.5]];portConstraint=eastwest;" vertex="1" parent="mFmwxaLPxMsZxTioqKsI-8">
          <mxGeometry y="128" width="366" height="32" as="geometry" />
        </mxCell>
        <mxCell id="mFmwxaLPxMsZxTioqKsI-13" value="+int category_id FK" style="text;strokeColor=none;fillColor=none;align=left;verticalAlign=top;spacingLeft=4;spacingRight=4;overflow=hidden;rotatable=0;points=[[0,0.5],[1,0.5]];portConstraint=eastwest;" vertex="1" parent="mFmwxaLPxMsZxTioqKsI-8">
          <mxGeometry y="160" width="366" height="32" as="geometry" />
        </mxCell>
        <mxCell id="mFmwxaLPxMsZxTioqKsI-14" value="+int user_id FK" style="text;strokeColor=none;fillColor=none;align=left;verticalAlign=top;spacingLeft=4;spacingRight=4;overflow=hidden;rotatable=0;points=[[0,0.5],[1,0.5]];portConstraint=eastwest;" vertex="1" parent="mFmwxaLPxMsZxTioqKsI-8">
          <mxGeometry y="192" width="366" height="32" as="geometry" />
        </mxCell>
        <mxCell id="mFmwxaLPxMsZxTioqKsI-15" style="line;strokeWidth=1;fillColor=none;align=left;verticalAlign=middle;spacingTop=-1;spacingLeft=3;spacingRight=3;rotatable=0;labelPosition=right;points=[];portConstraint=eastwest;strokeColor=inherit;" vertex="1" parent="mFmwxaLPxMsZxTioqKsI-8">
          <mxGeometry y="224" width="366" height="8" as="geometry" />
        </mxCell>
        <mxCell id="mFmwxaLPxMsZxTioqKsI-16" value="+ENUM(&#39;pemasukan&#39;, &#39;pengeluaran&#39;) : type" style="text;strokeColor=none;fillColor=none;align=left;verticalAlign=top;spacingLeft=4;spacingRight=4;overflow=hidden;rotatable=0;points=[[0,0.5],[1,0.5]];portConstraint=eastwest;" vertex="1" parent="mFmwxaLPxMsZxTioqKsI-8">
          <mxGeometry y="232" width="366" height="32" as="geometry" />
        </mxCell>
        <mxCell id="mFmwxaLPxMsZxTioqKsI-17" value="categories" style="swimlane;fontStyle=1;align=center;verticalAlign=top;childLayout=stackLayout;horizontal=1;startSize=38.857142857142854;horizontalStack=0;resizeParent=1;resizeParentMax=0;resizeLast=0;collapsible=0;marginBottom=0;" vertex="1" parent="1">
          <mxGeometry x="423" y="56" width="155" height="135.85714285714286" as="geometry" />
        </mxCell>
        <mxCell id="mFmwxaLPxMsZxTioqKsI-18" value="+int id PK" style="text;strokeColor=none;fillColor=none;align=left;verticalAlign=top;spacingLeft=4;spacingRight=4;overflow=hidden;rotatable=0;points=[[0,0.5],[1,0.5]];portConstraint=eastwest;" vertex="1" parent="mFmwxaLPxMsZxTioqKsI-17">
          <mxGeometry y="38.857142857142854" width="155" height="39" as="geometry" />
        </mxCell>
        <mxCell id="mFmwxaLPxMsZxTioqKsI-19" value="+string name" style="text;strokeColor=none;fillColor=none;align=left;verticalAlign=top;spacingLeft=4;spacingRight=4;overflow=hidden;rotatable=0;points=[[0,0.5],[1,0.5]];portConstraint=eastwest;" vertex="1" parent="mFmwxaLPxMsZxTioqKsI-17">
          <mxGeometry y="77.85714285714286" width="155" height="39" as="geometry" />
        </mxCell>
        <mxCell id="mFmwxaLPxMsZxTioqKsI-20" style="line;strokeWidth=1;fillColor=none;align=left;verticalAlign=middle;spacingTop=-1;spacingLeft=3;spacingRight=3;rotatable=0;labelPosition=right;points=[];portConstraint=eastwest;strokeColor=inherit;" vertex="1" parent="mFmwxaLPxMsZxTioqKsI-17">
          <mxGeometry y="116.85714285714286" width="155" height="19" as="geometry" />
        </mxCell>
        <mxCell id="mFmwxaLPxMsZxTioqKsI-21" value="products" style="swimlane;fontStyle=1;align=center;verticalAlign=top;childLayout=stackLayout;horizontal=1;startSize=33.45454545454545;horizontalStack=0;resizeParent=1;resizeParentMax=0;resizeLast=0;collapsible=0;marginBottom=0;" vertex="1" parent="1">
          <mxGeometry x="628" y="32" width="149" height="182.45454545454544" as="geometry" />
        </mxCell>
        <mxCell id="mFmwxaLPxMsZxTioqKsI-22" value="+int id PK" style="text;strokeColor=none;fillColor=none;align=left;verticalAlign=top;spacingLeft=4;spacingRight=4;overflow=hidden;rotatable=0;points=[[0,0.5],[1,0.5]];portConstraint=eastwest;" vertex="1" parent="mFmwxaLPxMsZxTioqKsI-21">
          <mxGeometry y="33.45454545454545" width="149" height="33" as="geometry" />
        </mxCell>
        <mxCell id="mFmwxaLPxMsZxTioqKsI-23" value="+string name" style="text;strokeColor=none;fillColor=none;align=left;verticalAlign=top;spacingLeft=4;spacingRight=4;overflow=hidden;rotatable=0;points=[[0,0.5],[1,0.5]];portConstraint=eastwest;" vertex="1" parent="mFmwxaLPxMsZxTioqKsI-21">
          <mxGeometry y="66.45454545454545" width="149" height="33" as="geometry" />
        </mxCell>
        <mxCell id="mFmwxaLPxMsZxTioqKsI-24" value="+string unit" style="text;strokeColor=none;fillColor=none;align=left;verticalAlign=top;spacingLeft=4;spacingRight=4;overflow=hidden;rotatable=0;points=[[0,0.5],[1,0.5]];portConstraint=eastwest;" vertex="1" parent="mFmwxaLPxMsZxTioqKsI-21">
          <mxGeometry y="99.45454545454545" width="149" height="33" as="geometry" />
        </mxCell>
        <mxCell id="mFmwxaLPxMsZxTioqKsI-25" value="+int stock" style="text;strokeColor=none;fillColor=none;align=left;verticalAlign=top;spacingLeft=4;spacingRight=4;overflow=hidden;rotatable=0;points=[[0,0.5],[1,0.5]];portConstraint=eastwest;" vertex="1" parent="mFmwxaLPxMsZxTioqKsI-21">
          <mxGeometry y="132.45454545454544" width="149" height="33" as="geometry" />
        </mxCell>
        <mxCell id="mFmwxaLPxMsZxTioqKsI-26" style="line;strokeWidth=1;fillColor=none;align=left;verticalAlign=middle;spacingTop=-1;spacingLeft=3;spacingRight=3;rotatable=0;labelPosition=right;points=[];portConstraint=eastwest;strokeColor=inherit;" vertex="1" parent="mFmwxaLPxMsZxTioqKsI-21">
          <mxGeometry y="165.45454545454544" width="149" height="17" as="geometry" />
        </mxCell>
        <mxCell id="mFmwxaLPxMsZxTioqKsI-27" value="agent_submissions" style="swimlane;fontStyle=1;align=center;verticalAlign=top;childLayout=stackLayout;horizontal=1;startSize=32;horizontalStack=0;resizeParent=1;resizeParentMax=0;resizeLast=0;collapsible=0;marginBottom=0;" vertex="1" parent="1">
          <mxGeometry x="541" y="333" width="226" height="208" as="geometry" />
        </mxCell>
        <mxCell id="mFmwxaLPxMsZxTioqKsI-28" value="+int id PK" style="text;strokeColor=none;fillColor=none;align=left;verticalAlign=top;spacingLeft=4;spacingRight=4;overflow=hidden;rotatable=0;points=[[0,0.5],[1,0.5]];portConstraint=eastwest;" vertex="1" parent="mFmwxaLPxMsZxTioqKsI-27">
          <mxGeometry y="32" width="226" height="32" as="geometry" />
        </mxCell>
        <mxCell id="mFmwxaLPxMsZxTioqKsI-29" value="+date date" style="text;strokeColor=none;fillColor=none;align=left;verticalAlign=top;spacingLeft=4;spacingRight=4;overflow=hidden;rotatable=0;points=[[0,0.5],[1,0.5]];portConstraint=eastwest;" vertex="1" parent="mFmwxaLPxMsZxTioqKsI-27">
          <mxGeometry y="64" width="226" height="32" as="geometry" />
        </mxCell>
        <mxCell id="mFmwxaLPxMsZxTioqKsI-30" value="+int quantity" style="text;strokeColor=none;fillColor=none;align=left;verticalAlign=top;spacingLeft=4;spacingRight=4;overflow=hidden;rotatable=0;points=[[0,0.5],[1,0.5]];portConstraint=eastwest;" vertex="1" parent="mFmwxaLPxMsZxTioqKsI-27">
          <mxGeometry y="96" width="226" height="32" as="geometry" />
        </mxCell>
        <mxCell id="mFmwxaLPxMsZxTioqKsI-31" value="+int agent_id FK" style="text;strokeColor=none;fillColor=none;align=left;verticalAlign=top;spacingLeft=4;spacingRight=4;overflow=hidden;rotatable=0;points=[[0,0.5],[1,0.5]];portConstraint=eastwest;" vertex="1" parent="mFmwxaLPxMsZxTioqKsI-27">
          <mxGeometry y="128" width="226" height="32" as="geometry" />
        </mxCell>
        <mxCell id="mFmwxaLPxMsZxTioqKsI-32" value="+int product_id FK" style="text;strokeColor=none;fillColor=none;align=left;verticalAlign=top;spacingLeft=4;spacingRight=4;overflow=hidden;rotatable=0;points=[[0,0.5],[1,0.5]];portConstraint=eastwest;" vertex="1" parent="mFmwxaLPxMsZxTioqKsI-27">
          <mxGeometry y="160" width="226" height="32" as="geometry" />
        </mxCell>
        <mxCell id="mFmwxaLPxMsZxTioqKsI-33" style="line;strokeWidth=1;fillColor=none;align=left;verticalAlign=middle;spacingTop=-1;spacingLeft=3;spacingRight=3;rotatable=0;labelPosition=right;points=[];portConstraint=eastwest;strokeColor=inherit;" vertex="1" parent="mFmwxaLPxMsZxTioqKsI-27">
          <mxGeometry y="192" width="226" height="16" as="geometry" />
        </mxCell>
        <mxCell id="mFmwxaLPxMsZxTioqKsI-34" value="&quot;mencatat&quot;" style="startArrow=none;endArrow=none;exitX=0.34;exitY=1;entryX=0.35;entryY=0;rounded=0;edgeStyle=orthogonalEdgeStyle;" edge="1" parent="1" source="mFmwxaLPxMsZxTioqKsI-1" target="mFmwxaLPxMsZxTioqKsI-8">
          <mxGeometry relative="1" as="geometry" />
        </mxCell>
        <mxCell id="mFmwxaLPxMsZxTioqKsI-35" value="1" style="edgeLabel;resizable=0;labelBackgroundColor=none;fontSize=12;align=right;verticalAlign=top;" vertex="1" parent="mFmwxaLPxMsZxTioqKsI-34">
          <mxGeometry x="-1" relative="1" as="geometry" />
        </mxCell>
        <mxCell id="mFmwxaLPxMsZxTioqKsI-36" value="0..*" style="edgeLabel;resizable=0;labelBackgroundColor=none;fontSize=12;align=left;verticalAlign=bottom;" vertex="1" parent="mFmwxaLPxMsZxTioqKsI-34">
          <mxGeometry x="1" relative="1" as="geometry" />
        </mxCell>
        <mxCell id="mFmwxaLPxMsZxTioqKsI-37" value="&quot;memiliki&quot;" style="startArrow=none;endArrow=none;exitX=0.27;exitY=1;entryX=0.98;entryY=0;rounded=0;edgeStyle=orthogonalEdgeStyle;" edge="1" parent="1" source="mFmwxaLPxMsZxTioqKsI-17" target="mFmwxaLPxMsZxTioqKsI-8">
          <mxGeometry relative="1" as="geometry" />
        </mxCell>
        <mxCell id="mFmwxaLPxMsZxTioqKsI-38" value="1" style="edgeLabel;resizable=0;labelBackgroundColor=none;fontSize=12;align=right;verticalAlign=top;" vertex="1" parent="mFmwxaLPxMsZxTioqKsI-37">
          <mxGeometry x="-1" relative="1" as="geometry" />
        </mxCell>
        <mxCell id="mFmwxaLPxMsZxTioqKsI-39" value="0..*" style="edgeLabel;resizable=0;labelBackgroundColor=none;fontSize=12;align=left;verticalAlign=bottom;" vertex="1" parent="mFmwxaLPxMsZxTioqKsI-37">
          <mxGeometry x="1" relative="1" as="geometry" />
        </mxCell>
        <mxCell id="mFmwxaLPxMsZxTioqKsI-40" value="&quot;melakukan&quot;" style="startArrow=none;endArrow=none;exitX=1;exitY=0.84;entryX=0.16;entryY=0;rounded=0;edgeStyle=orthogonalEdgeStyle;" edge="1" parent="1" source="mFmwxaLPxMsZxTioqKsI-1" target="mFmwxaLPxMsZxTioqKsI-27">
          <mxGeometry relative="1" as="geometry">
            <Array as="points">
              <mxPoint x="373" y="220" />
              <mxPoint x="577" y="220" />
            </Array>
          </mxGeometry>
        </mxCell>
        <mxCell id="mFmwxaLPxMsZxTioqKsI-41" value="1" style="edgeLabel;resizable=0;labelBackgroundColor=none;fontSize=12;align=left;verticalAlign=top;" vertex="1" parent="mFmwxaLPxMsZxTioqKsI-40">
          <mxGeometry x="-1" relative="1" as="geometry" />
        </mxCell>
        <mxCell id="mFmwxaLPxMsZxTioqKsI-42" value="0..*" style="edgeLabel;resizable=0;labelBackgroundColor=none;fontSize=12;align=right;verticalAlign=bottom;" vertex="1" parent="mFmwxaLPxMsZxTioqKsI-40">
          <mxGeometry x="1" relative="1" as="geometry" />
        </mxCell>
        <mxCell id="mFmwxaLPxMsZxTioqKsI-43" value="&quot;disetor&quot;" style="startArrow=none;endArrow=none;exitX=0.5;exitY=1;entryX=0.64;entryY=0;rounded=0;edgeStyle=orthogonalEdgeStyle;" edge="1" parent="1" source="mFmwxaLPxMsZxTioqKsI-21" target="mFmwxaLPxMsZxTioqKsI-27">
          <mxGeometry relative="1" as="geometry" />
        </mxCell>
        <mxCell id="mFmwxaLPxMsZxTioqKsI-44" value="1" style="edgeLabel;resizable=0;labelBackgroundColor=none;fontSize=12;align=right;verticalAlign=top;" vertex="1" parent="mFmwxaLPxMsZxTioqKsI-43">
          <mxGeometry x="-1" relative="1" as="geometry" />
        </mxCell>
        <mxCell id="mFmwxaLPxMsZxTioqKsI-45" value="0..*" style="edgeLabel;resizable=0;labelBackgroundColor=none;fontSize=12;align=left;verticalAlign=bottom;" vertex="1" parent="mFmwxaLPxMsZxTioqKsI-43">
          <mxGeometry x="1" relative="1" as="geometry" />
        </mxCell>
      </root>
    </mxGraphModel>
  </diagram>
  <diagram id="_ms16lyNgOW1JGKirJIj" name="Activity Login">
    <mxGraphModel dx="1426" dy="849" grid="1" gridSize="10" guides="1" tooltips="1" connect="1" arrows="1" fold="1" page="1" pageScale="1" pageWidth="850" pageHeight="1100" math="0" shadow="0">
      <root>
        <mxCell id="0" />
        <mxCell id="1" parent="0" />
        <mxCell id="Tsm_cnWmn-GRkkueB7FO-4" value="" style="ellipse;html=1;shape=endState;fillColor=#000000;strokeColor=#ff0000;" parent="1" vertex="1">
          <mxGeometry x="140" y="450" width="40" height="40" as="geometry" />
        </mxCell>
        <mxCell id="Tsm_cnWmn-GRkkueB7FO-24" style="edgeStyle=orthogonalEdgeStyle;rounded=0;orthogonalLoop=1;jettySize=auto;html=1;exitX=0.5;exitY=1;exitDx=0;exitDy=0;entryX=0.5;entryY=0;entryDx=0;entryDy=0;" parent="1" source="Tsm_cnWmn-GRkkueB7FO-5" target="Tsm_cnWmn-GRkkueB7FO-7" edge="1">
          <mxGeometry relative="1" as="geometry" />
        </mxCell>
        <mxCell id="Tsm_cnWmn-GRkkueB7FO-5" value="" style="ellipse;whiteSpace=wrap;html=1;aspect=fixed;fillColor=light-dark(#1a1919, #ededed);" parent="1" vertex="1">
          <mxGeometry x="140" y="60" width="40" height="40" as="geometry" />
        </mxCell>
        <mxCell id="Tsm_cnWmn-GRkkueB7FO-9" value="" style="edgeStyle=orthogonalEdgeStyle;rounded=0;orthogonalLoop=1;jettySize=auto;html=1;" parent="1" source="Tsm_cnWmn-GRkkueB7FO-7" target="Tsm_cnWmn-GRkkueB7FO-8" edge="1">
          <mxGeometry relative="1" as="geometry" />
        </mxCell>
        <mxCell id="Tsm_cnWmn-GRkkueB7FO-7" value="Membuka Halaman Login" style="rounded=1;whiteSpace=wrap;html=1;" parent="1" vertex="1">
          <mxGeometry x="100" y="140" width="120" height="60" as="geometry" />
        </mxCell>
        <mxCell id="Tsm_cnWmn-GRkkueB7FO-11" value="" style="edgeStyle=orthogonalEdgeStyle;rounded=0;orthogonalLoop=1;jettySize=auto;html=1;" parent="1" source="Tsm_cnWmn-GRkkueB7FO-8" target="Tsm_cnWmn-GRkkueB7FO-10" edge="1">
          <mxGeometry relative="1" as="geometry">
            <Array as="points">
              <mxPoint x="360" y="220" />
              <mxPoint x="160" y="220" />
            </Array>
          </mxGeometry>
        </mxCell>
        <mxCell id="Tsm_cnWmn-GRkkueB7FO-8" value="Menampilkan Form Login" style="rounded=1;whiteSpace=wrap;html=1;" parent="1" vertex="1">
          <mxGeometry x="300" y="140" width="120" height="60" as="geometry" />
        </mxCell>
        <mxCell id="Tsm_cnWmn-GRkkueB7FO-13" value="" style="edgeStyle=orthogonalEdgeStyle;rounded=0;orthogonalLoop=1;jettySize=auto;html=1;" parent="1" source="Tsm_cnWmn-GRkkueB7FO-10" target="Tsm_cnWmn-GRkkueB7FO-12" edge="1">
          <mxGeometry relative="1" as="geometry" />
        </mxCell>
        <mxCell id="Tsm_cnWmn-GRkkueB7FO-10" value="Memasukkan Email Dan Password" style="rounded=1;whiteSpace=wrap;html=1;" parent="1" vertex="1">
          <mxGeometry x="100" y="240" width="120" height="60" as="geometry" />
        </mxCell>
        <mxCell id="Tsm_cnWmn-GRkkueB7FO-15" value="" style="edgeStyle=orthogonalEdgeStyle;rounded=0;orthogonalLoop=1;jettySize=auto;html=1;" parent="1" source="Tsm_cnWmn-GRkkueB7FO-12" target="Tsm_cnWmn-GRkkueB7FO-14" edge="1">
          <mxGeometry relative="1" as="geometry" />
        </mxCell>
        <mxCell id="Tsm_cnWmn-GRkkueB7FO-21" value="NO" style="edgeLabel;html=1;align=center;verticalAlign=middle;resizable=0;points=[];" parent="Tsm_cnWmn-GRkkueB7FO-15" vertex="1" connectable="0">
          <mxGeometry x="-0.5533" relative="1" as="geometry">
            <mxPoint as="offset" />
          </mxGeometry>
        </mxCell>
        <mxCell id="Tsm_cnWmn-GRkkueB7FO-19" value="" style="edgeStyle=orthogonalEdgeStyle;rounded=0;orthogonalLoop=1;jettySize=auto;html=1;" parent="1" source="Tsm_cnWmn-GRkkueB7FO-12" target="Tsm_cnWmn-GRkkueB7FO-18" edge="1">
          <mxGeometry relative="1" as="geometry" />
        </mxCell>
        <mxCell id="Tsm_cnWmn-GRkkueB7FO-20" value="Yes" style="edgeLabel;html=1;align=center;verticalAlign=middle;resizable=0;points=[];" parent="Tsm_cnWmn-GRkkueB7FO-19" vertex="1" connectable="0">
          <mxGeometry x="-0.1433" relative="1" as="geometry">
            <mxPoint as="offset" />
          </mxGeometry>
        </mxCell>
        <mxCell id="Tsm_cnWmn-GRkkueB7FO-12" value="Validasi" style="rhombus;whiteSpace=wrap;html=1;rounded=1;" parent="1" vertex="1">
          <mxGeometry x="320" y="320" width="80" height="80" as="geometry" />
        </mxCell>
        <mxCell id="Tsm_cnWmn-GRkkueB7FO-22" style="edgeStyle=orthogonalEdgeStyle;rounded=0;orthogonalLoop=1;jettySize=auto;html=1;exitX=1;exitY=0.5;exitDx=0;exitDy=0;entryX=1;entryY=0.5;entryDx=0;entryDy=0;" parent="1" source="Tsm_cnWmn-GRkkueB7FO-14" target="Tsm_cnWmn-GRkkueB7FO-8" edge="1">
          <mxGeometry relative="1" as="geometry" />
        </mxCell>
        <mxCell id="Tsm_cnWmn-GRkkueB7FO-14" value="Sistem menampilkan pesan error &quot;Kredensial salah&quot;." style="whiteSpace=wrap;html=1;rounded=1;" parent="1" vertex="1">
          <mxGeometry x="300" y="430" width="120" height="60" as="geometry" />
        </mxCell>
        <mxCell id="Tsm_cnWmn-GRkkueB7FO-23" style="edgeStyle=orthogonalEdgeStyle;rounded=0;orthogonalLoop=1;jettySize=auto;html=1;exitX=0.5;exitY=1;exitDx=0;exitDy=0;entryX=0.5;entryY=0;entryDx=0;entryDy=0;" parent="1" source="Tsm_cnWmn-GRkkueB7FO-18" target="Tsm_cnWmn-GRkkueB7FO-4" edge="1">
          <mxGeometry relative="1" as="geometry" />
        </mxCell>
        <mxCell id="Tsm_cnWmn-GRkkueB7FO-18" value="Menampilkan Dashboard Sesuai Role" style="whiteSpace=wrap;html=1;rounded=1;" parent="1" vertex="1">
          <mxGeometry x="100" y="330" width="120" height="60" as="geometry" />
        </mxCell>
        <mxCell id="zW9RFreUiNL_4-0mspZD-1" value="User" style="swimlane;whiteSpace=wrap;html=1;" parent="1" vertex="1">
          <mxGeometry x="60" y="20" width="200" height="490" as="geometry" />
        </mxCell>
        <mxCell id="zW9RFreUiNL_4-0mspZD-2" value="Sistem" style="swimlane;whiteSpace=wrap;html=1;" parent="1" vertex="1">
          <mxGeometry x="260" y="20" width="200" height="490" as="geometry" />
        </mxCell>
      </root>
    </mxGraphModel>
  </diagram>
  <diagram name="Catatan Transaksi" id="HCzCQK3IARznWH_swiG6">
    <mxGraphModel dx="1426" dy="849" grid="1" gridSize="10" guides="1" tooltips="1" connect="1" arrows="1" fold="1" page="1" pageScale="1" pageWidth="850" pageHeight="1100" math="0" shadow="0">
      <root>
        <mxCell id="fuMUwX62m0UzAAPCoSbU-0" />
        <mxCell id="fuMUwX62m0UzAAPCoSbU-1" parent="fuMUwX62m0UzAAPCoSbU-0" />
        <mxCell id="fuMUwX62m0UzAAPCoSbU-2" value="" style="ellipse;html=1;shape=endState;fillColor=#000000;strokeColor=#ff0000;" parent="fuMUwX62m0UzAAPCoSbU-1" vertex="1">
          <mxGeometry x="140" y="640" width="40" height="40" as="geometry" />
        </mxCell>
        <mxCell id="fuMUwX62m0UzAAPCoSbU-3" style="edgeStyle=orthogonalEdgeStyle;rounded=0;orthogonalLoop=1;jettySize=auto;html=1;exitX=0.5;exitY=1;exitDx=0;exitDy=0;entryX=0.5;entryY=0;entryDx=0;entryDy=0;" parent="fuMUwX62m0UzAAPCoSbU-1" source="fuMUwX62m0UzAAPCoSbU-4" target="fuMUwX62m0UzAAPCoSbU-6" edge="1">
          <mxGeometry relative="1" as="geometry" />
        </mxCell>
        <mxCell id="fuMUwX62m0UzAAPCoSbU-4" value="" style="ellipse;whiteSpace=wrap;html=1;aspect=fixed;fillColor=light-dark(#1a1919, #ededed);" parent="fuMUwX62m0UzAAPCoSbU-1" vertex="1">
          <mxGeometry x="140" y="60" width="40" height="40" as="geometry" />
        </mxCell>
        <mxCell id="fuMUwX62m0UzAAPCoSbU-5" value="" style="edgeStyle=orthogonalEdgeStyle;rounded=0;orthogonalLoop=1;jettySize=auto;html=1;" parent="fuMUwX62m0UzAAPCoSbU-1" source="fuMUwX62m0UzAAPCoSbU-6" target="fuMUwX62m0UzAAPCoSbU-8" edge="1">
          <mxGeometry relative="1" as="geometry" />
        </mxCell>
        <mxCell id="fuMUwX62m0UzAAPCoSbU-6" value="Membuka Menu Catatan Transaksi" style="rounded=1;whiteSpace=wrap;html=1;" parent="fuMUwX62m0UzAAPCoSbU-1" vertex="1">
          <mxGeometry x="100" y="140" width="120" height="60" as="geometry" />
        </mxCell>
        <mxCell id="fuMUwX62m0UzAAPCoSbU-7" value="" style="edgeStyle=orthogonalEdgeStyle;rounded=0;orthogonalLoop=1;jettySize=auto;html=1;" parent="fuMUwX62m0UzAAPCoSbU-1" source="fuMUwX62m0UzAAPCoSbU-8" target="fuMUwX62m0UzAAPCoSbU-10" edge="1">
          <mxGeometry relative="1" as="geometry">
            <Array as="points">
              <mxPoint x="360" y="220" />
              <mxPoint x="160" y="220" />
            </Array>
          </mxGeometry>
        </mxCell>
        <mxCell id="fuMUwX62m0UzAAPCoSbU-8" value="Menampilkan Tabel Catatan Transaksi" style="rounded=1;whiteSpace=wrap;html=1;" parent="fuMUwX62m0UzAAPCoSbU-1" vertex="1">
          <mxGeometry x="300" y="140" width="120" height="60" as="geometry" />
        </mxCell>
        <mxCell id="ti5tlmQ3l48TA1DdbEAY-1" value="" style="edgeStyle=orthogonalEdgeStyle;rounded=0;orthogonalLoop=1;jettySize=auto;html=1;" parent="fuMUwX62m0UzAAPCoSbU-1" source="fuMUwX62m0UzAAPCoSbU-10" target="ti5tlmQ3l48TA1DdbEAY-0" edge="1">
          <mxGeometry relative="1" as="geometry" />
        </mxCell>
        <mxCell id="fuMUwX62m0UzAAPCoSbU-10" value="Memilih Tombol Pemasukan Atau Pengeluaran" style="rounded=1;whiteSpace=wrap;html=1;" parent="fuMUwX62m0UzAAPCoSbU-1" vertex="1">
          <mxGeometry x="100" y="240" width="120" height="60" as="geometry" />
        </mxCell>
        <mxCell id="ti5tlmQ3l48TA1DdbEAY-3" value="" style="edgeStyle=orthogonalEdgeStyle;rounded=0;orthogonalLoop=1;jettySize=auto;html=1;" parent="fuMUwX62m0UzAAPCoSbU-1" source="ti5tlmQ3l48TA1DdbEAY-0" target="ti5tlmQ3l48TA1DdbEAY-2" edge="1">
          <mxGeometry relative="1" as="geometry">
            <Array as="points">
              <mxPoint x="360" y="310" />
              <mxPoint x="160" y="310" />
            </Array>
          </mxGeometry>
        </mxCell>
        <mxCell id="ti5tlmQ3l48TA1DdbEAY-0" value="Menampilkan Form Pemasukan Atau Pengeluaran" style="rounded=1;whiteSpace=wrap;html=1;" parent="fuMUwX62m0UzAAPCoSbU-1" vertex="1">
          <mxGeometry x="300" y="240" width="120" height="60" as="geometry" />
        </mxCell>
        <mxCell id="ti5tlmQ3l48TA1DdbEAY-5" value="" style="edgeStyle=orthogonalEdgeStyle;rounded=0;orthogonalLoop=1;jettySize=auto;html=1;" parent="fuMUwX62m0UzAAPCoSbU-1" source="ti5tlmQ3l48TA1DdbEAY-2" target="ti5tlmQ3l48TA1DdbEAY-4" edge="1">
          <mxGeometry relative="1" as="geometry">
            <Array as="points">
              <mxPoint x="160" y="460" />
            </Array>
          </mxGeometry>
        </mxCell>
        <mxCell id="ti5tlmQ3l48TA1DdbEAY-2" value="Mengisi Form ( Kateogri, tanggal, jumlah, deskripsi )" style="rounded=1;whiteSpace=wrap;html=1;" parent="fuMUwX62m0UzAAPCoSbU-1" vertex="1">
          <mxGeometry x="100" y="330" width="120" height="60" as="geometry" />
        </mxCell>
        <mxCell id="ti5tlmQ3l48TA1DdbEAY-7" value="" style="edgeStyle=orthogonalEdgeStyle;rounded=0;orthogonalLoop=1;jettySize=auto;html=1;" parent="fuMUwX62m0UzAAPCoSbU-1" source="ti5tlmQ3l48TA1DdbEAY-4" target="ti5tlmQ3l48TA1DdbEAY-6" edge="1">
          <mxGeometry relative="1" as="geometry" />
        </mxCell>
        <mxCell id="ti5tlmQ3l48TA1DdbEAY-18" value="Ya" style="edgeLabel;html=1;align=center;verticalAlign=middle;resizable=0;points=[];" parent="ti5tlmQ3l48TA1DdbEAY-7" vertex="1" connectable="0">
          <mxGeometry x="-0.55" y="-2" relative="1" as="geometry">
            <mxPoint as="offset" />
          </mxGeometry>
        </mxCell>
        <mxCell id="ti5tlmQ3l48TA1DdbEAY-12" value="" style="edgeStyle=orthogonalEdgeStyle;rounded=0;orthogonalLoop=1;jettySize=auto;html=1;" parent="fuMUwX62m0UzAAPCoSbU-1" source="ti5tlmQ3l48TA1DdbEAY-4" target="ti5tlmQ3l48TA1DdbEAY-11" edge="1">
          <mxGeometry relative="1" as="geometry" />
        </mxCell>
        <mxCell id="ti5tlmQ3l48TA1DdbEAY-17" value="Tidak" style="edgeLabel;html=1;align=center;verticalAlign=middle;resizable=0;points=[];" parent="ti5tlmQ3l48TA1DdbEAY-12" vertex="1" connectable="0">
          <mxGeometry x="0.32" y="2" relative="1" as="geometry">
            <mxPoint as="offset" />
          </mxGeometry>
        </mxCell>
        <mxCell id="ti5tlmQ3l48TA1DdbEAY-4" value="" style="rhombus;whiteSpace=wrap;html=1;rounded=1;" parent="fuMUwX62m0UzAAPCoSbU-1" vertex="1">
          <mxGeometry x="320" y="420" width="80" height="80" as="geometry" />
        </mxCell>
        <mxCell id="ti5tlmQ3l48TA1DdbEAY-9" value="" style="edgeStyle=orthogonalEdgeStyle;rounded=0;orthogonalLoop=1;jettySize=auto;html=1;" parent="fuMUwX62m0UzAAPCoSbU-1" source="ti5tlmQ3l48TA1DdbEAY-6" target="ti5tlmQ3l48TA1DdbEAY-8" edge="1">
          <mxGeometry relative="1" as="geometry" />
        </mxCell>
        <mxCell id="ti5tlmQ3l48TA1DdbEAY-6" value="Menampilkan Pesan Berhasil dan menyimpan ke database" style="whiteSpace=wrap;html=1;rounded=1;" parent="fuMUwX62m0UzAAPCoSbU-1" vertex="1">
          <mxGeometry x="300" y="540" width="120" height="60" as="geometry" />
        </mxCell>
        <mxCell id="ti5tlmQ3l48TA1DdbEAY-19" style="edgeStyle=orthogonalEdgeStyle;rounded=0;orthogonalLoop=1;jettySize=auto;html=1;exitX=0.5;exitY=1;exitDx=0;exitDy=0;entryX=0.5;entryY=0;entryDx=0;entryDy=0;" parent="fuMUwX62m0UzAAPCoSbU-1" source="ti5tlmQ3l48TA1DdbEAY-8" target="fuMUwX62m0UzAAPCoSbU-2" edge="1">
          <mxGeometry relative="1" as="geometry" />
        </mxCell>
        <mxCell id="ti5tlmQ3l48TA1DdbEAY-8" value="Melihat Tabel Catatan Transaksi Terbaru" style="whiteSpace=wrap;html=1;rounded=1;" parent="fuMUwX62m0UzAAPCoSbU-1" vertex="1">
          <mxGeometry x="100" y="540" width="120" height="60" as="geometry" />
        </mxCell>
        <mxCell id="ti5tlmQ3l48TA1DdbEAY-13" style="edgeStyle=orthogonalEdgeStyle;rounded=0;orthogonalLoop=1;jettySize=auto;html=1;exitX=1;exitY=0.5;exitDx=0;exitDy=0;entryX=1;entryY=0.5;entryDx=0;entryDy=0;" parent="fuMUwX62m0UzAAPCoSbU-1" source="ti5tlmQ3l48TA1DdbEAY-11" target="ti5tlmQ3l48TA1DdbEAY-0" edge="1">
          <mxGeometry relative="1" as="geometry" />
        </mxCell>
        <mxCell id="ti5tlmQ3l48TA1DdbEAY-11" value="Menampilkan Pesan Gagal Data Tidak Sesuai" style="whiteSpace=wrap;html=1;rounded=1;" parent="fuMUwX62m0UzAAPCoSbU-1" vertex="1">
          <mxGeometry x="300" y="330" width="120" height="60" as="geometry" />
        </mxCell>
        <mxCell id="dM7PvZmkJycVlDHjZ1oA-0" value="User" style="swimlane;whiteSpace=wrap;html=1;" parent="fuMUwX62m0UzAAPCoSbU-1" vertex="1">
          <mxGeometry x="60" y="20" width="200" height="680" as="geometry" />
        </mxCell>
        <mxCell id="dM7PvZmkJycVlDHjZ1oA-1" value="Sistem" style="swimlane;whiteSpace=wrap;html=1;" parent="fuMUwX62m0UzAAPCoSbU-1" vertex="1">
          <mxGeometry x="260" y="20" width="200" height="680" as="geometry" />
        </mxCell>
      </root>
    </mxGraphModel>
  </diagram>
  <diagram name="History Transaksi" id="7BUS2JSrje8-S82e7oXL">
    <mxGraphModel dx="1426" dy="849" grid="1" gridSize="10" guides="1" tooltips="1" connect="1" arrows="1" fold="1" page="1" pageScale="1" pageWidth="850" pageHeight="1100" math="0" shadow="0">
      <root>
        <mxCell id="7XyNTqKr20Fp1Whxytx3-0" />
        <mxCell id="7XyNTqKr20Fp1Whxytx3-1" parent="7XyNTqKr20Fp1Whxytx3-0" />
        <mxCell id="7XyNTqKr20Fp1Whxytx3-2" value="" style="ellipse;html=1;shape=endState;fillColor=#000000;strokeColor=#ff0000;" parent="7XyNTqKr20Fp1Whxytx3-1" vertex="1">
          <mxGeometry x="140" y="640" width="40" height="40" as="geometry" />
        </mxCell>
        <mxCell id="7XyNTqKr20Fp1Whxytx3-3" style="edgeStyle=orthogonalEdgeStyle;rounded=0;orthogonalLoop=1;jettySize=auto;html=1;exitX=0.5;exitY=1;exitDx=0;exitDy=0;entryX=0.5;entryY=0;entryDx=0;entryDy=0;" parent="7XyNTqKr20Fp1Whxytx3-1" source="7XyNTqKr20Fp1Whxytx3-4" target="7XyNTqKr20Fp1Whxytx3-6" edge="1">
          <mxGeometry relative="1" as="geometry" />
        </mxCell>
        <mxCell id="7XyNTqKr20Fp1Whxytx3-4" value="" style="ellipse;whiteSpace=wrap;html=1;aspect=fixed;fillColor=light-dark(#1a1919, #ededed);" parent="7XyNTqKr20Fp1Whxytx3-1" vertex="1">
          <mxGeometry x="140" y="60" width="40" height="40" as="geometry" />
        </mxCell>
        <mxCell id="7XyNTqKr20Fp1Whxytx3-5" value="" style="edgeStyle=orthogonalEdgeStyle;rounded=0;orthogonalLoop=1;jettySize=auto;html=1;" parent="7XyNTqKr20Fp1Whxytx3-1" source="7XyNTqKr20Fp1Whxytx3-6" target="7XyNTqKr20Fp1Whxytx3-8" edge="1">
          <mxGeometry relative="1" as="geometry" />
        </mxCell>
        <mxCell id="7XyNTqKr20Fp1Whxytx3-6" value="Membuka Menu Kelola Transaksi" style="rounded=1;whiteSpace=wrap;html=1;" parent="7XyNTqKr20Fp1Whxytx3-1" vertex="1">
          <mxGeometry x="100" y="140" width="120" height="60" as="geometry" />
        </mxCell>
        <mxCell id="7XyNTqKr20Fp1Whxytx3-7" value="" style="edgeStyle=orthogonalEdgeStyle;rounded=0;orthogonalLoop=1;jettySize=auto;html=1;" parent="7XyNTqKr20Fp1Whxytx3-1" source="7XyNTqKr20Fp1Whxytx3-8" target="7XyNTqKr20Fp1Whxytx3-10" edge="1">
          <mxGeometry relative="1" as="geometry">
            <Array as="points">
              <mxPoint x="360" y="220" />
              <mxPoint x="160" y="220" />
            </Array>
          </mxGeometry>
        </mxCell>
        <mxCell id="7XyNTqKr20Fp1Whxytx3-8" value="Menampilkan Tabel History Transaksi" style="rounded=1;whiteSpace=wrap;html=1;" parent="7XyNTqKr20Fp1Whxytx3-1" vertex="1">
          <mxGeometry x="300" y="140" width="120" height="60" as="geometry" />
        </mxCell>
        <mxCell id="7XyNTqKr20Fp1Whxytx3-9" value="" style="edgeStyle=orthogonalEdgeStyle;rounded=0;orthogonalLoop=1;jettySize=auto;html=1;" parent="7XyNTqKr20Fp1Whxytx3-1" source="7XyNTqKr20Fp1Whxytx3-10" target="7XyNTqKr20Fp1Whxytx3-12" edge="1">
          <mxGeometry relative="1" as="geometry" />
        </mxCell>
        <mxCell id="7XyNTqKr20Fp1Whxytx3-10" value="Memilih Tombol Buat atau ubah transaksi" style="rounded=1;whiteSpace=wrap;html=1;" parent="7XyNTqKr20Fp1Whxytx3-1" vertex="1">
          <mxGeometry x="100" y="240" width="120" height="60" as="geometry" />
        </mxCell>
        <mxCell id="7XyNTqKr20Fp1Whxytx3-11" value="" style="edgeStyle=orthogonalEdgeStyle;rounded=0;orthogonalLoop=1;jettySize=auto;html=1;" parent="7XyNTqKr20Fp1Whxytx3-1" source="7XyNTqKr20Fp1Whxytx3-12" target="7XyNTqKr20Fp1Whxytx3-14" edge="1">
          <mxGeometry relative="1" as="geometry">
            <Array as="points">
              <mxPoint x="360" y="310" />
              <mxPoint x="160" y="310" />
            </Array>
          </mxGeometry>
        </mxCell>
        <mxCell id="7XyNTqKr20Fp1Whxytx3-12" value="Menampilkan Form buat atau ubah transaksi" style="rounded=1;whiteSpace=wrap;html=1;" parent="7XyNTqKr20Fp1Whxytx3-1" vertex="1">
          <mxGeometry x="300" y="240" width="120" height="60" as="geometry" />
        </mxCell>
        <mxCell id="7XyNTqKr20Fp1Whxytx3-13" value="" style="edgeStyle=orthogonalEdgeStyle;rounded=0;orthogonalLoop=1;jettySize=auto;html=1;" parent="7XyNTqKr20Fp1Whxytx3-1" source="7XyNTqKr20Fp1Whxytx3-14" target="7XyNTqKr20Fp1Whxytx3-19" edge="1">
          <mxGeometry relative="1" as="geometry">
            <Array as="points">
              <mxPoint x="160" y="460" />
            </Array>
          </mxGeometry>
        </mxCell>
        <mxCell id="7XyNTqKr20Fp1Whxytx3-14" value="Mengisi Form Yang Sesuai Dengan Data Transaksi" style="rounded=1;whiteSpace=wrap;html=1;" parent="7XyNTqKr20Fp1Whxytx3-1" vertex="1">
          <mxGeometry x="100" y="330" width="120" height="60" as="geometry" />
        </mxCell>
        <mxCell id="7XyNTqKr20Fp1Whxytx3-15" value="" style="edgeStyle=orthogonalEdgeStyle;rounded=0;orthogonalLoop=1;jettySize=auto;html=1;" parent="7XyNTqKr20Fp1Whxytx3-1" source="7XyNTqKr20Fp1Whxytx3-19" target="7XyNTqKr20Fp1Whxytx3-21" edge="1">
          <mxGeometry relative="1" as="geometry" />
        </mxCell>
        <mxCell id="7XyNTqKr20Fp1Whxytx3-16" value="Ya" style="edgeLabel;html=1;align=center;verticalAlign=middle;resizable=0;points=[];" parent="7XyNTqKr20Fp1Whxytx3-15" vertex="1" connectable="0">
          <mxGeometry x="-0.55" y="-2" relative="1" as="geometry">
            <mxPoint as="offset" />
          </mxGeometry>
        </mxCell>
        <mxCell id="7XyNTqKr20Fp1Whxytx3-17" value="" style="edgeStyle=orthogonalEdgeStyle;rounded=0;orthogonalLoop=1;jettySize=auto;html=1;" parent="7XyNTqKr20Fp1Whxytx3-1" source="7XyNTqKr20Fp1Whxytx3-19" target="7XyNTqKr20Fp1Whxytx3-25" edge="1">
          <mxGeometry relative="1" as="geometry" />
        </mxCell>
        <mxCell id="7XyNTqKr20Fp1Whxytx3-18" value="Tidak" style="edgeLabel;html=1;align=center;verticalAlign=middle;resizable=0;points=[];" parent="7XyNTqKr20Fp1Whxytx3-17" vertex="1" connectable="0">
          <mxGeometry x="0.32" y="2" relative="1" as="geometry">
            <mxPoint as="offset" />
          </mxGeometry>
        </mxCell>
        <mxCell id="7XyNTqKr20Fp1Whxytx3-19" value="" style="rhombus;whiteSpace=wrap;html=1;rounded=1;" parent="7XyNTqKr20Fp1Whxytx3-1" vertex="1">
          <mxGeometry x="320" y="420" width="80" height="80" as="geometry" />
        </mxCell>
        <mxCell id="7XyNTqKr20Fp1Whxytx3-20" value="" style="edgeStyle=orthogonalEdgeStyle;rounded=0;orthogonalLoop=1;jettySize=auto;html=1;" parent="7XyNTqKr20Fp1Whxytx3-1" source="7XyNTqKr20Fp1Whxytx3-21" target="7XyNTqKr20Fp1Whxytx3-23" edge="1">
          <mxGeometry relative="1" as="geometry" />
        </mxCell>
        <mxCell id="7XyNTqKr20Fp1Whxytx3-21" value="Menampilkan Pesan Berhasil dan menyimpan ke database" style="whiteSpace=wrap;html=1;rounded=1;" parent="7XyNTqKr20Fp1Whxytx3-1" vertex="1">
          <mxGeometry x="300" y="540" width="120" height="60" as="geometry" />
        </mxCell>
        <mxCell id="7XyNTqKr20Fp1Whxytx3-22" style="edgeStyle=orthogonalEdgeStyle;rounded=0;orthogonalLoop=1;jettySize=auto;html=1;exitX=0.5;exitY=1;exitDx=0;exitDy=0;entryX=0.5;entryY=0;entryDx=0;entryDy=0;" parent="7XyNTqKr20Fp1Whxytx3-1" source="7XyNTqKr20Fp1Whxytx3-23" target="7XyNTqKr20Fp1Whxytx3-2" edge="1">
          <mxGeometry relative="1" as="geometry" />
        </mxCell>
        <mxCell id="7XyNTqKr20Fp1Whxytx3-23" value="Melihat Tabel Hisoty Transaksi Terbaru" style="whiteSpace=wrap;html=1;rounded=1;" parent="7XyNTqKr20Fp1Whxytx3-1" vertex="1">
          <mxGeometry x="100" y="540" width="120" height="60" as="geometry" />
        </mxCell>
        <mxCell id="7XyNTqKr20Fp1Whxytx3-24" style="edgeStyle=orthogonalEdgeStyle;rounded=0;orthogonalLoop=1;jettySize=auto;html=1;exitX=1;exitY=0.5;exitDx=0;exitDy=0;entryX=1;entryY=0.5;entryDx=0;entryDy=0;" parent="7XyNTqKr20Fp1Whxytx3-1" source="7XyNTqKr20Fp1Whxytx3-25" target="7XyNTqKr20Fp1Whxytx3-12" edge="1">
          <mxGeometry relative="1" as="geometry" />
        </mxCell>
        <mxCell id="7XyNTqKr20Fp1Whxytx3-25" value="Menampilkan Pesan Gagal Data Tidak Sesuai" style="whiteSpace=wrap;html=1;rounded=1;" parent="7XyNTqKr20Fp1Whxytx3-1" vertex="1">
          <mxGeometry x="300" y="330" width="120" height="60" as="geometry" />
        </mxCell>
        <mxCell id="P0NVg-AFx5gJcEFrSALk-0" value="User" style="swimlane;whiteSpace=wrap;html=1;" parent="7XyNTqKr20Fp1Whxytx3-1" vertex="1">
          <mxGeometry x="60" y="10" width="200" height="700" as="geometry" />
        </mxCell>
        <mxCell id="P0NVg-AFx5gJcEFrSALk-1" value="Sistem" style="swimlane;whiteSpace=wrap;html=1;" parent="7XyNTqKr20Fp1Whxytx3-1" vertex="1">
          <mxGeometry x="260" y="10" width="200" height="700" as="geometry" />
        </mxCell>
      </root>
    </mxGraphModel>
  </diagram>
  <diagram name="Setor Distribusi" id="W51A80VOifoobdAz13sm">
    <mxGraphModel dx="1426" dy="849" grid="1" gridSize="10" guides="1" tooltips="1" connect="1" arrows="1" fold="1" page="1" pageScale="1" pageWidth="850" pageHeight="1100" math="0" shadow="0">
      <root>
        <mxCell id="E9EJOta10MLiXdesGLVS-0" />
        <mxCell id="E9EJOta10MLiXdesGLVS-1" parent="E9EJOta10MLiXdesGLVS-0" />
        <mxCell id="E9EJOta10MLiXdesGLVS-2" value="" style="ellipse;html=1;shape=endState;fillColor=#000000;strokeColor=#ff0000;" parent="E9EJOta10MLiXdesGLVS-1" vertex="1">
          <mxGeometry x="140" y="640" width="40" height="40" as="geometry" />
        </mxCell>
        <mxCell id="E9EJOta10MLiXdesGLVS-3" style="edgeStyle=orthogonalEdgeStyle;rounded=0;orthogonalLoop=1;jettySize=auto;html=1;exitX=0.5;exitY=1;exitDx=0;exitDy=0;entryX=0.5;entryY=0;entryDx=0;entryDy=0;" parent="E9EJOta10MLiXdesGLVS-1" source="E9EJOta10MLiXdesGLVS-4" target="E9EJOta10MLiXdesGLVS-6" edge="1">
          <mxGeometry relative="1" as="geometry" />
        </mxCell>
        <mxCell id="E9EJOta10MLiXdesGLVS-4" value="" style="ellipse;whiteSpace=wrap;html=1;aspect=fixed;fillColor=light-dark(#1a1919, #ededed);" parent="E9EJOta10MLiXdesGLVS-1" vertex="1">
          <mxGeometry x="140" y="60" width="40" height="40" as="geometry" />
        </mxCell>
        <mxCell id="E9EJOta10MLiXdesGLVS-5" value="" style="edgeStyle=orthogonalEdgeStyle;rounded=0;orthogonalLoop=1;jettySize=auto;html=1;" parent="E9EJOta10MLiXdesGLVS-1" source="E9EJOta10MLiXdesGLVS-6" target="E9EJOta10MLiXdesGLVS-8" edge="1">
          <mxGeometry relative="1" as="geometry" />
        </mxCell>
        <mxCell id="E9EJOta10MLiXdesGLVS-6" value="Membuka Menu Stor Barang Distribusi" style="rounded=1;whiteSpace=wrap;html=1;" parent="E9EJOta10MLiXdesGLVS-1" vertex="1">
          <mxGeometry x="100" y="140" width="120" height="60" as="geometry" />
        </mxCell>
        <mxCell id="E9EJOta10MLiXdesGLVS-7" value="" style="edgeStyle=orthogonalEdgeStyle;rounded=0;orthogonalLoop=1;jettySize=auto;html=1;" parent="E9EJOta10MLiXdesGLVS-1" source="E9EJOta10MLiXdesGLVS-8" target="E9EJOta10MLiXdesGLVS-10" edge="1">
          <mxGeometry relative="1" as="geometry">
            <Array as="points">
              <mxPoint x="360" y="220" />
              <mxPoint x="160" y="220" />
            </Array>
          </mxGeometry>
        </mxCell>
        <mxCell id="E9EJOta10MLiXdesGLVS-8" value="Menampilkan Tabel Distribusi Barang" style="rounded=1;whiteSpace=wrap;html=1;" parent="E9EJOta10MLiXdesGLVS-1" vertex="1">
          <mxGeometry x="300" y="140" width="120" height="60" as="geometry" />
        </mxCell>
        <mxCell id="E9EJOta10MLiXdesGLVS-9" value="" style="edgeStyle=orthogonalEdgeStyle;rounded=0;orthogonalLoop=1;jettySize=auto;html=1;" parent="E9EJOta10MLiXdesGLVS-1" source="E9EJOta10MLiXdesGLVS-10" target="E9EJOta10MLiXdesGLVS-12" edge="1">
          <mxGeometry relative="1" as="geometry" />
        </mxCell>
        <mxCell id="E9EJOta10MLiXdesGLVS-10" value="Memilih Tombol Buat Distribusi Baru" style="rounded=1;whiteSpace=wrap;html=1;" parent="E9EJOta10MLiXdesGLVS-1" vertex="1">
          <mxGeometry x="100" y="240" width="120" height="60" as="geometry" />
        </mxCell>
        <mxCell id="E9EJOta10MLiXdesGLVS-11" value="" style="edgeStyle=orthogonalEdgeStyle;rounded=0;orthogonalLoop=1;jettySize=auto;html=1;" parent="E9EJOta10MLiXdesGLVS-1" source="E9EJOta10MLiXdesGLVS-12" target="E9EJOta10MLiXdesGLVS-14" edge="1">
          <mxGeometry relative="1" as="geometry">
            <Array as="points">
              <mxPoint x="360" y="310" />
              <mxPoint x="160" y="310" />
            </Array>
          </mxGeometry>
        </mxCell>
        <mxCell id="E9EJOta10MLiXdesGLVS-12" value="Menampilkan Form Untuk Menginput Ditribusi Baru" style="rounded=1;whiteSpace=wrap;html=1;" parent="E9EJOta10MLiXdesGLVS-1" vertex="1">
          <mxGeometry x="300" y="240" width="120" height="60" as="geometry" />
        </mxCell>
        <mxCell id="E9EJOta10MLiXdesGLVS-13" value="" style="edgeStyle=orthogonalEdgeStyle;rounded=0;orthogonalLoop=1;jettySize=auto;html=1;" parent="E9EJOta10MLiXdesGLVS-1" source="E9EJOta10MLiXdesGLVS-14" target="E9EJOta10MLiXdesGLVS-19" edge="1">
          <mxGeometry relative="1" as="geometry">
            <Array as="points">
              <mxPoint x="160" y="460" />
            </Array>
          </mxGeometry>
        </mxCell>
        <mxCell id="E9EJOta10MLiXdesGLVS-14" value="Mengisi Form Sesuai Dengan Data Distribusi" style="rounded=1;whiteSpace=wrap;html=1;" parent="E9EJOta10MLiXdesGLVS-1" vertex="1">
          <mxGeometry x="100" y="330" width="120" height="60" as="geometry" />
        </mxCell>
        <mxCell id="E9EJOta10MLiXdesGLVS-15" value="" style="edgeStyle=orthogonalEdgeStyle;rounded=0;orthogonalLoop=1;jettySize=auto;html=1;" parent="E9EJOta10MLiXdesGLVS-1" source="E9EJOta10MLiXdesGLVS-19" target="E9EJOta10MLiXdesGLVS-21" edge="1">
          <mxGeometry relative="1" as="geometry" />
        </mxCell>
        <mxCell id="E9EJOta10MLiXdesGLVS-16" value="Ya" style="edgeLabel;html=1;align=center;verticalAlign=middle;resizable=0;points=[];" parent="E9EJOta10MLiXdesGLVS-15" vertex="1" connectable="0">
          <mxGeometry x="-0.55" y="-2" relative="1" as="geometry">
            <mxPoint as="offset" />
          </mxGeometry>
        </mxCell>
        <mxCell id="E9EJOta10MLiXdesGLVS-17" value="" style="edgeStyle=orthogonalEdgeStyle;rounded=0;orthogonalLoop=1;jettySize=auto;html=1;" parent="E9EJOta10MLiXdesGLVS-1" source="E9EJOta10MLiXdesGLVS-19" target="E9EJOta10MLiXdesGLVS-25" edge="1">
          <mxGeometry relative="1" as="geometry" />
        </mxCell>
        <mxCell id="E9EJOta10MLiXdesGLVS-18" value="Tidak" style="edgeLabel;html=1;align=center;verticalAlign=middle;resizable=0;points=[];" parent="E9EJOta10MLiXdesGLVS-17" vertex="1" connectable="0">
          <mxGeometry x="0.32" y="2" relative="1" as="geometry">
            <mxPoint as="offset" />
          </mxGeometry>
        </mxCell>
        <mxCell id="E9EJOta10MLiXdesGLVS-19" value="" style="rhombus;whiteSpace=wrap;html=1;rounded=1;" parent="E9EJOta10MLiXdesGLVS-1" vertex="1">
          <mxGeometry x="320" y="420" width="80" height="80" as="geometry" />
        </mxCell>
        <mxCell id="E9EJOta10MLiXdesGLVS-20" value="" style="edgeStyle=orthogonalEdgeStyle;rounded=0;orthogonalLoop=1;jettySize=auto;html=1;" parent="E9EJOta10MLiXdesGLVS-1" source="E9EJOta10MLiXdesGLVS-21" target="E9EJOta10MLiXdesGLVS-23" edge="1">
          <mxGeometry relative="1" as="geometry" />
        </mxCell>
        <mxCell id="E9EJOta10MLiXdesGLVS-21" value="Menampilkan Pesan Berhasil dan menyimpan ke database" style="whiteSpace=wrap;html=1;rounded=1;" parent="E9EJOta10MLiXdesGLVS-1" vertex="1">
          <mxGeometry x="300" y="540" width="120" height="60" as="geometry" />
        </mxCell>
        <mxCell id="E9EJOta10MLiXdesGLVS-22" style="edgeStyle=orthogonalEdgeStyle;rounded=0;orthogonalLoop=1;jettySize=auto;html=1;exitX=0.5;exitY=1;exitDx=0;exitDy=0;entryX=0.5;entryY=0;entryDx=0;entryDy=0;" parent="E9EJOta10MLiXdesGLVS-1" source="E9EJOta10MLiXdesGLVS-23" target="E9EJOta10MLiXdesGLVS-2" edge="1">
          <mxGeometry relative="1" as="geometry" />
        </mxCell>
        <mxCell id="E9EJOta10MLiXdesGLVS-23" value="Menamilkan Tabel Distribusi Terbaru" style="whiteSpace=wrap;html=1;rounded=1;" parent="E9EJOta10MLiXdesGLVS-1" vertex="1">
          <mxGeometry x="100" y="540" width="120" height="60" as="geometry" />
        </mxCell>
        <mxCell id="E9EJOta10MLiXdesGLVS-24" style="edgeStyle=orthogonalEdgeStyle;rounded=0;orthogonalLoop=1;jettySize=auto;html=1;exitX=1;exitY=0.5;exitDx=0;exitDy=0;entryX=1;entryY=0.5;entryDx=0;entryDy=0;" parent="E9EJOta10MLiXdesGLVS-1" source="E9EJOta10MLiXdesGLVS-25" target="E9EJOta10MLiXdesGLVS-12" edge="1">
          <mxGeometry relative="1" as="geometry" />
        </mxCell>
        <mxCell id="E9EJOta10MLiXdesGLVS-25" value="Menampilkan Pesan Gagal Data Tidak Sesuai" style="whiteSpace=wrap;html=1;rounded=1;" parent="E9EJOta10MLiXdesGLVS-1" vertex="1">
          <mxGeometry x="300" y="330" width="120" height="60" as="geometry" />
        </mxCell>
        <mxCell id="rHXxQ3zzfekm2_rvX6Lt-0" value="User" style="swimlane;whiteSpace=wrap;html=1;" parent="E9EJOta10MLiXdesGLVS-1" vertex="1">
          <mxGeometry x="60" y="20" width="200" height="680" as="geometry" />
        </mxCell>
        <mxCell id="rHXxQ3zzfekm2_rvX6Lt-1" value="Sistem" style="swimlane;whiteSpace=wrap;html=1;" parent="E9EJOta10MLiXdesGLVS-1" vertex="1">
          <mxGeometry x="260" y="20" width="200" height="680" as="geometry" />
        </mxCell>
      </root>
    </mxGraphModel>
  </diagram>
  <diagram name="Kelola Distribusi" id="PfO_q694yuJ8-vcItdZ7">
    <mxGraphModel dx="872" dy="537" grid="1" gridSize="10" guides="1" tooltips="1" connect="1" arrows="1" fold="1" page="1" pageScale="1" pageWidth="850" pageHeight="1100" math="0" shadow="0">
      <root>
        <mxCell id="DNqGXq1acABet32f4Oqc-0" />
        <mxCell id="DNqGXq1acABet32f4Oqc-1" parent="DNqGXq1acABet32f4Oqc-0" />
        <mxCell id="DNqGXq1acABet32f4Oqc-2" value="" style="ellipse;html=1;shape=endState;fillColor=#000000;strokeColor=#ff0000;" parent="DNqGXq1acABet32f4Oqc-1" vertex="1">
          <mxGeometry x="140" y="640" width="40" height="40" as="geometry" />
        </mxCell>
        <mxCell id="DNqGXq1acABet32f4Oqc-3" style="edgeStyle=orthogonalEdgeStyle;rounded=0;orthogonalLoop=1;jettySize=auto;html=1;exitX=0.5;exitY=1;exitDx=0;exitDy=0;entryX=0.5;entryY=0;entryDx=0;entryDy=0;" parent="DNqGXq1acABet32f4Oqc-1" source="DNqGXq1acABet32f4Oqc-4" target="DNqGXq1acABet32f4Oqc-6" edge="1">
          <mxGeometry relative="1" as="geometry" />
        </mxCell>
        <mxCell id="DNqGXq1acABet32f4Oqc-4" value="" style="ellipse;whiteSpace=wrap;html=1;aspect=fixed;fillColor=light-dark(#1a1919, #ededed);" parent="DNqGXq1acABet32f4Oqc-1" vertex="1">
          <mxGeometry x="140" y="60" width="40" height="40" as="geometry" />
        </mxCell>
        <mxCell id="DNqGXq1acABet32f4Oqc-5" value="" style="edgeStyle=orthogonalEdgeStyle;rounded=0;orthogonalLoop=1;jettySize=auto;html=1;" parent="DNqGXq1acABet32f4Oqc-1" source="DNqGXq1acABet32f4Oqc-6" target="DNqGXq1acABet32f4Oqc-8" edge="1">
          <mxGeometry relative="1" as="geometry" />
        </mxCell>
        <mxCell id="DNqGXq1acABet32f4Oqc-6" value="Membuka Menu Kelola Distribusi" style="rounded=1;whiteSpace=wrap;html=1;" parent="DNqGXq1acABet32f4Oqc-1" vertex="1">
          <mxGeometry x="100" y="140" width="120" height="60" as="geometry" />
        </mxCell>
        <mxCell id="DNqGXq1acABet32f4Oqc-7" value="" style="edgeStyle=orthogonalEdgeStyle;rounded=0;orthogonalLoop=1;jettySize=auto;html=1;" parent="DNqGXq1acABet32f4Oqc-1" source="DNqGXq1acABet32f4Oqc-8" target="DNqGXq1acABet32f4Oqc-10" edge="1">
          <mxGeometry relative="1" as="geometry">
            <Array as="points">
              <mxPoint x="360" y="220" />
              <mxPoint x="160" y="220" />
            </Array>
          </mxGeometry>
        </mxCell>
        <mxCell id="DNqGXq1acABet32f4Oqc-8" value="Menampilkan Tabel List Distribusi Barang" style="rounded=1;whiteSpace=wrap;html=1;" parent="DNqGXq1acABet32f4Oqc-1" vertex="1">
          <mxGeometry x="300" y="140" width="120" height="60" as="geometry" />
        </mxCell>
        <mxCell id="DNqGXq1acABet32f4Oqc-9" value="" style="edgeStyle=orthogonalEdgeStyle;rounded=0;orthogonalLoop=1;jettySize=auto;html=1;" parent="DNqGXq1acABet32f4Oqc-1" source="DNqGXq1acABet32f4Oqc-10" target="DNqGXq1acABet32f4Oqc-12" edge="1">
          <mxGeometry relative="1" as="geometry" />
        </mxCell>
        <mxCell id="DNqGXq1acABet32f4Oqc-10" value="Memilih Opsi Buat Atau Ubah" style="rounded=1;whiteSpace=wrap;html=1;" parent="DNqGXq1acABet32f4Oqc-1" vertex="1">
          <mxGeometry x="100" y="240" width="120" height="60" as="geometry" />
        </mxCell>
        <mxCell id="DNqGXq1acABet32f4Oqc-11" value="" style="edgeStyle=orthogonalEdgeStyle;rounded=0;orthogonalLoop=1;jettySize=auto;html=1;" parent="DNqGXq1acABet32f4Oqc-1" source="DNqGXq1acABet32f4Oqc-12" target="DNqGXq1acABet32f4Oqc-14" edge="1">
          <mxGeometry relative="1" as="geometry">
            <Array as="points">
              <mxPoint x="360" y="310" />
              <mxPoint x="160" y="310" />
            </Array>
          </mxGeometry>
        </mxCell>
        <mxCell id="DNqGXq1acABet32f4Oqc-12" value="Menampilkan Form Sesuai Dengan Opsi Yang Dipilih" style="rounded=1;whiteSpace=wrap;html=1;" parent="DNqGXq1acABet32f4Oqc-1" vertex="1">
          <mxGeometry x="300" y="240" width="120" height="60" as="geometry" />
        </mxCell>
        <mxCell id="DNqGXq1acABet32f4Oqc-13" value="" style="edgeStyle=orthogonalEdgeStyle;rounded=0;orthogonalLoop=1;jettySize=auto;html=1;" parent="DNqGXq1acABet32f4Oqc-1" source="DNqGXq1acABet32f4Oqc-14" target="DNqGXq1acABet32f4Oqc-19" edge="1">
          <mxGeometry relative="1" as="geometry">
            <Array as="points">
              <mxPoint x="160" y="460" />
            </Array>
          </mxGeometry>
        </mxCell>
        <mxCell id="DNqGXq1acABet32f4Oqc-14" value="Mengisi Form Sesuai Dengan Opsi yang Dipilih" style="rounded=1;whiteSpace=wrap;html=1;" parent="DNqGXq1acABet32f4Oqc-1" vertex="1">
          <mxGeometry x="100" y="330" width="120" height="60" as="geometry" />
        </mxCell>
        <mxCell id="DNqGXq1acABet32f4Oqc-15" value="" style="edgeStyle=orthogonalEdgeStyle;rounded=0;orthogonalLoop=1;jettySize=auto;html=1;" parent="DNqGXq1acABet32f4Oqc-1" source="DNqGXq1acABet32f4Oqc-19" target="DNqGXq1acABet32f4Oqc-21" edge="1">
          <mxGeometry relative="1" as="geometry" />
        </mxCell>
        <mxCell id="DNqGXq1acABet32f4Oqc-16" value="Ya" style="edgeLabel;html=1;align=center;verticalAlign=middle;resizable=0;points=[];" parent="DNqGXq1acABet32f4Oqc-15" vertex="1" connectable="0">
          <mxGeometry x="-0.55" y="-2" relative="1" as="geometry">
            <mxPoint as="offset" />
          </mxGeometry>
        </mxCell>
        <mxCell id="DNqGXq1acABet32f4Oqc-17" value="" style="edgeStyle=orthogonalEdgeStyle;rounded=0;orthogonalLoop=1;jettySize=auto;html=1;" parent="DNqGXq1acABet32f4Oqc-1" source="DNqGXq1acABet32f4Oqc-19" target="DNqGXq1acABet32f4Oqc-25" edge="1">
          <mxGeometry relative="1" as="geometry" />
        </mxCell>
        <mxCell id="DNqGXq1acABet32f4Oqc-18" value="Tidak" style="edgeLabel;html=1;align=center;verticalAlign=middle;resizable=0;points=[];" parent="DNqGXq1acABet32f4Oqc-17" vertex="1" connectable="0">
          <mxGeometry x="0.32" y="2" relative="1" as="geometry">
            <mxPoint as="offset" />
          </mxGeometry>
        </mxCell>
        <mxCell id="DNqGXq1acABet32f4Oqc-19" value="" style="rhombus;whiteSpace=wrap;html=1;rounded=1;" parent="DNqGXq1acABet32f4Oqc-1" vertex="1">
          <mxGeometry x="320" y="420" width="80" height="80" as="geometry" />
        </mxCell>
        <mxCell id="DNqGXq1acABet32f4Oqc-20" value="" style="edgeStyle=orthogonalEdgeStyle;rounded=0;orthogonalLoop=1;jettySize=auto;html=1;" parent="DNqGXq1acABet32f4Oqc-1" source="DNqGXq1acABet32f4Oqc-21" target="DNqGXq1acABet32f4Oqc-23" edge="1">
          <mxGeometry relative="1" as="geometry" />
        </mxCell>
        <mxCell id="DNqGXq1acABet32f4Oqc-21" value="Menampilkan Pesan Berhasil dan menyimpan ke database" style="whiteSpace=wrap;html=1;rounded=1;" parent="DNqGXq1acABet32f4Oqc-1" vertex="1">
          <mxGeometry x="300" y="540" width="120" height="60" as="geometry" />
        </mxCell>
        <mxCell id="DNqGXq1acABet32f4Oqc-22" style="edgeStyle=orthogonalEdgeStyle;rounded=0;orthogonalLoop=1;jettySize=auto;html=1;exitX=0.5;exitY=1;exitDx=0;exitDy=0;entryX=0.5;entryY=0;entryDx=0;entryDy=0;" parent="DNqGXq1acABet32f4Oqc-1" source="DNqGXq1acABet32f4Oqc-23" target="DNqGXq1acABet32f4Oqc-2" edge="1">
          <mxGeometry relative="1" as="geometry" />
        </mxCell>
        <mxCell id="DNqGXq1acABet32f4Oqc-23" value="Menampilkan List Distribusi Terbaru" style="whiteSpace=wrap;html=1;rounded=1;" parent="DNqGXq1acABet32f4Oqc-1" vertex="1">
          <mxGeometry x="100" y="540" width="120" height="60" as="geometry" />
        </mxCell>
        <mxCell id="DNqGXq1acABet32f4Oqc-24" style="edgeStyle=orthogonalEdgeStyle;rounded=0;orthogonalLoop=1;jettySize=auto;html=1;exitX=1;exitY=0.5;exitDx=0;exitDy=0;entryX=1;entryY=0.5;entryDx=0;entryDy=0;" parent="DNqGXq1acABet32f4Oqc-1" source="DNqGXq1acABet32f4Oqc-25" target="DNqGXq1acABet32f4Oqc-12" edge="1">
          <mxGeometry relative="1" as="geometry" />
        </mxCell>
        <mxCell id="DNqGXq1acABet32f4Oqc-25" value="Menampilkan Pesan Gagal Data Tidak Sesuai" style="whiteSpace=wrap;html=1;rounded=1;" parent="DNqGXq1acABet32f4Oqc-1" vertex="1">
          <mxGeometry x="300" y="330" width="120" height="60" as="geometry" />
        </mxCell>
        <mxCell id="TAhcYru9nFQnyI3F_DPN-0" value="User" style="swimlane;whiteSpace=wrap;html=1;" vertex="1" parent="DNqGXq1acABet32f4Oqc-1">
          <mxGeometry x="60" y="20" width="200" height="680" as="geometry" />
        </mxCell>
        <mxCell id="TAhcYru9nFQnyI3F_DPN-1" value="Sistem" style="swimlane;whiteSpace=wrap;html=1;" vertex="1" parent="DNqGXq1acABet32f4Oqc-1">
          <mxGeometry x="260" y="20" width="200" height="680" as="geometry" />
        </mxCell>
      </root>
    </mxGraphModel>
  </diagram>
  <diagram name="Kelola Kategori" id="OE2K5716JKWy_UvUlMxN">
    <mxGraphModel dx="1426" dy="849" grid="1" gridSize="10" guides="1" tooltips="1" connect="1" arrows="1" fold="1" page="1" pageScale="1" pageWidth="850" pageHeight="1100" math="0" shadow="0">
      <root>
        <mxCell id="xu86UVy47dPTFzFnoK9Q-0" />
        <mxCell id="xu86UVy47dPTFzFnoK9Q-1" parent="xu86UVy47dPTFzFnoK9Q-0" />
        <mxCell id="xu86UVy47dPTFzFnoK9Q-2" value="" style="ellipse;html=1;shape=endState;fillColor=#000000;strokeColor=#ff0000;" parent="xu86UVy47dPTFzFnoK9Q-1" vertex="1">
          <mxGeometry x="140" y="640" width="40" height="40" as="geometry" />
        </mxCell>
        <mxCell id="xu86UVy47dPTFzFnoK9Q-3" style="edgeStyle=orthogonalEdgeStyle;rounded=0;orthogonalLoop=1;jettySize=auto;html=1;exitX=0.5;exitY=1;exitDx=0;exitDy=0;entryX=0.5;entryY=0;entryDx=0;entryDy=0;" parent="xu86UVy47dPTFzFnoK9Q-1" source="xu86UVy47dPTFzFnoK9Q-4" target="xu86UVy47dPTFzFnoK9Q-6" edge="1">
          <mxGeometry relative="1" as="geometry" />
        </mxCell>
        <mxCell id="xu86UVy47dPTFzFnoK9Q-4" value="" style="ellipse;whiteSpace=wrap;html=1;aspect=fixed;fillColor=light-dark(#1a1919, #ededed);" parent="xu86UVy47dPTFzFnoK9Q-1" vertex="1">
          <mxGeometry x="140" y="60" width="40" height="40" as="geometry" />
        </mxCell>
        <mxCell id="xu86UVy47dPTFzFnoK9Q-5" value="" style="edgeStyle=orthogonalEdgeStyle;rounded=0;orthogonalLoop=1;jettySize=auto;html=1;" parent="xu86UVy47dPTFzFnoK9Q-1" source="xu86UVy47dPTFzFnoK9Q-6" target="xu86UVy47dPTFzFnoK9Q-8" edge="1">
          <mxGeometry relative="1" as="geometry" />
        </mxCell>
        <mxCell id="xu86UVy47dPTFzFnoK9Q-6" value="Membuka Menu Kelola Kategori" style="rounded=1;whiteSpace=wrap;html=1;" parent="xu86UVy47dPTFzFnoK9Q-1" vertex="1">
          <mxGeometry x="100" y="140" width="120" height="60" as="geometry" />
        </mxCell>
        <mxCell id="xu86UVy47dPTFzFnoK9Q-7" value="" style="edgeStyle=orthogonalEdgeStyle;rounded=0;orthogonalLoop=1;jettySize=auto;html=1;" parent="xu86UVy47dPTFzFnoK9Q-1" source="xu86UVy47dPTFzFnoK9Q-8" target="xu86UVy47dPTFzFnoK9Q-10" edge="1">
          <mxGeometry relative="1" as="geometry">
            <Array as="points">
              <mxPoint x="360" y="220" />
              <mxPoint x="160" y="220" />
            </Array>
          </mxGeometry>
        </mxCell>
        <mxCell id="xu86UVy47dPTFzFnoK9Q-8" value="Menampilkan Tabel List Kategori" style="rounded=1;whiteSpace=wrap;html=1;" parent="xu86UVy47dPTFzFnoK9Q-1" vertex="1">
          <mxGeometry x="300" y="140" width="120" height="60" as="geometry" />
        </mxCell>
        <mxCell id="xu86UVy47dPTFzFnoK9Q-9" value="" style="edgeStyle=orthogonalEdgeStyle;rounded=0;orthogonalLoop=1;jettySize=auto;html=1;" parent="xu86UVy47dPTFzFnoK9Q-1" source="xu86UVy47dPTFzFnoK9Q-10" target="xu86UVy47dPTFzFnoK9Q-12" edge="1">
          <mxGeometry relative="1" as="geometry" />
        </mxCell>
        <mxCell id="xu86UVy47dPTFzFnoK9Q-10" value="Memilih Buat, Edit, Hapus Kategori" style="rounded=1;whiteSpace=wrap;html=1;" parent="xu86UVy47dPTFzFnoK9Q-1" vertex="1">
          <mxGeometry x="100" y="240" width="120" height="60" as="geometry" />
        </mxCell>
        <mxCell id="xu86UVy47dPTFzFnoK9Q-11" value="" style="edgeStyle=orthogonalEdgeStyle;rounded=0;orthogonalLoop=1;jettySize=auto;html=1;" parent="xu86UVy47dPTFzFnoK9Q-1" source="xu86UVy47dPTFzFnoK9Q-12" target="xu86UVy47dPTFzFnoK9Q-14" edge="1">
          <mxGeometry relative="1" as="geometry">
            <Array as="points">
              <mxPoint x="360" y="310" />
              <mxPoint x="160" y="310" />
            </Array>
          </mxGeometry>
        </mxCell>
        <mxCell id="xu86UVy47dPTFzFnoK9Q-12" value="Menampilkan Form Sesuai Dengan Opsi Yang Dipilih" style="rounded=1;whiteSpace=wrap;html=1;" parent="xu86UVy47dPTFzFnoK9Q-1" vertex="1">
          <mxGeometry x="300" y="240" width="120" height="60" as="geometry" />
        </mxCell>
        <mxCell id="xu86UVy47dPTFzFnoK9Q-13" value="" style="edgeStyle=orthogonalEdgeStyle;rounded=0;orthogonalLoop=1;jettySize=auto;html=1;" parent="xu86UVy47dPTFzFnoK9Q-1" source="xu86UVy47dPTFzFnoK9Q-14" target="xu86UVy47dPTFzFnoK9Q-19" edge="1">
          <mxGeometry relative="1" as="geometry">
            <Array as="points">
              <mxPoint x="160" y="460" />
            </Array>
          </mxGeometry>
        </mxCell>
        <mxCell id="xu86UVy47dPTFzFnoK9Q-14" value="Mengisi Form Sesuai Dengan Opsi yang Dipilih" style="rounded=1;whiteSpace=wrap;html=1;" parent="xu86UVy47dPTFzFnoK9Q-1" vertex="1">
          <mxGeometry x="100" y="330" width="120" height="60" as="geometry" />
        </mxCell>
        <mxCell id="xu86UVy47dPTFzFnoK9Q-15" value="" style="edgeStyle=orthogonalEdgeStyle;rounded=0;orthogonalLoop=1;jettySize=auto;html=1;" parent="xu86UVy47dPTFzFnoK9Q-1" source="xu86UVy47dPTFzFnoK9Q-19" target="xu86UVy47dPTFzFnoK9Q-21" edge="1">
          <mxGeometry relative="1" as="geometry" />
        </mxCell>
        <mxCell id="xu86UVy47dPTFzFnoK9Q-16" value="Ya" style="edgeLabel;html=1;align=center;verticalAlign=middle;resizable=0;points=[];" parent="xu86UVy47dPTFzFnoK9Q-15" vertex="1" connectable="0">
          <mxGeometry x="-0.55" y="-2" relative="1" as="geometry">
            <mxPoint as="offset" />
          </mxGeometry>
        </mxCell>
        <mxCell id="xu86UVy47dPTFzFnoK9Q-17" value="" style="edgeStyle=orthogonalEdgeStyle;rounded=0;orthogonalLoop=1;jettySize=auto;html=1;" parent="xu86UVy47dPTFzFnoK9Q-1" source="xu86UVy47dPTFzFnoK9Q-19" target="xu86UVy47dPTFzFnoK9Q-25" edge="1">
          <mxGeometry relative="1" as="geometry" />
        </mxCell>
        <mxCell id="xu86UVy47dPTFzFnoK9Q-18" value="Tidak" style="edgeLabel;html=1;align=center;verticalAlign=middle;resizable=0;points=[];" parent="xu86UVy47dPTFzFnoK9Q-17" vertex="1" connectable="0">
          <mxGeometry x="0.32" y="2" relative="1" as="geometry">
            <mxPoint as="offset" />
          </mxGeometry>
        </mxCell>
        <mxCell id="xu86UVy47dPTFzFnoK9Q-19" value="" style="rhombus;whiteSpace=wrap;html=1;rounded=1;" parent="xu86UVy47dPTFzFnoK9Q-1" vertex="1">
          <mxGeometry x="320" y="420" width="80" height="80" as="geometry" />
        </mxCell>
        <mxCell id="xu86UVy47dPTFzFnoK9Q-20" value="" style="edgeStyle=orthogonalEdgeStyle;rounded=0;orthogonalLoop=1;jettySize=auto;html=1;" parent="xu86UVy47dPTFzFnoK9Q-1" source="xu86UVy47dPTFzFnoK9Q-21" target="xu86UVy47dPTFzFnoK9Q-23" edge="1">
          <mxGeometry relative="1" as="geometry" />
        </mxCell>
        <mxCell id="xu86UVy47dPTFzFnoK9Q-21" value="Menampilkan Pesan Berhasil dan menyimpan ke database" style="whiteSpace=wrap;html=1;rounded=1;" parent="xu86UVy47dPTFzFnoK9Q-1" vertex="1">
          <mxGeometry x="300" y="540" width="120" height="60" as="geometry" />
        </mxCell>
        <mxCell id="xu86UVy47dPTFzFnoK9Q-22" style="edgeStyle=orthogonalEdgeStyle;rounded=0;orthogonalLoop=1;jettySize=auto;html=1;exitX=0.5;exitY=1;exitDx=0;exitDy=0;entryX=0.5;entryY=0;entryDx=0;entryDy=0;" parent="xu86UVy47dPTFzFnoK9Q-1" source="xu86UVy47dPTFzFnoK9Q-23" target="xu86UVy47dPTFzFnoK9Q-2" edge="1">
          <mxGeometry relative="1" as="geometry" />
        </mxCell>
        <mxCell id="xu86UVy47dPTFzFnoK9Q-23" value="Menampilkan List Kategori Terbaru" style="whiteSpace=wrap;html=1;rounded=1;" parent="xu86UVy47dPTFzFnoK9Q-1" vertex="1">
          <mxGeometry x="100" y="540" width="120" height="60" as="geometry" />
        </mxCell>
        <mxCell id="xu86UVy47dPTFzFnoK9Q-24" style="edgeStyle=orthogonalEdgeStyle;rounded=0;orthogonalLoop=1;jettySize=auto;html=1;exitX=1;exitY=0.5;exitDx=0;exitDy=0;entryX=1;entryY=0.5;entryDx=0;entryDy=0;" parent="xu86UVy47dPTFzFnoK9Q-1" source="xu86UVy47dPTFzFnoK9Q-25" target="xu86UVy47dPTFzFnoK9Q-12" edge="1">
          <mxGeometry relative="1" as="geometry" />
        </mxCell>
        <mxCell id="xu86UVy47dPTFzFnoK9Q-25" value="Menampilkan Pesan Gagal Data Tidak Sesuai" style="whiteSpace=wrap;html=1;rounded=1;" parent="xu86UVy47dPTFzFnoK9Q-1" vertex="1">
          <mxGeometry x="300" y="330" width="120" height="60" as="geometry" />
        </mxCell>
        <mxCell id="rE4YVegQQiRFcOwHGdBT-0" value="User" style="swimlane;whiteSpace=wrap;html=1;" parent="xu86UVy47dPTFzFnoK9Q-1" vertex="1">
          <mxGeometry x="60" y="20" width="200" height="680" as="geometry" />
        </mxCell>
        <mxCell id="rE4YVegQQiRFcOwHGdBT-1" value="Sistem" style="swimlane;whiteSpace=wrap;html=1;" parent="xu86UVy47dPTFzFnoK9Q-1" vertex="1">
          <mxGeometry x="260" y="20" width="200" height="680" as="geometry" />
        </mxCell>
      </root>
    </mxGraphModel>
  </diagram>
  <diagram name="Laporan Keunagan - pemilik" id="c_u4RXt4asSKC_gcZT8I">
    <mxGraphModel dx="1426" dy="849" grid="1" gridSize="10" guides="1" tooltips="1" connect="1" arrows="1" fold="1" page="1" pageScale="1" pageWidth="850" pageHeight="1100" math="0" shadow="0">
      <root>
        <mxCell id="aYTpTJbrAlLZizFDjOiO-0" />
        <mxCell id="aYTpTJbrAlLZizFDjOiO-1" parent="aYTpTJbrAlLZizFDjOiO-0" />
        <mxCell id="aYTpTJbrAlLZizFDjOiO-2" value="" style="ellipse;html=1;shape=endState;fillColor=#000000;strokeColor=#ff0000;" parent="aYTpTJbrAlLZizFDjOiO-1" vertex="1">
          <mxGeometry x="140" y="640" width="40" height="40" as="geometry" />
        </mxCell>
        <mxCell id="aYTpTJbrAlLZizFDjOiO-3" style="edgeStyle=orthogonalEdgeStyle;rounded=0;orthogonalLoop=1;jettySize=auto;html=1;exitX=0.5;exitY=1;exitDx=0;exitDy=0;entryX=0.5;entryY=0;entryDx=0;entryDy=0;" parent="aYTpTJbrAlLZizFDjOiO-1" source="aYTpTJbrAlLZizFDjOiO-4" target="aYTpTJbrAlLZizFDjOiO-6" edge="1">
          <mxGeometry relative="1" as="geometry" />
        </mxCell>
        <mxCell id="aYTpTJbrAlLZizFDjOiO-4" value="" style="ellipse;whiteSpace=wrap;html=1;aspect=fixed;fillColor=light-dark(#1a1919, #ededed);" parent="aYTpTJbrAlLZizFDjOiO-1" vertex="1">
          <mxGeometry x="140" y="60" width="40" height="40" as="geometry" />
        </mxCell>
        <mxCell id="aYTpTJbrAlLZizFDjOiO-5" value="" style="edgeStyle=orthogonalEdgeStyle;rounded=0;orthogonalLoop=1;jettySize=auto;html=1;" parent="aYTpTJbrAlLZizFDjOiO-1" source="aYTpTJbrAlLZizFDjOiO-6" target="aYTpTJbrAlLZizFDjOiO-8" edge="1">
          <mxGeometry relative="1" as="geometry" />
        </mxCell>
        <mxCell id="aYTpTJbrAlLZizFDjOiO-6" value="Membuka Menu Laporan Keuangan" style="rounded=1;whiteSpace=wrap;html=1;" parent="aYTpTJbrAlLZizFDjOiO-1" vertex="1">
          <mxGeometry x="100" y="140" width="120" height="60" as="geometry" />
        </mxCell>
        <mxCell id="aYTpTJbrAlLZizFDjOiO-7" value="" style="edgeStyle=orthogonalEdgeStyle;rounded=0;orthogonalLoop=1;jettySize=auto;html=1;" parent="aYTpTJbrAlLZizFDjOiO-1" source="aYTpTJbrAlLZizFDjOiO-8" target="aYTpTJbrAlLZizFDjOiO-10" edge="1">
          <mxGeometry relative="1" as="geometry">
            <Array as="points">
              <mxPoint x="360" y="220" />
              <mxPoint x="160" y="220" />
            </Array>
          </mxGeometry>
        </mxCell>
        <mxCell id="aYTpTJbrAlLZizFDjOiO-8" value="Menampilkan Halaman laporan Keuangan" style="rounded=1;whiteSpace=wrap;html=1;" parent="aYTpTJbrAlLZizFDjOiO-1" vertex="1">
          <mxGeometry x="300" y="140" width="120" height="60" as="geometry" />
        </mxCell>
        <mxCell id="aYTpTJbrAlLZizFDjOiO-9" value="" style="edgeStyle=orthogonalEdgeStyle;rounded=0;orthogonalLoop=1;jettySize=auto;html=1;" parent="aYTpTJbrAlLZizFDjOiO-1" source="aYTpTJbrAlLZizFDjOiO-10" target="aYTpTJbrAlLZizFDjOiO-12" edge="1">
          <mxGeometry relative="1" as="geometry" />
        </mxCell>
        <mxCell id="aYTpTJbrAlLZizFDjOiO-10" value="Memilih Opsi Harian, mingguan, bulanan, Tahunan" style="rounded=1;whiteSpace=wrap;html=1;" parent="aYTpTJbrAlLZizFDjOiO-1" vertex="1">
          <mxGeometry x="100" y="240" width="120" height="60" as="geometry" />
        </mxCell>
        <mxCell id="aYTpTJbrAlLZizFDjOiO-11" value="" style="edgeStyle=orthogonalEdgeStyle;rounded=0;orthogonalLoop=1;jettySize=auto;html=1;" parent="aYTpTJbrAlLZizFDjOiO-1" source="aYTpTJbrAlLZizFDjOiO-12" target="aYTpTJbrAlLZizFDjOiO-14" edge="1">
          <mxGeometry relative="1" as="geometry">
            <Array as="points">
              <mxPoint x="360" y="310" />
              <mxPoint x="160" y="310" />
            </Array>
          </mxGeometry>
        </mxCell>
        <mxCell id="aYTpTJbrAlLZizFDjOiO-12" value="Menampilkan Halaman Sesuai Dengan Opsi Yang Dipilih" style="rounded=1;whiteSpace=wrap;html=1;" parent="aYTpTJbrAlLZizFDjOiO-1" vertex="1">
          <mxGeometry x="300" y="240" width="120" height="60" as="geometry" />
        </mxCell>
        <mxCell id="aYTpTJbrAlLZizFDjOiO-13" value="" style="edgeStyle=orthogonalEdgeStyle;rounded=0;orthogonalLoop=1;jettySize=auto;html=1;" parent="aYTpTJbrAlLZizFDjOiO-1" source="aYTpTJbrAlLZizFDjOiO-14" target="aYTpTJbrAlLZizFDjOiO-19" edge="1">
          <mxGeometry relative="1" as="geometry">
            <Array as="points">
              <mxPoint x="160" y="460" />
            </Array>
          </mxGeometry>
        </mxCell>
        <mxCell id="aYTpTJbrAlLZizFDjOiO-14" value="Memilih Export Excel Dengan Format Yang Dipilih" style="rounded=1;whiteSpace=wrap;html=1;" parent="aYTpTJbrAlLZizFDjOiO-1" vertex="1">
          <mxGeometry x="100" y="330" width="120" height="60" as="geometry" />
        </mxCell>
        <mxCell id="aYTpTJbrAlLZizFDjOiO-15" value="" style="edgeStyle=orthogonalEdgeStyle;rounded=0;orthogonalLoop=1;jettySize=auto;html=1;" parent="aYTpTJbrAlLZizFDjOiO-1" source="aYTpTJbrAlLZizFDjOiO-19" target="aYTpTJbrAlLZizFDjOiO-21" edge="1">
          <mxGeometry relative="1" as="geometry" />
        </mxCell>
        <mxCell id="aYTpTJbrAlLZizFDjOiO-16" value="Ya" style="edgeLabel;html=1;align=center;verticalAlign=middle;resizable=0;points=[];" parent="aYTpTJbrAlLZizFDjOiO-15" vertex="1" connectable="0">
          <mxGeometry x="-0.55" y="-2" relative="1" as="geometry">
            <mxPoint as="offset" />
          </mxGeometry>
        </mxCell>
        <mxCell id="aYTpTJbrAlLZizFDjOiO-17" value="" style="edgeStyle=orthogonalEdgeStyle;rounded=0;orthogonalLoop=1;jettySize=auto;html=1;" parent="aYTpTJbrAlLZizFDjOiO-1" source="aYTpTJbrAlLZizFDjOiO-19" target="aYTpTJbrAlLZizFDjOiO-25" edge="1">
          <mxGeometry relative="1" as="geometry" />
        </mxCell>
        <mxCell id="aYTpTJbrAlLZizFDjOiO-18" value="Tidak" style="edgeLabel;html=1;align=center;verticalAlign=middle;resizable=0;points=[];" parent="aYTpTJbrAlLZizFDjOiO-17" vertex="1" connectable="0">
          <mxGeometry x="0.32" y="2" relative="1" as="geometry">
            <mxPoint as="offset" />
          </mxGeometry>
        </mxCell>
        <mxCell id="aYTpTJbrAlLZizFDjOiO-19" value="" style="rhombus;whiteSpace=wrap;html=1;rounded=1;" parent="aYTpTJbrAlLZizFDjOiO-1" vertex="1">
          <mxGeometry x="320" y="420" width="80" height="80" as="geometry" />
        </mxCell>
        <mxCell id="aYTpTJbrAlLZizFDjOiO-20" value="" style="edgeStyle=orthogonalEdgeStyle;rounded=0;orthogonalLoop=1;jettySize=auto;html=1;" parent="aYTpTJbrAlLZizFDjOiO-1" source="aYTpTJbrAlLZizFDjOiO-21" target="aYTpTJbrAlLZizFDjOiO-23" edge="1">
          <mxGeometry relative="1" as="geometry" />
        </mxCell>
        <mxCell id="aYTpTJbrAlLZizFDjOiO-21" value="Validasi Sistem dan memberikan excel dengan format yang dipilih" style="whiteSpace=wrap;html=1;rounded=1;" parent="aYTpTJbrAlLZizFDjOiO-1" vertex="1">
          <mxGeometry x="300" y="540" width="120" height="60" as="geometry" />
        </mxCell>
        <mxCell id="aYTpTJbrAlLZizFDjOiO-22" style="edgeStyle=orthogonalEdgeStyle;rounded=0;orthogonalLoop=1;jettySize=auto;html=1;exitX=0.5;exitY=1;exitDx=0;exitDy=0;entryX=0.5;entryY=0;entryDx=0;entryDy=0;" parent="aYTpTJbrAlLZizFDjOiO-1" source="aYTpTJbrAlLZizFDjOiO-23" target="aYTpTJbrAlLZizFDjOiO-2" edge="1">
          <mxGeometry relative="1" as="geometry" />
        </mxCell>
        <mxCell id="aYTpTJbrAlLZizFDjOiO-23" value="Menampilkan Halaman Laporan Keuangan" style="whiteSpace=wrap;html=1;rounded=1;" parent="aYTpTJbrAlLZizFDjOiO-1" vertex="1">
          <mxGeometry x="100" y="540" width="120" height="60" as="geometry" />
        </mxCell>
        <mxCell id="aYTpTJbrAlLZizFDjOiO-24" style="edgeStyle=orthogonalEdgeStyle;rounded=0;orthogonalLoop=1;jettySize=auto;html=1;exitX=1;exitY=0.5;exitDx=0;exitDy=0;entryX=1;entryY=0.5;entryDx=0;entryDy=0;" parent="aYTpTJbrAlLZizFDjOiO-1" source="aYTpTJbrAlLZizFDjOiO-25" target="aYTpTJbrAlLZizFDjOiO-12" edge="1">
          <mxGeometry relative="1" as="geometry" />
        </mxCell>
        <mxCell id="aYTpTJbrAlLZizFDjOiO-25" value="Menampilkan Pesan Gagal Data Tidak Sesuai" style="whiteSpace=wrap;html=1;rounded=1;" parent="aYTpTJbrAlLZizFDjOiO-1" vertex="1">
          <mxGeometry x="300" y="330" width="120" height="60" as="geometry" />
        </mxCell>
        <mxCell id="uipm2Afg_0gN4Chk_wI0-0" value="User" style="swimlane;whiteSpace=wrap;html=1;" parent="aYTpTJbrAlLZizFDjOiO-1" vertex="1">
          <mxGeometry x="60" y="20" width="200" height="670" as="geometry" />
        </mxCell>
        <mxCell id="uipm2Afg_0gN4Chk_wI0-1" value="Sistem" style="swimlane;whiteSpace=wrap;html=1;" parent="aYTpTJbrAlLZizFDjOiO-1" vertex="1">
          <mxGeometry x="260" y="20" width="200" height="670" as="geometry" />
        </mxCell>
      </root>
    </mxGraphModel>
  </diagram>
  <diagram name="Kelola Distribusi" id="UvP7xbr03XXmUHsIGRUJ">
    <mxGraphModel dx="1426" dy="849" grid="1" gridSize="10" guides="1" tooltips="1" connect="1" arrows="1" fold="1" page="1" pageScale="1" pageWidth="850" pageHeight="1100" math="0" shadow="0">
      <root>
        <mxCell id="26dRpvTxJYjVUc7HpnbF-0" />
        <mxCell id="26dRpvTxJYjVUc7HpnbF-1" parent="26dRpvTxJYjVUc7HpnbF-0" />
        <mxCell id="26dRpvTxJYjVUc7HpnbF-2" value="" style="ellipse;html=1;shape=endState;fillColor=#000000;strokeColor=#ff0000;" parent="26dRpvTxJYjVUc7HpnbF-1" vertex="1">
          <mxGeometry x="140" y="640" width="40" height="40" as="geometry" />
        </mxCell>
        <mxCell id="26dRpvTxJYjVUc7HpnbF-3" style="edgeStyle=orthogonalEdgeStyle;rounded=0;orthogonalLoop=1;jettySize=auto;html=1;exitX=0.5;exitY=1;exitDx=0;exitDy=0;entryX=0.5;entryY=0;entryDx=0;entryDy=0;" parent="26dRpvTxJYjVUc7HpnbF-1" source="26dRpvTxJYjVUc7HpnbF-4" target="26dRpvTxJYjVUc7HpnbF-6" edge="1">
          <mxGeometry relative="1" as="geometry" />
        </mxCell>
        <mxCell id="26dRpvTxJYjVUc7HpnbF-4" value="" style="ellipse;whiteSpace=wrap;html=1;aspect=fixed;fillColor=light-dark(#1a1919, #ededed);" parent="26dRpvTxJYjVUc7HpnbF-1" vertex="1">
          <mxGeometry x="140" y="60" width="40" height="40" as="geometry" />
        </mxCell>
        <mxCell id="26dRpvTxJYjVUc7HpnbF-5" value="" style="edgeStyle=orthogonalEdgeStyle;rounded=0;orthogonalLoop=1;jettySize=auto;html=1;" parent="26dRpvTxJYjVUc7HpnbF-1" source="26dRpvTxJYjVUc7HpnbF-6" target="26dRpvTxJYjVUc7HpnbF-8" edge="1">
          <mxGeometry relative="1" as="geometry" />
        </mxCell>
        <mxCell id="26dRpvTxJYjVUc7HpnbF-6" value="Membuka Menu Kelola Distribusi" style="rounded=1;whiteSpace=wrap;html=1;" parent="26dRpvTxJYjVUc7HpnbF-1" vertex="1">
          <mxGeometry x="100" y="140" width="120" height="60" as="geometry" />
        </mxCell>
        <mxCell id="26dRpvTxJYjVUc7HpnbF-7" value="" style="edgeStyle=orthogonalEdgeStyle;rounded=0;orthogonalLoop=1;jettySize=auto;html=1;" parent="26dRpvTxJYjVUc7HpnbF-1" source="26dRpvTxJYjVUc7HpnbF-8" target="26dRpvTxJYjVUc7HpnbF-10" edge="1">
          <mxGeometry relative="1" as="geometry">
            <Array as="points">
              <mxPoint x="360" y="220" />
              <mxPoint x="160" y="220" />
            </Array>
          </mxGeometry>
        </mxCell>
        <mxCell id="26dRpvTxJYjVUc7HpnbF-8" value="Menampilkan Semua List Distribusi Dari Semua Agen" style="rounded=1;whiteSpace=wrap;html=1;" parent="26dRpvTxJYjVUc7HpnbF-1" vertex="1">
          <mxGeometry x="300" y="140" width="120" height="60" as="geometry" />
        </mxCell>
        <mxCell id="26dRpvTxJYjVUc7HpnbF-9" value="" style="edgeStyle=orthogonalEdgeStyle;rounded=0;orthogonalLoop=1;jettySize=auto;html=1;" parent="26dRpvTxJYjVUc7HpnbF-1" source="26dRpvTxJYjVUc7HpnbF-10" target="26dRpvTxJYjVUc7HpnbF-12" edge="1">
          <mxGeometry relative="1" as="geometry" />
        </mxCell>
        <mxCell id="26dRpvTxJYjVUc7HpnbF-10" value="Memilih Opsi Buat Atau Edit" style="rounded=1;whiteSpace=wrap;html=1;" parent="26dRpvTxJYjVUc7HpnbF-1" vertex="1">
          <mxGeometry x="100" y="240" width="120" height="60" as="geometry" />
        </mxCell>
        <mxCell id="26dRpvTxJYjVUc7HpnbF-11" value="" style="edgeStyle=orthogonalEdgeStyle;rounded=0;orthogonalLoop=1;jettySize=auto;html=1;" parent="26dRpvTxJYjVUc7HpnbF-1" source="26dRpvTxJYjVUc7HpnbF-12" target="26dRpvTxJYjVUc7HpnbF-14" edge="1">
          <mxGeometry relative="1" as="geometry">
            <Array as="points">
              <mxPoint x="360" y="310" />
              <mxPoint x="160" y="310" />
            </Array>
          </mxGeometry>
        </mxCell>
        <mxCell id="26dRpvTxJYjVUc7HpnbF-12" value="Menampilkan Halaman Sesuai Dengan Opsi Yang Dipilih" style="rounded=1;whiteSpace=wrap;html=1;" parent="26dRpvTxJYjVUc7HpnbF-1" vertex="1">
          <mxGeometry x="300" y="240" width="120" height="60" as="geometry" />
        </mxCell>
        <mxCell id="26dRpvTxJYjVUc7HpnbF-13" value="" style="edgeStyle=orthogonalEdgeStyle;rounded=0;orthogonalLoop=1;jettySize=auto;html=1;" parent="26dRpvTxJYjVUc7HpnbF-1" source="26dRpvTxJYjVUc7HpnbF-14" target="26dRpvTxJYjVUc7HpnbF-19" edge="1">
          <mxGeometry relative="1" as="geometry">
            <Array as="points">
              <mxPoint x="160" y="460" />
            </Array>
          </mxGeometry>
        </mxCell>
        <mxCell id="26dRpvTxJYjVUc7HpnbF-14" value="Mengisi Form Input Sesuai Dengan Opsi Yang Dipilih" style="rounded=1;whiteSpace=wrap;html=1;" parent="26dRpvTxJYjVUc7HpnbF-1" vertex="1">
          <mxGeometry x="100" y="330" width="120" height="60" as="geometry" />
        </mxCell>
        <mxCell id="26dRpvTxJYjVUc7HpnbF-15" value="" style="edgeStyle=orthogonalEdgeStyle;rounded=0;orthogonalLoop=1;jettySize=auto;html=1;" parent="26dRpvTxJYjVUc7HpnbF-1" source="26dRpvTxJYjVUc7HpnbF-19" target="26dRpvTxJYjVUc7HpnbF-21" edge="1">
          <mxGeometry relative="1" as="geometry" />
        </mxCell>
        <mxCell id="26dRpvTxJYjVUc7HpnbF-16" value="Ya" style="edgeLabel;html=1;align=center;verticalAlign=middle;resizable=0;points=[];" parent="26dRpvTxJYjVUc7HpnbF-15" vertex="1" connectable="0">
          <mxGeometry x="-0.55" y="-2" relative="1" as="geometry">
            <mxPoint as="offset" />
          </mxGeometry>
        </mxCell>
        <mxCell id="26dRpvTxJYjVUc7HpnbF-17" value="" style="edgeStyle=orthogonalEdgeStyle;rounded=0;orthogonalLoop=1;jettySize=auto;html=1;" parent="26dRpvTxJYjVUc7HpnbF-1" source="26dRpvTxJYjVUc7HpnbF-19" target="26dRpvTxJYjVUc7HpnbF-25" edge="1">
          <mxGeometry relative="1" as="geometry" />
        </mxCell>
        <mxCell id="26dRpvTxJYjVUc7HpnbF-18" value="Tidak" style="edgeLabel;html=1;align=center;verticalAlign=middle;resizable=0;points=[];" parent="26dRpvTxJYjVUc7HpnbF-17" vertex="1" connectable="0">
          <mxGeometry x="0.32" y="2" relative="1" as="geometry">
            <mxPoint as="offset" />
          </mxGeometry>
        </mxCell>
        <mxCell id="26dRpvTxJYjVUc7HpnbF-19" value="" style="rhombus;whiteSpace=wrap;html=1;rounded=1;" parent="26dRpvTxJYjVUc7HpnbF-1" vertex="1">
          <mxGeometry x="320" y="420" width="80" height="80" as="geometry" />
        </mxCell>
        <mxCell id="26dRpvTxJYjVUc7HpnbF-20" value="" style="edgeStyle=orthogonalEdgeStyle;rounded=0;orthogonalLoop=1;jettySize=auto;html=1;" parent="26dRpvTxJYjVUc7HpnbF-1" source="26dRpvTxJYjVUc7HpnbF-21" target="26dRpvTxJYjVUc7HpnbF-23" edge="1">
          <mxGeometry relative="1" as="geometry" />
        </mxCell>
        <mxCell id="26dRpvTxJYjVUc7HpnbF-21" value="Validasi Sistem dan memberikan excel dengan format yang dipilih" style="whiteSpace=wrap;html=1;rounded=1;" parent="26dRpvTxJYjVUc7HpnbF-1" vertex="1">
          <mxGeometry x="300" y="540" width="120" height="60" as="geometry" />
        </mxCell>
        <mxCell id="26dRpvTxJYjVUc7HpnbF-22" style="edgeStyle=orthogonalEdgeStyle;rounded=0;orthogonalLoop=1;jettySize=auto;html=1;exitX=0.5;exitY=1;exitDx=0;exitDy=0;entryX=0.5;entryY=0;entryDx=0;entryDy=0;" parent="26dRpvTxJYjVUc7HpnbF-1" source="26dRpvTxJYjVUc7HpnbF-23" target="26dRpvTxJYjVUc7HpnbF-2" edge="1">
          <mxGeometry relative="1" as="geometry" />
        </mxCell>
        <mxCell id="26dRpvTxJYjVUc7HpnbF-23" value="Menampilkan Kelola Distribusi Terbaru" style="whiteSpace=wrap;html=1;rounded=1;" parent="26dRpvTxJYjVUc7HpnbF-1" vertex="1">
          <mxGeometry x="100" y="540" width="120" height="60" as="geometry" />
        </mxCell>
        <mxCell id="26dRpvTxJYjVUc7HpnbF-24" style="edgeStyle=orthogonalEdgeStyle;rounded=0;orthogonalLoop=1;jettySize=auto;html=1;exitX=1;exitY=0.5;exitDx=0;exitDy=0;entryX=1;entryY=0.5;entryDx=0;entryDy=0;" parent="26dRpvTxJYjVUc7HpnbF-1" source="26dRpvTxJYjVUc7HpnbF-25" target="26dRpvTxJYjVUc7HpnbF-12" edge="1">
          <mxGeometry relative="1" as="geometry" />
        </mxCell>
        <mxCell id="26dRpvTxJYjVUc7HpnbF-25" value="Menampilkan Pesan Gagal Data Tidak Sesuai" style="whiteSpace=wrap;html=1;rounded=1;" parent="26dRpvTxJYjVUc7HpnbF-1" vertex="1">
          <mxGeometry x="300" y="330" width="120" height="60" as="geometry" />
        </mxCell>
        <mxCell id="hTYQwuqPChQOlDpY7DYp-0" value="User" style="swimlane;whiteSpace=wrap;html=1;" parent="26dRpvTxJYjVUc7HpnbF-1" vertex="1">
          <mxGeometry x="60" y="20" width="200" height="680" as="geometry" />
        </mxCell>
        <mxCell id="hTYQwuqPChQOlDpY7DYp-1" value="Sistem" style="swimlane;whiteSpace=wrap;html=1;" parent="26dRpvTxJYjVUc7HpnbF-1" vertex="1">
          <mxGeometry x="260" y="20" width="200" height="680" as="geometry" />
        </mxCell>
      </root>
    </mxGraphModel>
  </diagram>
  <diagram name="Daftar Pemasok" id="CVnF1vpvaKfwmj9XoZmG">
    <mxGraphModel dx="1426" dy="849" grid="1" gridSize="10" guides="1" tooltips="1" connect="1" arrows="1" fold="1" page="1" pageScale="1" pageWidth="850" pageHeight="1100" math="0" shadow="0">
      <root>
        <mxCell id="g00uREWXbE8NPORUp7ef-0" />
        <mxCell id="g00uREWXbE8NPORUp7ef-1" parent="g00uREWXbE8NPORUp7ef-0" />
        <mxCell id="g00uREWXbE8NPORUp7ef-2" value="" style="ellipse;html=1;shape=endState;fillColor=#000000;strokeColor=#ff0000;" parent="g00uREWXbE8NPORUp7ef-1" vertex="1">
          <mxGeometry x="140" y="640" width="40" height="40" as="geometry" />
        </mxCell>
        <mxCell id="g00uREWXbE8NPORUp7ef-3" style="edgeStyle=orthogonalEdgeStyle;rounded=0;orthogonalLoop=1;jettySize=auto;html=1;exitX=0.5;exitY=1;exitDx=0;exitDy=0;entryX=0.5;entryY=0;entryDx=0;entryDy=0;" parent="g00uREWXbE8NPORUp7ef-1" source="g00uREWXbE8NPORUp7ef-4" target="g00uREWXbE8NPORUp7ef-6" edge="1">
          <mxGeometry relative="1" as="geometry" />
        </mxCell>
        <mxCell id="g00uREWXbE8NPORUp7ef-4" value="" style="ellipse;whiteSpace=wrap;html=1;aspect=fixed;fillColor=light-dark(#1a1919, #ededed);" parent="g00uREWXbE8NPORUp7ef-1" vertex="1">
          <mxGeometry x="140" y="60" width="40" height="40" as="geometry" />
        </mxCell>
        <mxCell id="g00uREWXbE8NPORUp7ef-5" value="" style="edgeStyle=orthogonalEdgeStyle;rounded=0;orthogonalLoop=1;jettySize=auto;html=1;" parent="g00uREWXbE8NPORUp7ef-1" source="g00uREWXbE8NPORUp7ef-6" target="g00uREWXbE8NPORUp7ef-8" edge="1">
          <mxGeometry relative="1" as="geometry" />
        </mxCell>
        <mxCell id="g00uREWXbE8NPORUp7ef-6" value="Membuka Menu User" style="rounded=1;whiteSpace=wrap;html=1;" parent="g00uREWXbE8NPORUp7ef-1" vertex="1">
          <mxGeometry x="100" y="140" width="120" height="60" as="geometry" />
        </mxCell>
        <mxCell id="g00uREWXbE8NPORUp7ef-7" value="" style="edgeStyle=orthogonalEdgeStyle;rounded=0;orthogonalLoop=1;jettySize=auto;html=1;" parent="g00uREWXbE8NPORUp7ef-1" source="g00uREWXbE8NPORUp7ef-8" target="g00uREWXbE8NPORUp7ef-10" edge="1">
          <mxGeometry relative="1" as="geometry">
            <Array as="points">
              <mxPoint x="360" y="220" />
              <mxPoint x="160" y="220" />
            </Array>
          </mxGeometry>
        </mxCell>
        <mxCell id="g00uREWXbE8NPORUp7ef-8" value="Menampilkan Semua List User" style="rounded=1;whiteSpace=wrap;html=1;" parent="g00uREWXbE8NPORUp7ef-1" vertex="1">
          <mxGeometry x="300" y="140" width="120" height="60" as="geometry" />
        </mxCell>
        <mxCell id="g00uREWXbE8NPORUp7ef-9" value="" style="edgeStyle=orthogonalEdgeStyle;rounded=0;orthogonalLoop=1;jettySize=auto;html=1;" parent="g00uREWXbE8NPORUp7ef-1" source="g00uREWXbE8NPORUp7ef-10" target="g00uREWXbE8NPORUp7ef-12" edge="1">
          <mxGeometry relative="1" as="geometry" />
        </mxCell>
        <mxCell id="g00uREWXbE8NPORUp7ef-10" value="Memilih Opsi Buat, Edit, Hapus" style="rounded=1;whiteSpace=wrap;html=1;" parent="g00uREWXbE8NPORUp7ef-1" vertex="1">
          <mxGeometry x="100" y="240" width="120" height="60" as="geometry" />
        </mxCell>
        <mxCell id="g00uREWXbE8NPORUp7ef-11" value="" style="edgeStyle=orthogonalEdgeStyle;rounded=0;orthogonalLoop=1;jettySize=auto;html=1;" parent="g00uREWXbE8NPORUp7ef-1" source="g00uREWXbE8NPORUp7ef-12" target="g00uREWXbE8NPORUp7ef-14" edge="1">
          <mxGeometry relative="1" as="geometry">
            <Array as="points">
              <mxPoint x="360" y="310" />
              <mxPoint x="160" y="310" />
            </Array>
          </mxGeometry>
        </mxCell>
        <mxCell id="g00uREWXbE8NPORUp7ef-12" value="Menampilkan Halaman Sesuai Dengan Opsi Yang Dipilih" style="rounded=1;whiteSpace=wrap;html=1;" parent="g00uREWXbE8NPORUp7ef-1" vertex="1">
          <mxGeometry x="300" y="240" width="120" height="60" as="geometry" />
        </mxCell>
        <mxCell id="g00uREWXbE8NPORUp7ef-13" value="" style="edgeStyle=orthogonalEdgeStyle;rounded=0;orthogonalLoop=1;jettySize=auto;html=1;" parent="g00uREWXbE8NPORUp7ef-1" source="g00uREWXbE8NPORUp7ef-14" target="g00uREWXbE8NPORUp7ef-19" edge="1">
          <mxGeometry relative="1" as="geometry">
            <Array as="points">
              <mxPoint x="160" y="460" />
            </Array>
          </mxGeometry>
        </mxCell>
        <mxCell id="g00uREWXbE8NPORUp7ef-14" value="Mengisi Form Input Sesuai Dengan Opsi Yang Dipilih" style="rounded=1;whiteSpace=wrap;html=1;" parent="g00uREWXbE8NPORUp7ef-1" vertex="1">
          <mxGeometry x="100" y="330" width="120" height="60" as="geometry" />
        </mxCell>
        <mxCell id="g00uREWXbE8NPORUp7ef-15" value="" style="edgeStyle=orthogonalEdgeStyle;rounded=0;orthogonalLoop=1;jettySize=auto;html=1;" parent="g00uREWXbE8NPORUp7ef-1" source="g00uREWXbE8NPORUp7ef-19" target="g00uREWXbE8NPORUp7ef-21" edge="1">
          <mxGeometry relative="1" as="geometry" />
        </mxCell>
        <mxCell id="g00uREWXbE8NPORUp7ef-16" value="Ya" style="edgeLabel;html=1;align=center;verticalAlign=middle;resizable=0;points=[];" parent="g00uREWXbE8NPORUp7ef-15" vertex="1" connectable="0">
          <mxGeometry x="-0.55" y="-2" relative="1" as="geometry">
            <mxPoint as="offset" />
          </mxGeometry>
        </mxCell>
        <mxCell id="g00uREWXbE8NPORUp7ef-17" value="" style="edgeStyle=orthogonalEdgeStyle;rounded=0;orthogonalLoop=1;jettySize=auto;html=1;" parent="g00uREWXbE8NPORUp7ef-1" source="g00uREWXbE8NPORUp7ef-19" target="g00uREWXbE8NPORUp7ef-25" edge="1">
          <mxGeometry relative="1" as="geometry" />
        </mxCell>
        <mxCell id="g00uREWXbE8NPORUp7ef-18" value="Tidak" style="edgeLabel;html=1;align=center;verticalAlign=middle;resizable=0;points=[];" parent="g00uREWXbE8NPORUp7ef-17" vertex="1" connectable="0">
          <mxGeometry x="0.32" y="2" relative="1" as="geometry">
            <mxPoint as="offset" />
          </mxGeometry>
        </mxCell>
        <mxCell id="g00uREWXbE8NPORUp7ef-19" value="" style="rhombus;whiteSpace=wrap;html=1;rounded=1;" parent="g00uREWXbE8NPORUp7ef-1" vertex="1">
          <mxGeometry x="320" y="420" width="80" height="80" as="geometry" />
        </mxCell>
        <mxCell id="g00uREWXbE8NPORUp7ef-20" value="" style="edgeStyle=orthogonalEdgeStyle;rounded=0;orthogonalLoop=1;jettySize=auto;html=1;" parent="g00uREWXbE8NPORUp7ef-1" source="g00uREWXbE8NPORUp7ef-21" target="g00uREWXbE8NPORUp7ef-23" edge="1">
          <mxGeometry relative="1" as="geometry" />
        </mxCell>
        <mxCell id="g00uREWXbE8NPORUp7ef-21" value="Menampilkan Pesan Berhasill Dan Menyimpan Ke Database" style="whiteSpace=wrap;html=1;rounded=1;" parent="g00uREWXbE8NPORUp7ef-1" vertex="1">
          <mxGeometry x="300" y="540" width="120" height="60" as="geometry" />
        </mxCell>
        <mxCell id="g00uREWXbE8NPORUp7ef-22" style="edgeStyle=orthogonalEdgeStyle;rounded=0;orthogonalLoop=1;jettySize=auto;html=1;exitX=0.5;exitY=1;exitDx=0;exitDy=0;entryX=0.5;entryY=0;entryDx=0;entryDy=0;" parent="g00uREWXbE8NPORUp7ef-1" source="g00uREWXbE8NPORUp7ef-23" target="g00uREWXbE8NPORUp7ef-2" edge="1">
          <mxGeometry relative="1" as="geometry" />
        </mxCell>
        <mxCell id="g00uREWXbE8NPORUp7ef-23" value="Menampilkan Tabel User Terbaru" style="whiteSpace=wrap;html=1;rounded=1;" parent="g00uREWXbE8NPORUp7ef-1" vertex="1">
          <mxGeometry x="100" y="540" width="120" height="60" as="geometry" />
        </mxCell>
        <mxCell id="g00uREWXbE8NPORUp7ef-24" style="edgeStyle=orthogonalEdgeStyle;rounded=0;orthogonalLoop=1;jettySize=auto;html=1;exitX=1;exitY=0.5;exitDx=0;exitDy=0;entryX=1;entryY=0.5;entryDx=0;entryDy=0;" parent="g00uREWXbE8NPORUp7ef-1" source="g00uREWXbE8NPORUp7ef-25" target="g00uREWXbE8NPORUp7ef-12" edge="1">
          <mxGeometry relative="1" as="geometry" />
        </mxCell>
        <mxCell id="g00uREWXbE8NPORUp7ef-25" value="Menampilkan Pesan Gagal Data Tidak Sesuai" style="whiteSpace=wrap;html=1;rounded=1;" parent="g00uREWXbE8NPORUp7ef-1" vertex="1">
          <mxGeometry x="300" y="330" width="120" height="60" as="geometry" />
        </mxCell>
        <mxCell id="DTpxvBk-W4ilYfewn6ft-0" value="User" style="swimlane;whiteSpace=wrap;html=1;" parent="g00uREWXbE8NPORUp7ef-1" vertex="1">
          <mxGeometry x="60" y="20" width="200" height="670" as="geometry" />
        </mxCell>
        <mxCell id="DTpxvBk-W4ilYfewn6ft-1" value="Sistem" style="swimlane;whiteSpace=wrap;html=1;" parent="g00uREWXbE8NPORUp7ef-1" vertex="1">
          <mxGeometry x="260" y="20" width="200" height="670" as="geometry" />
        </mxCell>
      </root>
    </mxGraphModel>
  </diagram>
</mxfile>
